%TF.GenerationSoftware,KiCad,Pcbnew,(5.1.8)-1*%
%TF.CreationDate,2021-01-06T02:07:28+05:30*%
%TF.ProjectId,LSA,4c53412e-6b69-4636-9164-5f7063625858,rev?*%
%TF.SameCoordinates,Original*%
%TF.FileFunction,Copper,L1,Top*%
%TF.FilePolarity,Positive*%
%FSLAX46Y46*%
G04 Gerber Fmt 4.6, Leading zero omitted, Abs format (unit mm)*
G04 Created by KiCad (PCBNEW (5.1.8)-1) date 2021-01-06 02:07:28*
%MOMM*%
%LPD*%
G01*
G04 APERTURE LIST*
%TA.AperFunction,NonConductor*%
%ADD10C,0.300000*%
%TD*%
%TA.AperFunction,ComponentPad*%
%ADD11C,1.800000*%
%TD*%
%TA.AperFunction,ComponentPad*%
%ADD12R,1.800000X1.800000*%
%TD*%
%TA.AperFunction,ComponentPad*%
%ADD13O,1.400000X1.400000*%
%TD*%
%TA.AperFunction,ComponentPad*%
%ADD14C,1.400000*%
%TD*%
%TA.AperFunction,ComponentPad*%
%ADD15O,0.850000X0.850000*%
%TD*%
%TA.AperFunction,ComponentPad*%
%ADD16R,0.850000X0.850000*%
%TD*%
%TA.AperFunction,ComponentPad*%
%ADD17O,1.600000X1.600000*%
%TD*%
%TA.AperFunction,ComponentPad*%
%ADD18R,1.600000X1.600000*%
%TD*%
%TA.AperFunction,ViaPad*%
%ADD19C,0.800000*%
%TD*%
%TA.AperFunction,Conductor*%
%ADD20C,0.250000*%
%TD*%
%TA.AperFunction,Conductor*%
%ADD21C,0.254000*%
%TD*%
%TA.AperFunction,Conductor*%
%ADD22C,0.100000*%
%TD*%
G04 APERTURE END LIST*
D10*
X113249642Y-104068571D02*
X112535357Y-104068571D01*
X112722857Y-102568571D01*
X113749642Y-104068571D02*
X113874642Y-103068571D01*
X113937142Y-102568571D02*
X113856785Y-102640000D01*
X113919285Y-102711428D01*
X113999642Y-102640000D01*
X113937142Y-102568571D01*
X113919285Y-102711428D01*
X114588928Y-103068571D02*
X114463928Y-104068571D01*
X114571071Y-103211428D02*
X114651428Y-103140000D01*
X114803214Y-103068571D01*
X115017500Y-103068571D01*
X115151428Y-103140000D01*
X115205000Y-103282857D01*
X115106785Y-104068571D01*
X116401428Y-103997142D02*
X116249642Y-104068571D01*
X115963928Y-104068571D01*
X115830000Y-103997142D01*
X115776428Y-103854285D01*
X115847857Y-103282857D01*
X115937142Y-103140000D01*
X116088928Y-103068571D01*
X116374642Y-103068571D01*
X116508571Y-103140000D01*
X116562142Y-103282857D01*
X116544285Y-103425714D01*
X115812142Y-103568571D01*
X118187142Y-103997142D02*
X118392500Y-104068571D01*
X118749642Y-104068571D01*
X118901428Y-103997142D01*
X118981785Y-103925714D01*
X119071071Y-103782857D01*
X119088928Y-103640000D01*
X119035357Y-103497142D01*
X118972857Y-103425714D01*
X118838928Y-103354285D01*
X118562142Y-103282857D01*
X118428214Y-103211428D01*
X118365714Y-103140000D01*
X118312142Y-102997142D01*
X118330000Y-102854285D01*
X118419285Y-102711428D01*
X118499642Y-102640000D01*
X118651428Y-102568571D01*
X119008571Y-102568571D01*
X119213928Y-102640000D01*
X120258571Y-103997142D02*
X120106785Y-104068571D01*
X119821071Y-104068571D01*
X119687142Y-103997142D01*
X119633571Y-103854285D01*
X119705000Y-103282857D01*
X119794285Y-103140000D01*
X119946071Y-103068571D01*
X120231785Y-103068571D01*
X120365714Y-103140000D01*
X120419285Y-103282857D01*
X120401428Y-103425714D01*
X119669285Y-103568571D01*
X121088928Y-103068571D02*
X120963928Y-104068571D01*
X121071071Y-103211428D02*
X121151428Y-103140000D01*
X121303214Y-103068571D01*
X121517500Y-103068571D01*
X121651428Y-103140000D01*
X121705000Y-103282857D01*
X121606785Y-104068571D01*
X122258571Y-103997142D02*
X122392500Y-104068571D01*
X122678214Y-104068571D01*
X122830000Y-103997142D01*
X122919285Y-103854285D01*
X122928214Y-103782857D01*
X122874642Y-103640000D01*
X122740714Y-103568571D01*
X122526428Y-103568571D01*
X122392500Y-103497142D01*
X122338928Y-103354285D01*
X122347857Y-103282857D01*
X122437142Y-103140000D01*
X122588928Y-103068571D01*
X122803214Y-103068571D01*
X122937142Y-103140000D01*
X123749642Y-104068571D02*
X123615714Y-103997142D01*
X123553214Y-103925714D01*
X123499642Y-103782857D01*
X123553214Y-103354285D01*
X123642500Y-103211428D01*
X123722857Y-103140000D01*
X123874642Y-103068571D01*
X124088928Y-103068571D01*
X124222857Y-103140000D01*
X124285357Y-103211428D01*
X124338928Y-103354285D01*
X124285357Y-103782857D01*
X124196071Y-103925714D01*
X124115714Y-103997142D01*
X123963928Y-104068571D01*
X123749642Y-104068571D01*
X124892500Y-104068571D02*
X125017500Y-103068571D01*
X124981785Y-103354285D02*
X125071071Y-103211428D01*
X125151428Y-103140000D01*
X125303214Y-103068571D01*
X125446071Y-103068571D01*
X126946071Y-103640000D02*
X127660357Y-103640000D01*
X126749642Y-104068571D02*
X127437142Y-102568571D01*
X127749642Y-104068571D01*
X128249642Y-104068571D02*
X128374642Y-103068571D01*
X128338928Y-103354285D02*
X128428214Y-103211428D01*
X128508571Y-103140000D01*
X128660357Y-103068571D01*
X128803214Y-103068571D01*
X129178214Y-104068571D02*
X129303214Y-103068571D01*
X129267500Y-103354285D02*
X129356785Y-103211428D01*
X129437142Y-103140000D01*
X129588928Y-103068571D01*
X129731785Y-103068571D01*
X130749642Y-104068571D02*
X130847857Y-103282857D01*
X130794285Y-103140000D01*
X130660357Y-103068571D01*
X130374642Y-103068571D01*
X130222857Y-103140000D01*
X130758571Y-103997142D02*
X130606785Y-104068571D01*
X130249642Y-104068571D01*
X130115714Y-103997142D01*
X130062142Y-103854285D01*
X130080000Y-103711428D01*
X130169285Y-103568571D01*
X130321071Y-103497142D01*
X130678214Y-103497142D01*
X130830000Y-103425714D01*
X131446071Y-103068571D02*
X131678214Y-104068571D01*
X132160357Y-103068571D02*
X131678214Y-104068571D01*
X131490714Y-104425714D01*
X131410357Y-104497142D01*
X131258571Y-104568571D01*
D11*
%TO.P,D2,2*%
%TO.N,A2*%
X132930000Y-120760000D03*
D12*
%TO.P,D2,1*%
%TO.N,VCC*%
X130390000Y-120760000D03*
%TD*%
D13*
%TO.P,R8,2*%
%TO.N,GND*%
X156690000Y-116410000D03*
D14*
%TO.P,R8,1*%
%TO.N,A4*%
X161770000Y-116410000D03*
%TD*%
D15*
%TO.P,J1,10*%
%TO.N,01*%
X139060000Y-105210000D03*
%TO.P,J1,9*%
%TO.N,GND*%
X139060000Y-104210000D03*
%TO.P,J1,8*%
%TO.N,02*%
X140060000Y-105210000D03*
%TO.P,J1,7*%
%TO.N,VCC*%
X140060000Y-104210000D03*
%TO.P,J1,6*%
%TO.N,03*%
X141060000Y-105210000D03*
%TO.P,J1,5*%
%TO.N,Net-(J1-Pad5)*%
X141060000Y-104210000D03*
%TO.P,J1,4*%
%TO.N,04*%
X142060000Y-105210000D03*
%TO.P,J1,3*%
%TO.N,Net-(J1-Pad3)*%
X142060000Y-104210000D03*
%TO.P,J1,2*%
%TO.N,Net-(J1-Pad2)*%
X143060000Y-105210000D03*
D16*
%TO.P,J1,1*%
%TO.N,Net-(J1-Pad1)*%
X143060000Y-104210000D03*
%TD*%
D11*
%TO.P,D4,2*%
%TO.N,A4*%
X168530000Y-120850000D03*
D12*
%TO.P,D4,1*%
%TO.N,VCC*%
X165990000Y-120850000D03*
%TD*%
D11*
%TO.P,D3,2*%
%TO.N,A3*%
X151250000Y-120820000D03*
D12*
%TO.P,D3,1*%
%TO.N,VCC*%
X148710000Y-120820000D03*
%TD*%
D11*
%TO.P,D1,2*%
%TO.N,A1*%
X116010000Y-120720000D03*
D12*
%TO.P,D1,1*%
%TO.N,VCC*%
X113470000Y-120720000D03*
%TD*%
D17*
%TO.P,U1,14*%
%TO.N,04*%
X144810000Y-115200000D03*
%TO.P,U1,7*%
%TO.N,03*%
X137190000Y-130440000D03*
%TO.P,U1,13*%
%TO.N,04*%
X144810000Y-117740000D03*
%TO.P,U1,6*%
%TO.N,03*%
X137190000Y-127900000D03*
%TO.P,U1,12*%
%TO.N,A4*%
X144810000Y-120280000D03*
%TO.P,U1,5*%
%TO.N,A3*%
X137190000Y-125360000D03*
%TO.P,U1,11*%
%TO.N,GND*%
X144810000Y-122820000D03*
%TO.P,U1,4*%
%TO.N,VCC*%
X137190000Y-122820000D03*
%TO.P,U1,10*%
%TO.N,A2*%
X144810000Y-125360000D03*
%TO.P,U1,3*%
%TO.N,A1*%
X137190000Y-120280000D03*
%TO.P,U1,9*%
%TO.N,02*%
X144810000Y-127900000D03*
%TO.P,U1,2*%
%TO.N,01*%
X137190000Y-117740000D03*
%TO.P,U1,8*%
%TO.N,02*%
X144810000Y-130440000D03*
D18*
%TO.P,U1,1*%
%TO.N,01*%
X137190000Y-115200000D03*
%TD*%
D13*
%TO.P,R7,2*%
%TO.N,GND*%
X161970000Y-111070000D03*
D14*
%TO.P,R7,1*%
%TO.N,A3*%
X156890000Y-111070000D03*
%TD*%
D13*
%TO.P,R6,2*%
%TO.N,GND*%
X120960000Y-111300000D03*
D14*
%TO.P,R6,1*%
%TO.N,A2*%
X126040000Y-111300000D03*
%TD*%
D13*
%TO.P,R5,2*%
%TO.N,GND*%
X123330000Y-126450000D03*
D14*
%TO.P,R5,1*%
%TO.N,A1*%
X123330000Y-121370000D03*
%TD*%
D13*
%TO.P,R4,2*%
%TO.N,Net-(D8-Pad1)*%
X158800000Y-127610000D03*
D14*
%TO.P,R4,1*%
%TO.N,VCC*%
X158800000Y-122530000D03*
%TD*%
D13*
%TO.P,R3,2*%
%TO.N,Net-(D7-Pad1)*%
X156220000Y-130700000D03*
D14*
%TO.P,R3,1*%
%TO.N,VCC*%
X161300000Y-130700000D03*
%TD*%
D13*
%TO.P,R2,2*%
%TO.N,Net-(D6-Pad1)*%
X126170000Y-117350000D03*
D14*
%TO.P,R2,1*%
%TO.N,VCC*%
X121090000Y-117350000D03*
%TD*%
D13*
%TO.P,R1,2*%
%TO.N,Net-(D5-Pad1)*%
X121090000Y-130160000D03*
D14*
%TO.P,R1,1*%
%TO.N,VCC*%
X126170000Y-130160000D03*
%TD*%
D11*
%TO.P,D8,2*%
%TO.N,GND*%
X168820000Y-129500000D03*
D12*
%TO.P,D8,1*%
%TO.N,Net-(D8-Pad1)*%
X166280000Y-129500000D03*
%TD*%
D11*
%TO.P,D7,2*%
%TO.N,GND*%
X151010000Y-129540000D03*
D12*
%TO.P,D7,1*%
%TO.N,Net-(D7-Pad1)*%
X148470000Y-129540000D03*
%TD*%
D11*
%TO.P,D6,2*%
%TO.N,GND*%
X133160000Y-129570000D03*
D12*
%TO.P,D6,1*%
%TO.N,Net-(D6-Pad1)*%
X130620000Y-129570000D03*
%TD*%
D11*
%TO.P,D5,2*%
%TO.N,GND*%
X115510000Y-129600000D03*
D12*
%TO.P,D5,1*%
%TO.N,Net-(D5-Pad1)*%
X112970000Y-129600000D03*
%TD*%
D19*
%TO.N,VCC*%
X130360000Y-123290000D03*
%TD*%
D20*
%TO.N,A1*%
X122680000Y-120720000D02*
X123330000Y-121370000D01*
X116010000Y-120720000D02*
X122680000Y-120720000D01*
X121892998Y-108850000D02*
X116270000Y-114472998D01*
X137190000Y-120280000D02*
X125760000Y-108850000D01*
X125760000Y-108850000D02*
X121892998Y-108850000D01*
X116270000Y-120460000D02*
X116010000Y-120720000D01*
X116270000Y-114472998D02*
X116270000Y-120460000D01*
X137190000Y-120280000D02*
X136130000Y-120280000D01*
%TO.N,VCC*%
X130390000Y-123260000D02*
X130360000Y-123290000D01*
X130390000Y-120760000D02*
X130390000Y-123260000D01*
%TO.N,A2*%
X126040000Y-111300000D02*
X126040000Y-113610000D01*
X132975000Y-120545000D02*
X133090000Y-120660000D01*
X126040000Y-113610000D02*
X132975000Y-120545000D01*
X134385001Y-121955001D02*
X132975000Y-120545000D01*
X134385001Y-129300003D02*
X134385001Y-121955001D01*
X144810000Y-125360000D02*
X138604999Y-131565001D01*
X138604999Y-131565001D02*
X136649999Y-131565001D01*
X136649999Y-131565001D02*
X134385001Y-129300003D01*
%TO.N,A3*%
X150024999Y-122045001D02*
X151250000Y-120820000D01*
X147549999Y-122045001D02*
X150024999Y-122045001D01*
X147199997Y-121694999D02*
X147549999Y-122045001D01*
X140855001Y-121694999D02*
X147199997Y-121694999D01*
X137190000Y-125360000D02*
X140855001Y-121694999D01*
X151250000Y-116710000D02*
X151250000Y-120820000D01*
X156890000Y-111070000D02*
X151250000Y-116710000D01*
%TO.N,A4*%
X155045001Y-110044999D02*
X158364999Y-110044999D01*
X144810000Y-120280000D02*
X155045001Y-110044999D01*
X158364999Y-110044999D02*
X160080000Y-111760000D01*
X160080000Y-111760000D02*
X160080000Y-113170000D01*
X160080000Y-113170000D02*
X159750000Y-113500000D01*
X159750000Y-113500000D02*
X156750000Y-113500000D01*
X156750000Y-113500000D02*
X153080000Y-117170000D01*
X153080000Y-117170000D02*
X153080000Y-124190000D01*
X153080000Y-124190000D02*
X147940000Y-124190000D01*
X147940000Y-124190000D02*
X145600000Y-126530000D01*
X145350001Y-131565001D02*
X147010000Y-129905002D01*
X144269999Y-131565001D02*
X145350001Y-131565001D01*
X143684999Y-130980001D02*
X144269999Y-131565001D01*
X143684999Y-127359999D02*
X143684999Y-130980001D01*
X144514998Y-126530000D02*
X143684999Y-127359999D01*
X145600000Y-126530000D02*
X144514998Y-126530000D01*
X147010000Y-128614998D02*
X148894998Y-126730000D01*
X147010000Y-129905002D02*
X147010000Y-128614998D01*
X148894998Y-126730000D02*
X155950000Y-126730000D01*
X155950000Y-126730000D02*
X156610000Y-126070000D01*
X156610000Y-126070000D02*
X156610000Y-121020000D01*
X156610000Y-121020000D02*
X158790000Y-118840000D01*
X158790000Y-118840000D02*
X161600000Y-118840000D01*
X161770000Y-118670000D02*
X161770000Y-116410000D01*
X161600000Y-118840000D02*
X161770000Y-118670000D01*
X164090000Y-116410000D02*
X168530000Y-120850000D01*
X161770000Y-116410000D02*
X164090000Y-116410000D01*
%TO.N,Net-(D5-Pad1)*%
X112970000Y-129600000D02*
X112970000Y-130500000D01*
X112970000Y-130500000D02*
X114860000Y-132390000D01*
X118860000Y-132390000D02*
X121090000Y-130160000D01*
X114860000Y-132390000D02*
X118860000Y-132390000D01*
%TO.N,Net-(D6-Pad1)*%
X130620000Y-129570000D02*
X127870000Y-129570000D01*
X127870000Y-129570000D02*
X127690000Y-129390000D01*
X127690000Y-118870000D02*
X126170000Y-117350000D01*
X127690000Y-129390000D02*
X127690000Y-118870000D01*
%TO.N,Net-(D7-Pad1)*%
X156220000Y-130700000D02*
X154200000Y-132720000D01*
X154200000Y-132720000D02*
X149270000Y-132720000D01*
X148470000Y-131920000D02*
X148470000Y-129540000D01*
X149270000Y-132720000D02*
X148470000Y-131920000D01*
%TO.N,Net-(D8-Pad1)*%
X164390000Y-127610000D02*
X166280000Y-129500000D01*
X158800000Y-127610000D02*
X164390000Y-127610000D01*
%TO.N,01*%
X137190000Y-107080000D02*
X139060000Y-105210000D01*
X137190000Y-115200000D02*
X137190000Y-107080000D01*
X137190000Y-117740000D02*
X137190000Y-115200000D01*
%TO.N,04*%
X144810000Y-117740000D02*
X144810000Y-115200000D01*
X142060000Y-112450000D02*
X142060000Y-105210000D01*
X144810000Y-115200000D02*
X142060000Y-112450000D01*
%TO.N,02*%
X144810000Y-130440000D02*
X144810000Y-127900000D01*
X144810000Y-127900000D02*
X145983002Y-127900000D01*
X145983002Y-127900000D02*
X149033002Y-124850000D01*
X149033002Y-124850000D02*
X155270000Y-124850000D01*
X140060000Y-116535002D02*
X140060000Y-105210000D01*
X136064999Y-118280001D02*
X136649999Y-118865001D01*
X136649999Y-118865001D02*
X137730001Y-118865001D01*
X137730001Y-118865001D02*
X140060000Y-116535002D01*
X136064999Y-106094999D02*
X136064999Y-118280001D01*
X138699999Y-103459999D02*
X136064999Y-106094999D01*
X164120000Y-109080000D02*
X158499999Y-103459999D01*
X158499999Y-103459999D02*
X138699999Y-103459999D01*
X155270000Y-124850000D02*
X155270000Y-116312998D01*
X163070000Y-114110000D02*
X164120000Y-113060000D01*
X155270000Y-116312998D02*
X157482998Y-114100000D01*
X157482998Y-114100000D02*
X160457002Y-114100000D01*
X164120000Y-113060000D02*
X164120000Y-109080000D01*
X160467002Y-114110000D02*
X163070000Y-114110000D01*
X160457002Y-114100000D02*
X160467002Y-114110000D01*
%TO.N,03*%
X137190000Y-127900000D02*
X137190000Y-130440000D01*
X141060000Y-120615002D02*
X141060000Y-105210000D01*
X137440003Y-124234999D02*
X141060000Y-120615002D01*
X136649999Y-124234999D02*
X137440003Y-124234999D01*
X136064999Y-124819999D02*
X136649999Y-124234999D01*
X136064999Y-126774999D02*
X136064999Y-124819999D01*
X137190000Y-127900000D02*
X136064999Y-126774999D01*
%TD*%
D21*
%TO.N,VCC*%
X170330599Y-100749459D02*
X170359401Y-132430782D01*
X155547014Y-132447788D01*
X155981157Y-132013645D01*
X156088514Y-132035000D01*
X156351486Y-132035000D01*
X156609405Y-131983696D01*
X156852359Y-131883061D01*
X157071013Y-131736962D01*
X157186706Y-131621269D01*
X160558336Y-131621269D01*
X160617797Y-131855037D01*
X160856242Y-131965934D01*
X161111740Y-132028183D01*
X161374473Y-132039390D01*
X161634344Y-131999125D01*
X161881366Y-131908935D01*
X161982203Y-131855037D01*
X162041664Y-131621269D01*
X161300000Y-130879605D01*
X160558336Y-131621269D01*
X157186706Y-131621269D01*
X157256962Y-131551013D01*
X157403061Y-131332359D01*
X157503696Y-131089405D01*
X157555000Y-130831486D01*
X157555000Y-130774473D01*
X159960610Y-130774473D01*
X160000875Y-131034344D01*
X160091065Y-131281366D01*
X160144963Y-131382203D01*
X160378731Y-131441664D01*
X161120395Y-130700000D01*
X161479605Y-130700000D01*
X162221269Y-131441664D01*
X162455037Y-131382203D01*
X162565934Y-131143758D01*
X162628183Y-130888260D01*
X162639390Y-130625527D01*
X162599125Y-130365656D01*
X162508935Y-130118634D01*
X162455037Y-130017797D01*
X162221269Y-129958336D01*
X161479605Y-130700000D01*
X161120395Y-130700000D01*
X160378731Y-129958336D01*
X160144963Y-130017797D01*
X160034066Y-130256242D01*
X159971817Y-130511740D01*
X159960610Y-130774473D01*
X157555000Y-130774473D01*
X157555000Y-130568514D01*
X157503696Y-130310595D01*
X157403061Y-130067641D01*
X157256962Y-129848987D01*
X157186706Y-129778731D01*
X160558336Y-129778731D01*
X161300000Y-130520395D01*
X162041664Y-129778731D01*
X161982203Y-129544963D01*
X161743758Y-129434066D01*
X161488260Y-129371817D01*
X161225527Y-129360610D01*
X160965656Y-129400875D01*
X160718634Y-129491065D01*
X160617797Y-129544963D01*
X160558336Y-129778731D01*
X157186706Y-129778731D01*
X157071013Y-129663038D01*
X156852359Y-129516939D01*
X156609405Y-129416304D01*
X156351486Y-129365000D01*
X156088514Y-129365000D01*
X155830595Y-129416304D01*
X155587641Y-129516939D01*
X155368987Y-129663038D01*
X155183038Y-129848987D01*
X155036939Y-130067641D01*
X154936304Y-130310595D01*
X154885000Y-130568514D01*
X154885000Y-130831486D01*
X154906355Y-130938843D01*
X153885199Y-131960000D01*
X149584802Y-131960000D01*
X149230000Y-131605199D01*
X149230000Y-131078072D01*
X149370000Y-131078072D01*
X149494482Y-131065812D01*
X149614180Y-131029502D01*
X149724494Y-130970537D01*
X149821185Y-130891185D01*
X149900537Y-130794494D01*
X149959502Y-130684180D01*
X149965056Y-130665873D01*
X150031495Y-130732312D01*
X150282905Y-130900299D01*
X150562257Y-131016011D01*
X150858816Y-131075000D01*
X151161184Y-131075000D01*
X151457743Y-131016011D01*
X151737095Y-130900299D01*
X151988505Y-130732312D01*
X152202312Y-130518505D01*
X152370299Y-130267095D01*
X152486011Y-129987743D01*
X152545000Y-129691184D01*
X152545000Y-129388816D01*
X152486011Y-129092257D01*
X152370299Y-128812905D01*
X152202312Y-128561495D01*
X151988505Y-128347688D01*
X151737095Y-128179701D01*
X151457743Y-128063989D01*
X151161184Y-128005000D01*
X150858816Y-128005000D01*
X150562257Y-128063989D01*
X150282905Y-128179701D01*
X150031495Y-128347688D01*
X149965056Y-128414127D01*
X149959502Y-128395820D01*
X149900537Y-128285506D01*
X149821185Y-128188815D01*
X149724494Y-128109463D01*
X149614180Y-128050498D01*
X149494482Y-128014188D01*
X149370000Y-128001928D01*
X148697872Y-128001928D01*
X149209800Y-127490000D01*
X155912678Y-127490000D01*
X155950000Y-127493676D01*
X155987322Y-127490000D01*
X155987333Y-127490000D01*
X156098986Y-127479003D01*
X156100598Y-127478514D01*
X157465000Y-127478514D01*
X157465000Y-127741486D01*
X157516304Y-127999405D01*
X157616939Y-128242359D01*
X157763038Y-128461013D01*
X157948987Y-128646962D01*
X158167641Y-128793061D01*
X158410595Y-128893696D01*
X158668514Y-128945000D01*
X158931486Y-128945000D01*
X159189405Y-128893696D01*
X159432359Y-128793061D01*
X159651013Y-128646962D01*
X159836962Y-128461013D01*
X159897775Y-128370000D01*
X164075199Y-128370000D01*
X164741928Y-129036729D01*
X164741928Y-130400000D01*
X164754188Y-130524482D01*
X164790498Y-130644180D01*
X164849463Y-130754494D01*
X164928815Y-130851185D01*
X165025506Y-130930537D01*
X165135820Y-130989502D01*
X165255518Y-131025812D01*
X165380000Y-131038072D01*
X167180000Y-131038072D01*
X167304482Y-131025812D01*
X167424180Y-130989502D01*
X167534494Y-130930537D01*
X167631185Y-130851185D01*
X167710537Y-130754494D01*
X167769502Y-130644180D01*
X167775056Y-130625873D01*
X167841495Y-130692312D01*
X168092905Y-130860299D01*
X168372257Y-130976011D01*
X168668816Y-131035000D01*
X168971184Y-131035000D01*
X169267743Y-130976011D01*
X169547095Y-130860299D01*
X169798505Y-130692312D01*
X170012312Y-130478505D01*
X170180299Y-130227095D01*
X170296011Y-129947743D01*
X170355000Y-129651184D01*
X170355000Y-129348816D01*
X170296011Y-129052257D01*
X170180299Y-128772905D01*
X170012312Y-128521495D01*
X169798505Y-128307688D01*
X169547095Y-128139701D01*
X169267743Y-128023989D01*
X168971184Y-127965000D01*
X168668816Y-127965000D01*
X168372257Y-128023989D01*
X168092905Y-128139701D01*
X167841495Y-128307688D01*
X167775056Y-128374127D01*
X167769502Y-128355820D01*
X167710537Y-128245506D01*
X167631185Y-128148815D01*
X167534494Y-128069463D01*
X167424180Y-128010498D01*
X167304482Y-127974188D01*
X167180000Y-127961928D01*
X165816729Y-127961928D01*
X164953804Y-127099003D01*
X164930001Y-127069999D01*
X164814276Y-126975026D01*
X164682247Y-126904454D01*
X164538986Y-126860997D01*
X164427333Y-126850000D01*
X164427322Y-126850000D01*
X164390000Y-126846324D01*
X164352678Y-126850000D01*
X159897775Y-126850000D01*
X159836962Y-126758987D01*
X159651013Y-126573038D01*
X159432359Y-126426939D01*
X159189405Y-126326304D01*
X158931486Y-126275000D01*
X158668514Y-126275000D01*
X158410595Y-126326304D01*
X158167641Y-126426939D01*
X157948987Y-126573038D01*
X157763038Y-126758987D01*
X157616939Y-126977641D01*
X157516304Y-127220595D01*
X157465000Y-127478514D01*
X156100598Y-127478514D01*
X156242247Y-127435546D01*
X156374276Y-127364974D01*
X156490001Y-127270001D01*
X156513803Y-127240998D01*
X157121004Y-126633798D01*
X157150001Y-126610001D01*
X157180336Y-126573038D01*
X157244974Y-126494277D01*
X157315546Y-126362247D01*
X157328812Y-126318514D01*
X157359003Y-126218986D01*
X157370000Y-126107333D01*
X157370000Y-126107323D01*
X157373676Y-126070000D01*
X157370000Y-126032677D01*
X157370000Y-123451269D01*
X158058336Y-123451269D01*
X158117797Y-123685037D01*
X158356242Y-123795934D01*
X158611740Y-123858183D01*
X158874473Y-123869390D01*
X159134344Y-123829125D01*
X159381366Y-123738935D01*
X159482203Y-123685037D01*
X159541664Y-123451269D01*
X158800000Y-122709605D01*
X158058336Y-123451269D01*
X157370000Y-123451269D01*
X157370000Y-122604473D01*
X157460610Y-122604473D01*
X157500875Y-122864344D01*
X157591065Y-123111366D01*
X157644963Y-123212203D01*
X157878731Y-123271664D01*
X158620395Y-122530000D01*
X158979605Y-122530000D01*
X159721269Y-123271664D01*
X159955037Y-123212203D01*
X160065934Y-122973758D01*
X160128183Y-122718260D01*
X160139390Y-122455527D01*
X160099125Y-122195656D01*
X160008935Y-121948634D01*
X159955037Y-121847797D01*
X159721269Y-121788336D01*
X158979605Y-122530000D01*
X158620395Y-122530000D01*
X157878731Y-121788336D01*
X157644963Y-121847797D01*
X157534066Y-122086242D01*
X157471817Y-122341740D01*
X157460610Y-122604473D01*
X157370000Y-122604473D01*
X157370000Y-121608731D01*
X158058336Y-121608731D01*
X158800000Y-122350395D01*
X159400395Y-121750000D01*
X164451928Y-121750000D01*
X164464188Y-121874482D01*
X164500498Y-121994180D01*
X164559463Y-122104494D01*
X164638815Y-122201185D01*
X164735506Y-122280537D01*
X164845820Y-122339502D01*
X164965518Y-122375812D01*
X165090000Y-122388072D01*
X165704250Y-122385000D01*
X165863000Y-122226250D01*
X165863000Y-120977000D01*
X164613750Y-120977000D01*
X164455000Y-121135750D01*
X164451928Y-121750000D01*
X159400395Y-121750000D01*
X159541664Y-121608731D01*
X159482203Y-121374963D01*
X159243758Y-121264066D01*
X158988260Y-121201817D01*
X158725527Y-121190610D01*
X158465656Y-121230875D01*
X158218634Y-121321065D01*
X158117797Y-121374963D01*
X158058336Y-121608731D01*
X157370000Y-121608731D01*
X157370000Y-121334801D01*
X159104802Y-119600000D01*
X161562678Y-119600000D01*
X161600000Y-119603676D01*
X161637322Y-119600000D01*
X161637333Y-119600000D01*
X161748986Y-119589003D01*
X161892247Y-119545546D01*
X162024276Y-119474974D01*
X162140001Y-119380001D01*
X162163804Y-119350997D01*
X162280998Y-119233803D01*
X162310001Y-119210001D01*
X162404974Y-119094276D01*
X162475546Y-118962247D01*
X162519003Y-118818986D01*
X162530000Y-118707333D01*
X162530000Y-118707324D01*
X162533676Y-118670001D01*
X162530000Y-118632678D01*
X162530000Y-117507775D01*
X162621013Y-117446962D01*
X162806962Y-117261013D01*
X162867775Y-117170000D01*
X163775199Y-117170000D01*
X165920198Y-119315000D01*
X165862998Y-119315000D01*
X165862998Y-119473748D01*
X165704250Y-119315000D01*
X165090000Y-119311928D01*
X164965518Y-119324188D01*
X164845820Y-119360498D01*
X164735506Y-119419463D01*
X164638815Y-119498815D01*
X164559463Y-119595506D01*
X164500498Y-119705820D01*
X164464188Y-119825518D01*
X164451928Y-119950000D01*
X164455000Y-120564250D01*
X164613750Y-120723000D01*
X165863000Y-120723000D01*
X165863000Y-120703000D01*
X166117000Y-120703000D01*
X166117000Y-120723000D01*
X166137000Y-120723000D01*
X166137000Y-120977000D01*
X166117000Y-120977000D01*
X166117000Y-122226250D01*
X166275750Y-122385000D01*
X166890000Y-122388072D01*
X167014482Y-122375812D01*
X167134180Y-122339502D01*
X167244494Y-122280537D01*
X167341185Y-122201185D01*
X167420537Y-122104494D01*
X167479502Y-121994180D01*
X167485056Y-121975873D01*
X167551495Y-122042312D01*
X167802905Y-122210299D01*
X168082257Y-122326011D01*
X168378816Y-122385000D01*
X168681184Y-122385000D01*
X168977743Y-122326011D01*
X169257095Y-122210299D01*
X169508505Y-122042312D01*
X169722312Y-121828505D01*
X169890299Y-121577095D01*
X170006011Y-121297743D01*
X170065000Y-121001184D01*
X170065000Y-120698816D01*
X170006011Y-120402257D01*
X169890299Y-120122905D01*
X169722312Y-119871495D01*
X169508505Y-119657688D01*
X169257095Y-119489701D01*
X168977743Y-119373989D01*
X168681184Y-119315000D01*
X168378816Y-119315000D01*
X168121070Y-119366269D01*
X164653804Y-115899003D01*
X164630001Y-115869999D01*
X164514276Y-115775026D01*
X164382247Y-115704454D01*
X164238986Y-115660997D01*
X164127333Y-115650000D01*
X164127322Y-115650000D01*
X164090000Y-115646324D01*
X164052678Y-115650000D01*
X162867775Y-115650000D01*
X162806962Y-115558987D01*
X162621013Y-115373038D01*
X162402359Y-115226939D01*
X162159405Y-115126304D01*
X161901486Y-115075000D01*
X161638514Y-115075000D01*
X161380595Y-115126304D01*
X161137641Y-115226939D01*
X160918987Y-115373038D01*
X160733038Y-115558987D01*
X160586939Y-115777641D01*
X160486304Y-116020595D01*
X160435000Y-116278514D01*
X160435000Y-116541486D01*
X160486304Y-116799405D01*
X160586939Y-117042359D01*
X160733038Y-117261013D01*
X160918987Y-117446962D01*
X161010001Y-117507775D01*
X161010000Y-118080000D01*
X158827333Y-118080000D01*
X158790000Y-118076323D01*
X158752667Y-118080000D01*
X158641014Y-118090997D01*
X158497753Y-118134454D01*
X158365724Y-118205026D01*
X158249999Y-118299999D01*
X158226201Y-118328997D01*
X156098998Y-120456201D01*
X156070000Y-120479999D01*
X156046202Y-120508997D01*
X156046201Y-120508998D01*
X156030000Y-120528739D01*
X156030000Y-117574592D01*
X156057641Y-117593061D01*
X156300595Y-117693696D01*
X156558514Y-117745000D01*
X156821486Y-117745000D01*
X157079405Y-117693696D01*
X157322359Y-117593061D01*
X157541013Y-117446962D01*
X157726962Y-117261013D01*
X157873061Y-117042359D01*
X157973696Y-116799405D01*
X158025000Y-116541486D01*
X158025000Y-116278514D01*
X157973696Y-116020595D01*
X157873061Y-115777641D01*
X157726962Y-115558987D01*
X157541013Y-115373038D01*
X157387401Y-115270399D01*
X157797800Y-114860000D01*
X160328139Y-114860000D01*
X160429669Y-114870000D01*
X160429679Y-114870000D01*
X160467001Y-114873676D01*
X160504324Y-114870000D01*
X163032678Y-114870000D01*
X163070000Y-114873676D01*
X163107322Y-114870000D01*
X163107333Y-114870000D01*
X163218986Y-114859003D01*
X163362247Y-114815546D01*
X163494276Y-114744974D01*
X163610001Y-114650001D01*
X163633804Y-114620998D01*
X164631004Y-113623798D01*
X164660001Y-113600001D01*
X164754974Y-113484276D01*
X164825546Y-113352247D01*
X164869003Y-113208986D01*
X164880000Y-113097333D01*
X164880000Y-113097324D01*
X164883676Y-113060001D01*
X164880000Y-113022678D01*
X164880000Y-109117325D01*
X164883676Y-109080000D01*
X164880000Y-109042675D01*
X164880000Y-109042667D01*
X164869003Y-108931014D01*
X164825546Y-108787753D01*
X164754974Y-108655724D01*
X164660001Y-108539999D01*
X164631003Y-108516201D01*
X159063803Y-102949002D01*
X159040000Y-102919998D01*
X158924275Y-102825025D01*
X158792246Y-102754453D01*
X158648985Y-102710996D01*
X158537332Y-102699999D01*
X158537321Y-102699999D01*
X158499999Y-102696323D01*
X158462677Y-102699999D01*
X138737324Y-102699999D01*
X138699999Y-102696323D01*
X138662674Y-102699999D01*
X138662666Y-102699999D01*
X138551013Y-102710996D01*
X138407752Y-102754453D01*
X138275723Y-102825025D01*
X138159998Y-102919998D01*
X138136200Y-102948996D01*
X135554002Y-105531195D01*
X135524998Y-105554998D01*
X135469870Y-105622173D01*
X135430025Y-105670723D01*
X135403150Y-105721003D01*
X135359453Y-105802753D01*
X135315996Y-105946014D01*
X135304999Y-106057667D01*
X135304999Y-106057677D01*
X135301323Y-106094999D01*
X135304999Y-106132321D01*
X135305000Y-117320198D01*
X126323804Y-108339003D01*
X126300001Y-108309999D01*
X126184276Y-108215026D01*
X126052247Y-108144454D01*
X125908986Y-108100997D01*
X125797333Y-108090000D01*
X125797322Y-108090000D01*
X125760000Y-108086324D01*
X125722678Y-108090000D01*
X121930320Y-108090000D01*
X121892997Y-108086324D01*
X121855674Y-108090000D01*
X121855665Y-108090000D01*
X121744012Y-108100997D01*
X121600751Y-108144454D01*
X121468721Y-108215026D01*
X121385081Y-108283668D01*
X121352997Y-108309999D01*
X121329199Y-108338997D01*
X115759003Y-113909194D01*
X115729999Y-113932997D01*
X115674871Y-114000172D01*
X115635026Y-114048722D01*
X115588923Y-114134974D01*
X115564454Y-114180752D01*
X115520997Y-114324013D01*
X115510000Y-114435666D01*
X115510000Y-114435676D01*
X115506324Y-114472998D01*
X115510000Y-114510321D01*
X115510001Y-119265634D01*
X115282905Y-119359701D01*
X115031495Y-119527688D01*
X114965056Y-119594127D01*
X114959502Y-119575820D01*
X114900537Y-119465506D01*
X114821185Y-119368815D01*
X114724494Y-119289463D01*
X114614180Y-119230498D01*
X114494482Y-119194188D01*
X114370000Y-119181928D01*
X113755750Y-119185000D01*
X113597000Y-119343750D01*
X113597000Y-120593000D01*
X113617000Y-120593000D01*
X113617000Y-120847000D01*
X113597000Y-120847000D01*
X113597000Y-122096250D01*
X113755750Y-122255000D01*
X114370000Y-122258072D01*
X114494482Y-122245812D01*
X114614180Y-122209502D01*
X114724494Y-122150537D01*
X114821185Y-122071185D01*
X114900537Y-121974494D01*
X114959502Y-121864180D01*
X114965056Y-121845873D01*
X115031495Y-121912312D01*
X115282905Y-122080299D01*
X115562257Y-122196011D01*
X115858816Y-122255000D01*
X116161184Y-122255000D01*
X116457743Y-122196011D01*
X116737095Y-122080299D01*
X116988505Y-121912312D01*
X117202312Y-121698505D01*
X117348313Y-121480000D01*
X121995000Y-121480000D01*
X121995000Y-121501486D01*
X122046304Y-121759405D01*
X122146939Y-122002359D01*
X122293038Y-122221013D01*
X122478987Y-122406962D01*
X122697641Y-122553061D01*
X122940595Y-122653696D01*
X123198514Y-122705000D01*
X123461486Y-122705000D01*
X123719405Y-122653696D01*
X123962359Y-122553061D01*
X124181013Y-122406962D01*
X124366962Y-122221013D01*
X124513061Y-122002359D01*
X124613696Y-121759405D01*
X124665000Y-121501486D01*
X124665000Y-121238514D01*
X124613696Y-120980595D01*
X124513061Y-120737641D01*
X124366962Y-120518987D01*
X124181013Y-120333038D01*
X123962359Y-120186939D01*
X123719405Y-120086304D01*
X123461486Y-120035000D01*
X123198514Y-120035000D01*
X123061626Y-120062229D01*
X122972247Y-120014454D01*
X122828986Y-119970997D01*
X122717333Y-119960000D01*
X122717322Y-119960000D01*
X122680000Y-119956324D01*
X122642678Y-119960000D01*
X117348313Y-119960000D01*
X117202312Y-119741495D01*
X117030000Y-119569183D01*
X117030000Y-118271269D01*
X120348336Y-118271269D01*
X120407797Y-118505037D01*
X120646242Y-118615934D01*
X120901740Y-118678183D01*
X121164473Y-118689390D01*
X121424344Y-118649125D01*
X121671366Y-118558935D01*
X121772203Y-118505037D01*
X121831664Y-118271269D01*
X121090000Y-117529605D01*
X120348336Y-118271269D01*
X117030000Y-118271269D01*
X117030000Y-117424473D01*
X119750610Y-117424473D01*
X119790875Y-117684344D01*
X119881065Y-117931366D01*
X119934963Y-118032203D01*
X120168731Y-118091664D01*
X120910395Y-117350000D01*
X121269605Y-117350000D01*
X122011269Y-118091664D01*
X122245037Y-118032203D01*
X122355934Y-117793758D01*
X122418183Y-117538260D01*
X122429390Y-117275527D01*
X122389125Y-117015656D01*
X122298935Y-116768634D01*
X122245037Y-116667797D01*
X122011269Y-116608336D01*
X121269605Y-117350000D01*
X120910395Y-117350000D01*
X120168731Y-116608336D01*
X119934963Y-116667797D01*
X119824066Y-116906242D01*
X119761817Y-117161740D01*
X119750610Y-117424473D01*
X117030000Y-117424473D01*
X117030000Y-116428731D01*
X120348336Y-116428731D01*
X121090000Y-117170395D01*
X121831664Y-116428731D01*
X121772203Y-116194963D01*
X121533758Y-116084066D01*
X121278260Y-116021817D01*
X121015527Y-116010610D01*
X120755656Y-116050875D01*
X120508634Y-116141065D01*
X120407797Y-116194963D01*
X120348336Y-116428731D01*
X117030000Y-116428731D01*
X117030000Y-114787799D01*
X119820398Y-111997401D01*
X119923038Y-112151013D01*
X120108987Y-112336962D01*
X120327641Y-112483061D01*
X120570595Y-112583696D01*
X120828514Y-112635000D01*
X121091486Y-112635000D01*
X121349405Y-112583696D01*
X121592359Y-112483061D01*
X121811013Y-112336962D01*
X121996962Y-112151013D01*
X122143061Y-111932359D01*
X122243696Y-111689405D01*
X122295000Y-111431486D01*
X122295000Y-111168514D01*
X122243696Y-110910595D01*
X122143061Y-110667641D01*
X121996962Y-110448987D01*
X121811013Y-110263038D01*
X121657401Y-110160399D01*
X122207800Y-109610000D01*
X125445199Y-109610000D01*
X125818170Y-109982971D01*
X125650595Y-110016304D01*
X125407641Y-110116939D01*
X125188987Y-110263038D01*
X125003038Y-110448987D01*
X124856939Y-110667641D01*
X124756304Y-110910595D01*
X124705000Y-111168514D01*
X124705000Y-111431486D01*
X124756304Y-111689405D01*
X124856939Y-111932359D01*
X125003038Y-112151013D01*
X125188987Y-112336962D01*
X125280000Y-112397775D01*
X125280001Y-113572668D01*
X125276324Y-113610000D01*
X125280001Y-113647333D01*
X125290998Y-113758986D01*
X125304180Y-113802442D01*
X125334454Y-113902246D01*
X125405026Y-114034276D01*
X125458965Y-114100000D01*
X125500000Y-114150001D01*
X125528998Y-114173799D01*
X130627974Y-119272776D01*
X130517000Y-119383750D01*
X130517000Y-120633000D01*
X130537000Y-120633000D01*
X130537000Y-120887000D01*
X130517000Y-120887000D01*
X130517000Y-122136250D01*
X130675750Y-122295000D01*
X131290000Y-122298072D01*
X131414482Y-122285812D01*
X131534180Y-122249502D01*
X131644494Y-122190537D01*
X131741185Y-122111185D01*
X131820537Y-122014494D01*
X131879502Y-121904180D01*
X131885056Y-121885873D01*
X131951495Y-121952312D01*
X132202905Y-122120299D01*
X132482257Y-122236011D01*
X132778816Y-122295000D01*
X133081184Y-122295000D01*
X133377743Y-122236011D01*
X133528686Y-122173488D01*
X133625002Y-122269804D01*
X133625001Y-128101138D01*
X133607743Y-128093989D01*
X133311184Y-128035000D01*
X133008816Y-128035000D01*
X132712257Y-128093989D01*
X132432905Y-128209701D01*
X132181495Y-128377688D01*
X132115056Y-128444127D01*
X132109502Y-128425820D01*
X132050537Y-128315506D01*
X131971185Y-128218815D01*
X131874494Y-128139463D01*
X131764180Y-128080498D01*
X131644482Y-128044188D01*
X131520000Y-128031928D01*
X129720000Y-128031928D01*
X129595518Y-128044188D01*
X129475820Y-128080498D01*
X129365506Y-128139463D01*
X129268815Y-128218815D01*
X129189463Y-128315506D01*
X129130498Y-128425820D01*
X129094188Y-128545518D01*
X129081928Y-128670000D01*
X129081928Y-128810000D01*
X128450000Y-128810000D01*
X128450000Y-121660000D01*
X128851928Y-121660000D01*
X128864188Y-121784482D01*
X128900498Y-121904180D01*
X128959463Y-122014494D01*
X129038815Y-122111185D01*
X129135506Y-122190537D01*
X129245820Y-122249502D01*
X129365518Y-122285812D01*
X129490000Y-122298072D01*
X130104250Y-122295000D01*
X130263000Y-122136250D01*
X130263000Y-120887000D01*
X129013750Y-120887000D01*
X128855000Y-121045750D01*
X128851928Y-121660000D01*
X128450000Y-121660000D01*
X128450000Y-119860000D01*
X128851928Y-119860000D01*
X128855000Y-120474250D01*
X129013750Y-120633000D01*
X130263000Y-120633000D01*
X130263000Y-119383750D01*
X130104250Y-119225000D01*
X129490000Y-119221928D01*
X129365518Y-119234188D01*
X129245820Y-119270498D01*
X129135506Y-119329463D01*
X129038815Y-119408815D01*
X128959463Y-119505506D01*
X128900498Y-119615820D01*
X128864188Y-119735518D01*
X128851928Y-119860000D01*
X128450000Y-119860000D01*
X128450000Y-118907333D01*
X128453677Y-118870000D01*
X128439003Y-118721014D01*
X128395546Y-118577753D01*
X128324974Y-118445724D01*
X128253799Y-118358997D01*
X128230001Y-118329999D01*
X128201003Y-118306201D01*
X127483645Y-117588843D01*
X127505000Y-117481486D01*
X127505000Y-117218514D01*
X127453696Y-116960595D01*
X127353061Y-116717641D01*
X127206962Y-116498987D01*
X127021013Y-116313038D01*
X126802359Y-116166939D01*
X126559405Y-116066304D01*
X126301486Y-116015000D01*
X126038514Y-116015000D01*
X125780595Y-116066304D01*
X125537641Y-116166939D01*
X125318987Y-116313038D01*
X125133038Y-116498987D01*
X124986939Y-116717641D01*
X124886304Y-116960595D01*
X124835000Y-117218514D01*
X124835000Y-117481486D01*
X124886304Y-117739405D01*
X124986939Y-117982359D01*
X125133038Y-118201013D01*
X125318987Y-118386962D01*
X125537641Y-118533061D01*
X125780595Y-118633696D01*
X126038514Y-118685000D01*
X126301486Y-118685000D01*
X126408843Y-118663645D01*
X126930001Y-119184803D01*
X126930000Y-129220392D01*
X126911663Y-129238729D01*
X126852203Y-129004963D01*
X126613758Y-128894066D01*
X126358260Y-128831817D01*
X126095527Y-128820610D01*
X125835656Y-128860875D01*
X125588634Y-128951065D01*
X125487797Y-129004963D01*
X125428336Y-129238731D01*
X126170000Y-129980395D01*
X126184143Y-129966253D01*
X126363748Y-130145858D01*
X126349605Y-130160000D01*
X127091269Y-130901664D01*
X127325037Y-130842203D01*
X127435934Y-130603758D01*
X127498183Y-130348260D01*
X127502989Y-130235583D01*
X127577753Y-130275546D01*
X127721014Y-130319003D01*
X127832667Y-130330000D01*
X127832676Y-130330000D01*
X127869999Y-130333676D01*
X127907322Y-130330000D01*
X129081928Y-130330000D01*
X129081928Y-130470000D01*
X129094188Y-130594482D01*
X129130498Y-130714180D01*
X129189463Y-130824494D01*
X129268815Y-130921185D01*
X129365506Y-131000537D01*
X129475820Y-131059502D01*
X129595518Y-131095812D01*
X129720000Y-131108072D01*
X131520000Y-131108072D01*
X131644482Y-131095812D01*
X131764180Y-131059502D01*
X131874494Y-131000537D01*
X131971185Y-130921185D01*
X132050537Y-130824494D01*
X132109502Y-130714180D01*
X132115056Y-130695873D01*
X132181495Y-130762312D01*
X132432905Y-130930299D01*
X132712257Y-131046011D01*
X133008816Y-131105000D01*
X133311184Y-131105000D01*
X133607743Y-131046011D01*
X133887095Y-130930299D01*
X134138505Y-130762312D01*
X134352312Y-130548505D01*
X134434980Y-130424783D01*
X136086200Y-132076004D01*
X136109998Y-132105002D01*
X136138996Y-132128800D01*
X136225722Y-132199975D01*
X136302500Y-132241014D01*
X136357752Y-132270547D01*
X136501013Y-132314004D01*
X136612666Y-132325001D01*
X136612676Y-132325001D01*
X136649999Y-132328677D01*
X136687322Y-132325001D01*
X138567677Y-132325001D01*
X138604999Y-132328677D01*
X138642321Y-132325001D01*
X138642332Y-132325001D01*
X138753985Y-132314004D01*
X138897246Y-132270547D01*
X139029275Y-132199975D01*
X139145000Y-132105002D01*
X139168803Y-132075998D01*
X142924999Y-128319802D01*
X142925000Y-130942669D01*
X142921323Y-130980001D01*
X142925000Y-131017334D01*
X142935997Y-131128987D01*
X142948741Y-131170998D01*
X142979453Y-131272247D01*
X143050025Y-131404277D01*
X143118886Y-131488183D01*
X143144999Y-131520002D01*
X143173997Y-131543800D01*
X143706199Y-132076003D01*
X143729998Y-132105002D01*
X143758996Y-132128800D01*
X143845722Y-132199975D01*
X143922500Y-132241014D01*
X143977752Y-132270547D01*
X144121013Y-132314004D01*
X144232666Y-132325001D01*
X144232676Y-132325001D01*
X144269999Y-132328677D01*
X144307322Y-132325001D01*
X145312679Y-132325001D01*
X145350001Y-132328677D01*
X145387323Y-132325001D01*
X145387334Y-132325001D01*
X145498987Y-132314004D01*
X145642248Y-132270547D01*
X145774277Y-132199975D01*
X145890002Y-132105002D01*
X145913805Y-132075998D01*
X147109711Y-130880092D01*
X147118815Y-130891185D01*
X147215506Y-130970537D01*
X147325820Y-131029502D01*
X147445518Y-131065812D01*
X147570000Y-131078072D01*
X147710000Y-131078072D01*
X147710000Y-131882677D01*
X147706324Y-131920000D01*
X147710000Y-131957322D01*
X147710000Y-131957332D01*
X147720997Y-132068985D01*
X147754672Y-132179999D01*
X147764454Y-132212246D01*
X147835026Y-132344276D01*
X147872551Y-132390000D01*
X147927156Y-132456536D01*
X119836014Y-132488788D01*
X120851157Y-131473645D01*
X120958514Y-131495000D01*
X121221486Y-131495000D01*
X121479405Y-131443696D01*
X121722359Y-131343061D01*
X121941013Y-131196962D01*
X122056706Y-131081269D01*
X125428336Y-131081269D01*
X125487797Y-131315037D01*
X125726242Y-131425934D01*
X125981740Y-131488183D01*
X126244473Y-131499390D01*
X126504344Y-131459125D01*
X126751366Y-131368935D01*
X126852203Y-131315037D01*
X126911664Y-131081269D01*
X126170000Y-130339605D01*
X125428336Y-131081269D01*
X122056706Y-131081269D01*
X122126962Y-131011013D01*
X122273061Y-130792359D01*
X122373696Y-130549405D01*
X122425000Y-130291486D01*
X122425000Y-130234473D01*
X124830610Y-130234473D01*
X124870875Y-130494344D01*
X124961065Y-130741366D01*
X125014963Y-130842203D01*
X125248731Y-130901664D01*
X125990395Y-130160000D01*
X125248731Y-129418336D01*
X125014963Y-129477797D01*
X124904066Y-129716242D01*
X124841817Y-129971740D01*
X124830610Y-130234473D01*
X122425000Y-130234473D01*
X122425000Y-130028514D01*
X122373696Y-129770595D01*
X122273061Y-129527641D01*
X122126962Y-129308987D01*
X121941013Y-129123038D01*
X121722359Y-128976939D01*
X121479405Y-128876304D01*
X121221486Y-128825000D01*
X120958514Y-128825000D01*
X120700595Y-128876304D01*
X120457641Y-128976939D01*
X120238987Y-129123038D01*
X120053038Y-129308987D01*
X119906939Y-129527641D01*
X119806304Y-129770595D01*
X119755000Y-130028514D01*
X119755000Y-130291486D01*
X119776355Y-130398843D01*
X118545199Y-131630000D01*
X115174802Y-131630000D01*
X114399977Y-130855176D01*
X114400537Y-130854494D01*
X114459502Y-130744180D01*
X114465056Y-130725873D01*
X114531495Y-130792312D01*
X114782905Y-130960299D01*
X115062257Y-131076011D01*
X115358816Y-131135000D01*
X115661184Y-131135000D01*
X115957743Y-131076011D01*
X116237095Y-130960299D01*
X116488505Y-130792312D01*
X116702312Y-130578505D01*
X116870299Y-130327095D01*
X116986011Y-130047743D01*
X117045000Y-129751184D01*
X117045000Y-129448816D01*
X116986011Y-129152257D01*
X116870299Y-128872905D01*
X116702312Y-128621495D01*
X116488505Y-128407688D01*
X116237095Y-128239701D01*
X115957743Y-128123989D01*
X115661184Y-128065000D01*
X115358816Y-128065000D01*
X115062257Y-128123989D01*
X114782905Y-128239701D01*
X114531495Y-128407688D01*
X114465056Y-128474127D01*
X114459502Y-128455820D01*
X114400537Y-128345506D01*
X114321185Y-128248815D01*
X114224494Y-128169463D01*
X114114180Y-128110498D01*
X113994482Y-128074188D01*
X113870000Y-128061928D01*
X112070000Y-128061928D01*
X111945518Y-128074188D01*
X111825820Y-128110498D01*
X111715506Y-128169463D01*
X111618815Y-128248815D01*
X111539463Y-128345506D01*
X111480498Y-128455820D01*
X111444188Y-128575518D01*
X111431928Y-128700000D01*
X111431928Y-130500000D01*
X111444188Y-130624482D01*
X111480498Y-130744180D01*
X111539463Y-130854494D01*
X111618815Y-130951185D01*
X111715506Y-131030537D01*
X111825820Y-131089502D01*
X111945518Y-131125812D01*
X112070000Y-131138072D01*
X112533271Y-131138072D01*
X113890811Y-132495613D01*
X110729601Y-132499243D01*
X110725870Y-126318514D01*
X121995000Y-126318514D01*
X121995000Y-126581486D01*
X122046304Y-126839405D01*
X122146939Y-127082359D01*
X122293038Y-127301013D01*
X122478987Y-127486962D01*
X122697641Y-127633061D01*
X122940595Y-127733696D01*
X123198514Y-127785000D01*
X123461486Y-127785000D01*
X123719405Y-127733696D01*
X123962359Y-127633061D01*
X124181013Y-127486962D01*
X124366962Y-127301013D01*
X124513061Y-127082359D01*
X124613696Y-126839405D01*
X124665000Y-126581486D01*
X124665000Y-126318514D01*
X124613696Y-126060595D01*
X124513061Y-125817641D01*
X124366962Y-125598987D01*
X124181013Y-125413038D01*
X123962359Y-125266939D01*
X123719405Y-125166304D01*
X123461486Y-125115000D01*
X123198514Y-125115000D01*
X122940595Y-125166304D01*
X122697641Y-125266939D01*
X122478987Y-125413038D01*
X122293038Y-125598987D01*
X122146939Y-125817641D01*
X122046304Y-126060595D01*
X121995000Y-126318514D01*
X110725870Y-126318514D01*
X110723032Y-121620000D01*
X111931928Y-121620000D01*
X111944188Y-121744482D01*
X111980498Y-121864180D01*
X112039463Y-121974494D01*
X112118815Y-122071185D01*
X112215506Y-122150537D01*
X112325820Y-122209502D01*
X112445518Y-122245812D01*
X112570000Y-122258072D01*
X113184250Y-122255000D01*
X113343000Y-122096250D01*
X113343000Y-120847000D01*
X112093750Y-120847000D01*
X111935000Y-121005750D01*
X111931928Y-121620000D01*
X110723032Y-121620000D01*
X110721946Y-119820000D01*
X111931928Y-119820000D01*
X111935000Y-120434250D01*
X112093750Y-120593000D01*
X113343000Y-120593000D01*
X113343000Y-119343750D01*
X113184250Y-119185000D01*
X112570000Y-119181928D01*
X112445518Y-119194188D01*
X112325820Y-119230498D01*
X112215506Y-119289463D01*
X112118815Y-119368815D01*
X112039463Y-119465506D01*
X111980498Y-119575820D01*
X111944188Y-119695518D01*
X111931928Y-119820000D01*
X110721946Y-119820000D01*
X110710943Y-101600000D01*
X111549286Y-101600000D01*
X111549286Y-105420000D01*
X133190715Y-105420000D01*
X133190715Y-101600000D01*
X111549286Y-101600000D01*
X110710943Y-101600000D01*
X110710399Y-100700542D01*
X170330599Y-100749459D01*
%TA.AperFunction,Conductor*%
D22*
G36*
X170330599Y-100749459D02*
G01*
X170359401Y-132430782D01*
X155547014Y-132447788D01*
X155981157Y-132013645D01*
X156088514Y-132035000D01*
X156351486Y-132035000D01*
X156609405Y-131983696D01*
X156852359Y-131883061D01*
X157071013Y-131736962D01*
X157186706Y-131621269D01*
X160558336Y-131621269D01*
X160617797Y-131855037D01*
X160856242Y-131965934D01*
X161111740Y-132028183D01*
X161374473Y-132039390D01*
X161634344Y-131999125D01*
X161881366Y-131908935D01*
X161982203Y-131855037D01*
X162041664Y-131621269D01*
X161300000Y-130879605D01*
X160558336Y-131621269D01*
X157186706Y-131621269D01*
X157256962Y-131551013D01*
X157403061Y-131332359D01*
X157503696Y-131089405D01*
X157555000Y-130831486D01*
X157555000Y-130774473D01*
X159960610Y-130774473D01*
X160000875Y-131034344D01*
X160091065Y-131281366D01*
X160144963Y-131382203D01*
X160378731Y-131441664D01*
X161120395Y-130700000D01*
X161479605Y-130700000D01*
X162221269Y-131441664D01*
X162455037Y-131382203D01*
X162565934Y-131143758D01*
X162628183Y-130888260D01*
X162639390Y-130625527D01*
X162599125Y-130365656D01*
X162508935Y-130118634D01*
X162455037Y-130017797D01*
X162221269Y-129958336D01*
X161479605Y-130700000D01*
X161120395Y-130700000D01*
X160378731Y-129958336D01*
X160144963Y-130017797D01*
X160034066Y-130256242D01*
X159971817Y-130511740D01*
X159960610Y-130774473D01*
X157555000Y-130774473D01*
X157555000Y-130568514D01*
X157503696Y-130310595D01*
X157403061Y-130067641D01*
X157256962Y-129848987D01*
X157186706Y-129778731D01*
X160558336Y-129778731D01*
X161300000Y-130520395D01*
X162041664Y-129778731D01*
X161982203Y-129544963D01*
X161743758Y-129434066D01*
X161488260Y-129371817D01*
X161225527Y-129360610D01*
X160965656Y-129400875D01*
X160718634Y-129491065D01*
X160617797Y-129544963D01*
X160558336Y-129778731D01*
X157186706Y-129778731D01*
X157071013Y-129663038D01*
X156852359Y-129516939D01*
X156609405Y-129416304D01*
X156351486Y-129365000D01*
X156088514Y-129365000D01*
X155830595Y-129416304D01*
X155587641Y-129516939D01*
X155368987Y-129663038D01*
X155183038Y-129848987D01*
X155036939Y-130067641D01*
X154936304Y-130310595D01*
X154885000Y-130568514D01*
X154885000Y-130831486D01*
X154906355Y-130938843D01*
X153885199Y-131960000D01*
X149584802Y-131960000D01*
X149230000Y-131605199D01*
X149230000Y-131078072D01*
X149370000Y-131078072D01*
X149494482Y-131065812D01*
X149614180Y-131029502D01*
X149724494Y-130970537D01*
X149821185Y-130891185D01*
X149900537Y-130794494D01*
X149959502Y-130684180D01*
X149965056Y-130665873D01*
X150031495Y-130732312D01*
X150282905Y-130900299D01*
X150562257Y-131016011D01*
X150858816Y-131075000D01*
X151161184Y-131075000D01*
X151457743Y-131016011D01*
X151737095Y-130900299D01*
X151988505Y-130732312D01*
X152202312Y-130518505D01*
X152370299Y-130267095D01*
X152486011Y-129987743D01*
X152545000Y-129691184D01*
X152545000Y-129388816D01*
X152486011Y-129092257D01*
X152370299Y-128812905D01*
X152202312Y-128561495D01*
X151988505Y-128347688D01*
X151737095Y-128179701D01*
X151457743Y-128063989D01*
X151161184Y-128005000D01*
X150858816Y-128005000D01*
X150562257Y-128063989D01*
X150282905Y-128179701D01*
X150031495Y-128347688D01*
X149965056Y-128414127D01*
X149959502Y-128395820D01*
X149900537Y-128285506D01*
X149821185Y-128188815D01*
X149724494Y-128109463D01*
X149614180Y-128050498D01*
X149494482Y-128014188D01*
X149370000Y-128001928D01*
X148697872Y-128001928D01*
X149209800Y-127490000D01*
X155912678Y-127490000D01*
X155950000Y-127493676D01*
X155987322Y-127490000D01*
X155987333Y-127490000D01*
X156098986Y-127479003D01*
X156100598Y-127478514D01*
X157465000Y-127478514D01*
X157465000Y-127741486D01*
X157516304Y-127999405D01*
X157616939Y-128242359D01*
X157763038Y-128461013D01*
X157948987Y-128646962D01*
X158167641Y-128793061D01*
X158410595Y-128893696D01*
X158668514Y-128945000D01*
X158931486Y-128945000D01*
X159189405Y-128893696D01*
X159432359Y-128793061D01*
X159651013Y-128646962D01*
X159836962Y-128461013D01*
X159897775Y-128370000D01*
X164075199Y-128370000D01*
X164741928Y-129036729D01*
X164741928Y-130400000D01*
X164754188Y-130524482D01*
X164790498Y-130644180D01*
X164849463Y-130754494D01*
X164928815Y-130851185D01*
X165025506Y-130930537D01*
X165135820Y-130989502D01*
X165255518Y-131025812D01*
X165380000Y-131038072D01*
X167180000Y-131038072D01*
X167304482Y-131025812D01*
X167424180Y-130989502D01*
X167534494Y-130930537D01*
X167631185Y-130851185D01*
X167710537Y-130754494D01*
X167769502Y-130644180D01*
X167775056Y-130625873D01*
X167841495Y-130692312D01*
X168092905Y-130860299D01*
X168372257Y-130976011D01*
X168668816Y-131035000D01*
X168971184Y-131035000D01*
X169267743Y-130976011D01*
X169547095Y-130860299D01*
X169798505Y-130692312D01*
X170012312Y-130478505D01*
X170180299Y-130227095D01*
X170296011Y-129947743D01*
X170355000Y-129651184D01*
X170355000Y-129348816D01*
X170296011Y-129052257D01*
X170180299Y-128772905D01*
X170012312Y-128521495D01*
X169798505Y-128307688D01*
X169547095Y-128139701D01*
X169267743Y-128023989D01*
X168971184Y-127965000D01*
X168668816Y-127965000D01*
X168372257Y-128023989D01*
X168092905Y-128139701D01*
X167841495Y-128307688D01*
X167775056Y-128374127D01*
X167769502Y-128355820D01*
X167710537Y-128245506D01*
X167631185Y-128148815D01*
X167534494Y-128069463D01*
X167424180Y-128010498D01*
X167304482Y-127974188D01*
X167180000Y-127961928D01*
X165816729Y-127961928D01*
X164953804Y-127099003D01*
X164930001Y-127069999D01*
X164814276Y-126975026D01*
X164682247Y-126904454D01*
X164538986Y-126860997D01*
X164427333Y-126850000D01*
X164427322Y-126850000D01*
X164390000Y-126846324D01*
X164352678Y-126850000D01*
X159897775Y-126850000D01*
X159836962Y-126758987D01*
X159651013Y-126573038D01*
X159432359Y-126426939D01*
X159189405Y-126326304D01*
X158931486Y-126275000D01*
X158668514Y-126275000D01*
X158410595Y-126326304D01*
X158167641Y-126426939D01*
X157948987Y-126573038D01*
X157763038Y-126758987D01*
X157616939Y-126977641D01*
X157516304Y-127220595D01*
X157465000Y-127478514D01*
X156100598Y-127478514D01*
X156242247Y-127435546D01*
X156374276Y-127364974D01*
X156490001Y-127270001D01*
X156513803Y-127240998D01*
X157121004Y-126633798D01*
X157150001Y-126610001D01*
X157180336Y-126573038D01*
X157244974Y-126494277D01*
X157315546Y-126362247D01*
X157328812Y-126318514D01*
X157359003Y-126218986D01*
X157370000Y-126107333D01*
X157370000Y-126107323D01*
X157373676Y-126070000D01*
X157370000Y-126032677D01*
X157370000Y-123451269D01*
X158058336Y-123451269D01*
X158117797Y-123685037D01*
X158356242Y-123795934D01*
X158611740Y-123858183D01*
X158874473Y-123869390D01*
X159134344Y-123829125D01*
X159381366Y-123738935D01*
X159482203Y-123685037D01*
X159541664Y-123451269D01*
X158800000Y-122709605D01*
X158058336Y-123451269D01*
X157370000Y-123451269D01*
X157370000Y-122604473D01*
X157460610Y-122604473D01*
X157500875Y-122864344D01*
X157591065Y-123111366D01*
X157644963Y-123212203D01*
X157878731Y-123271664D01*
X158620395Y-122530000D01*
X158979605Y-122530000D01*
X159721269Y-123271664D01*
X159955037Y-123212203D01*
X160065934Y-122973758D01*
X160128183Y-122718260D01*
X160139390Y-122455527D01*
X160099125Y-122195656D01*
X160008935Y-121948634D01*
X159955037Y-121847797D01*
X159721269Y-121788336D01*
X158979605Y-122530000D01*
X158620395Y-122530000D01*
X157878731Y-121788336D01*
X157644963Y-121847797D01*
X157534066Y-122086242D01*
X157471817Y-122341740D01*
X157460610Y-122604473D01*
X157370000Y-122604473D01*
X157370000Y-121608731D01*
X158058336Y-121608731D01*
X158800000Y-122350395D01*
X159400395Y-121750000D01*
X164451928Y-121750000D01*
X164464188Y-121874482D01*
X164500498Y-121994180D01*
X164559463Y-122104494D01*
X164638815Y-122201185D01*
X164735506Y-122280537D01*
X164845820Y-122339502D01*
X164965518Y-122375812D01*
X165090000Y-122388072D01*
X165704250Y-122385000D01*
X165863000Y-122226250D01*
X165863000Y-120977000D01*
X164613750Y-120977000D01*
X164455000Y-121135750D01*
X164451928Y-121750000D01*
X159400395Y-121750000D01*
X159541664Y-121608731D01*
X159482203Y-121374963D01*
X159243758Y-121264066D01*
X158988260Y-121201817D01*
X158725527Y-121190610D01*
X158465656Y-121230875D01*
X158218634Y-121321065D01*
X158117797Y-121374963D01*
X158058336Y-121608731D01*
X157370000Y-121608731D01*
X157370000Y-121334801D01*
X159104802Y-119600000D01*
X161562678Y-119600000D01*
X161600000Y-119603676D01*
X161637322Y-119600000D01*
X161637333Y-119600000D01*
X161748986Y-119589003D01*
X161892247Y-119545546D01*
X162024276Y-119474974D01*
X162140001Y-119380001D01*
X162163804Y-119350997D01*
X162280998Y-119233803D01*
X162310001Y-119210001D01*
X162404974Y-119094276D01*
X162475546Y-118962247D01*
X162519003Y-118818986D01*
X162530000Y-118707333D01*
X162530000Y-118707324D01*
X162533676Y-118670001D01*
X162530000Y-118632678D01*
X162530000Y-117507775D01*
X162621013Y-117446962D01*
X162806962Y-117261013D01*
X162867775Y-117170000D01*
X163775199Y-117170000D01*
X165920198Y-119315000D01*
X165862998Y-119315000D01*
X165862998Y-119473748D01*
X165704250Y-119315000D01*
X165090000Y-119311928D01*
X164965518Y-119324188D01*
X164845820Y-119360498D01*
X164735506Y-119419463D01*
X164638815Y-119498815D01*
X164559463Y-119595506D01*
X164500498Y-119705820D01*
X164464188Y-119825518D01*
X164451928Y-119950000D01*
X164455000Y-120564250D01*
X164613750Y-120723000D01*
X165863000Y-120723000D01*
X165863000Y-120703000D01*
X166117000Y-120703000D01*
X166117000Y-120723000D01*
X166137000Y-120723000D01*
X166137000Y-120977000D01*
X166117000Y-120977000D01*
X166117000Y-122226250D01*
X166275750Y-122385000D01*
X166890000Y-122388072D01*
X167014482Y-122375812D01*
X167134180Y-122339502D01*
X167244494Y-122280537D01*
X167341185Y-122201185D01*
X167420537Y-122104494D01*
X167479502Y-121994180D01*
X167485056Y-121975873D01*
X167551495Y-122042312D01*
X167802905Y-122210299D01*
X168082257Y-122326011D01*
X168378816Y-122385000D01*
X168681184Y-122385000D01*
X168977743Y-122326011D01*
X169257095Y-122210299D01*
X169508505Y-122042312D01*
X169722312Y-121828505D01*
X169890299Y-121577095D01*
X170006011Y-121297743D01*
X170065000Y-121001184D01*
X170065000Y-120698816D01*
X170006011Y-120402257D01*
X169890299Y-120122905D01*
X169722312Y-119871495D01*
X169508505Y-119657688D01*
X169257095Y-119489701D01*
X168977743Y-119373989D01*
X168681184Y-119315000D01*
X168378816Y-119315000D01*
X168121070Y-119366269D01*
X164653804Y-115899003D01*
X164630001Y-115869999D01*
X164514276Y-115775026D01*
X164382247Y-115704454D01*
X164238986Y-115660997D01*
X164127333Y-115650000D01*
X164127322Y-115650000D01*
X164090000Y-115646324D01*
X164052678Y-115650000D01*
X162867775Y-115650000D01*
X162806962Y-115558987D01*
X162621013Y-115373038D01*
X162402359Y-115226939D01*
X162159405Y-115126304D01*
X161901486Y-115075000D01*
X161638514Y-115075000D01*
X161380595Y-115126304D01*
X161137641Y-115226939D01*
X160918987Y-115373038D01*
X160733038Y-115558987D01*
X160586939Y-115777641D01*
X160486304Y-116020595D01*
X160435000Y-116278514D01*
X160435000Y-116541486D01*
X160486304Y-116799405D01*
X160586939Y-117042359D01*
X160733038Y-117261013D01*
X160918987Y-117446962D01*
X161010001Y-117507775D01*
X161010000Y-118080000D01*
X158827333Y-118080000D01*
X158790000Y-118076323D01*
X158752667Y-118080000D01*
X158641014Y-118090997D01*
X158497753Y-118134454D01*
X158365724Y-118205026D01*
X158249999Y-118299999D01*
X158226201Y-118328997D01*
X156098998Y-120456201D01*
X156070000Y-120479999D01*
X156046202Y-120508997D01*
X156046201Y-120508998D01*
X156030000Y-120528739D01*
X156030000Y-117574592D01*
X156057641Y-117593061D01*
X156300595Y-117693696D01*
X156558514Y-117745000D01*
X156821486Y-117745000D01*
X157079405Y-117693696D01*
X157322359Y-117593061D01*
X157541013Y-117446962D01*
X157726962Y-117261013D01*
X157873061Y-117042359D01*
X157973696Y-116799405D01*
X158025000Y-116541486D01*
X158025000Y-116278514D01*
X157973696Y-116020595D01*
X157873061Y-115777641D01*
X157726962Y-115558987D01*
X157541013Y-115373038D01*
X157387401Y-115270399D01*
X157797800Y-114860000D01*
X160328139Y-114860000D01*
X160429669Y-114870000D01*
X160429679Y-114870000D01*
X160467001Y-114873676D01*
X160504324Y-114870000D01*
X163032678Y-114870000D01*
X163070000Y-114873676D01*
X163107322Y-114870000D01*
X163107333Y-114870000D01*
X163218986Y-114859003D01*
X163362247Y-114815546D01*
X163494276Y-114744974D01*
X163610001Y-114650001D01*
X163633804Y-114620998D01*
X164631004Y-113623798D01*
X164660001Y-113600001D01*
X164754974Y-113484276D01*
X164825546Y-113352247D01*
X164869003Y-113208986D01*
X164880000Y-113097333D01*
X164880000Y-113097324D01*
X164883676Y-113060001D01*
X164880000Y-113022678D01*
X164880000Y-109117325D01*
X164883676Y-109080000D01*
X164880000Y-109042675D01*
X164880000Y-109042667D01*
X164869003Y-108931014D01*
X164825546Y-108787753D01*
X164754974Y-108655724D01*
X164660001Y-108539999D01*
X164631003Y-108516201D01*
X159063803Y-102949002D01*
X159040000Y-102919998D01*
X158924275Y-102825025D01*
X158792246Y-102754453D01*
X158648985Y-102710996D01*
X158537332Y-102699999D01*
X158537321Y-102699999D01*
X158499999Y-102696323D01*
X158462677Y-102699999D01*
X138737324Y-102699999D01*
X138699999Y-102696323D01*
X138662674Y-102699999D01*
X138662666Y-102699999D01*
X138551013Y-102710996D01*
X138407752Y-102754453D01*
X138275723Y-102825025D01*
X138159998Y-102919998D01*
X138136200Y-102948996D01*
X135554002Y-105531195D01*
X135524998Y-105554998D01*
X135469870Y-105622173D01*
X135430025Y-105670723D01*
X135403150Y-105721003D01*
X135359453Y-105802753D01*
X135315996Y-105946014D01*
X135304999Y-106057667D01*
X135304999Y-106057677D01*
X135301323Y-106094999D01*
X135304999Y-106132321D01*
X135305000Y-117320198D01*
X126323804Y-108339003D01*
X126300001Y-108309999D01*
X126184276Y-108215026D01*
X126052247Y-108144454D01*
X125908986Y-108100997D01*
X125797333Y-108090000D01*
X125797322Y-108090000D01*
X125760000Y-108086324D01*
X125722678Y-108090000D01*
X121930320Y-108090000D01*
X121892997Y-108086324D01*
X121855674Y-108090000D01*
X121855665Y-108090000D01*
X121744012Y-108100997D01*
X121600751Y-108144454D01*
X121468721Y-108215026D01*
X121385081Y-108283668D01*
X121352997Y-108309999D01*
X121329199Y-108338997D01*
X115759003Y-113909194D01*
X115729999Y-113932997D01*
X115674871Y-114000172D01*
X115635026Y-114048722D01*
X115588923Y-114134974D01*
X115564454Y-114180752D01*
X115520997Y-114324013D01*
X115510000Y-114435666D01*
X115510000Y-114435676D01*
X115506324Y-114472998D01*
X115510000Y-114510321D01*
X115510001Y-119265634D01*
X115282905Y-119359701D01*
X115031495Y-119527688D01*
X114965056Y-119594127D01*
X114959502Y-119575820D01*
X114900537Y-119465506D01*
X114821185Y-119368815D01*
X114724494Y-119289463D01*
X114614180Y-119230498D01*
X114494482Y-119194188D01*
X114370000Y-119181928D01*
X113755750Y-119185000D01*
X113597000Y-119343750D01*
X113597000Y-120593000D01*
X113617000Y-120593000D01*
X113617000Y-120847000D01*
X113597000Y-120847000D01*
X113597000Y-122096250D01*
X113755750Y-122255000D01*
X114370000Y-122258072D01*
X114494482Y-122245812D01*
X114614180Y-122209502D01*
X114724494Y-122150537D01*
X114821185Y-122071185D01*
X114900537Y-121974494D01*
X114959502Y-121864180D01*
X114965056Y-121845873D01*
X115031495Y-121912312D01*
X115282905Y-122080299D01*
X115562257Y-122196011D01*
X115858816Y-122255000D01*
X116161184Y-122255000D01*
X116457743Y-122196011D01*
X116737095Y-122080299D01*
X116988505Y-121912312D01*
X117202312Y-121698505D01*
X117348313Y-121480000D01*
X121995000Y-121480000D01*
X121995000Y-121501486D01*
X122046304Y-121759405D01*
X122146939Y-122002359D01*
X122293038Y-122221013D01*
X122478987Y-122406962D01*
X122697641Y-122553061D01*
X122940595Y-122653696D01*
X123198514Y-122705000D01*
X123461486Y-122705000D01*
X123719405Y-122653696D01*
X123962359Y-122553061D01*
X124181013Y-122406962D01*
X124366962Y-122221013D01*
X124513061Y-122002359D01*
X124613696Y-121759405D01*
X124665000Y-121501486D01*
X124665000Y-121238514D01*
X124613696Y-120980595D01*
X124513061Y-120737641D01*
X124366962Y-120518987D01*
X124181013Y-120333038D01*
X123962359Y-120186939D01*
X123719405Y-120086304D01*
X123461486Y-120035000D01*
X123198514Y-120035000D01*
X123061626Y-120062229D01*
X122972247Y-120014454D01*
X122828986Y-119970997D01*
X122717333Y-119960000D01*
X122717322Y-119960000D01*
X122680000Y-119956324D01*
X122642678Y-119960000D01*
X117348313Y-119960000D01*
X117202312Y-119741495D01*
X117030000Y-119569183D01*
X117030000Y-118271269D01*
X120348336Y-118271269D01*
X120407797Y-118505037D01*
X120646242Y-118615934D01*
X120901740Y-118678183D01*
X121164473Y-118689390D01*
X121424344Y-118649125D01*
X121671366Y-118558935D01*
X121772203Y-118505037D01*
X121831664Y-118271269D01*
X121090000Y-117529605D01*
X120348336Y-118271269D01*
X117030000Y-118271269D01*
X117030000Y-117424473D01*
X119750610Y-117424473D01*
X119790875Y-117684344D01*
X119881065Y-117931366D01*
X119934963Y-118032203D01*
X120168731Y-118091664D01*
X120910395Y-117350000D01*
X121269605Y-117350000D01*
X122011269Y-118091664D01*
X122245037Y-118032203D01*
X122355934Y-117793758D01*
X122418183Y-117538260D01*
X122429390Y-117275527D01*
X122389125Y-117015656D01*
X122298935Y-116768634D01*
X122245037Y-116667797D01*
X122011269Y-116608336D01*
X121269605Y-117350000D01*
X120910395Y-117350000D01*
X120168731Y-116608336D01*
X119934963Y-116667797D01*
X119824066Y-116906242D01*
X119761817Y-117161740D01*
X119750610Y-117424473D01*
X117030000Y-117424473D01*
X117030000Y-116428731D01*
X120348336Y-116428731D01*
X121090000Y-117170395D01*
X121831664Y-116428731D01*
X121772203Y-116194963D01*
X121533758Y-116084066D01*
X121278260Y-116021817D01*
X121015527Y-116010610D01*
X120755656Y-116050875D01*
X120508634Y-116141065D01*
X120407797Y-116194963D01*
X120348336Y-116428731D01*
X117030000Y-116428731D01*
X117030000Y-114787799D01*
X119820398Y-111997401D01*
X119923038Y-112151013D01*
X120108987Y-112336962D01*
X120327641Y-112483061D01*
X120570595Y-112583696D01*
X120828514Y-112635000D01*
X121091486Y-112635000D01*
X121349405Y-112583696D01*
X121592359Y-112483061D01*
X121811013Y-112336962D01*
X121996962Y-112151013D01*
X122143061Y-111932359D01*
X122243696Y-111689405D01*
X122295000Y-111431486D01*
X122295000Y-111168514D01*
X122243696Y-110910595D01*
X122143061Y-110667641D01*
X121996962Y-110448987D01*
X121811013Y-110263038D01*
X121657401Y-110160399D01*
X122207800Y-109610000D01*
X125445199Y-109610000D01*
X125818170Y-109982971D01*
X125650595Y-110016304D01*
X125407641Y-110116939D01*
X125188987Y-110263038D01*
X125003038Y-110448987D01*
X124856939Y-110667641D01*
X124756304Y-110910595D01*
X124705000Y-111168514D01*
X124705000Y-111431486D01*
X124756304Y-111689405D01*
X124856939Y-111932359D01*
X125003038Y-112151013D01*
X125188987Y-112336962D01*
X125280000Y-112397775D01*
X125280001Y-113572668D01*
X125276324Y-113610000D01*
X125280001Y-113647333D01*
X125290998Y-113758986D01*
X125304180Y-113802442D01*
X125334454Y-113902246D01*
X125405026Y-114034276D01*
X125458965Y-114100000D01*
X125500000Y-114150001D01*
X125528998Y-114173799D01*
X130627974Y-119272776D01*
X130517000Y-119383750D01*
X130517000Y-120633000D01*
X130537000Y-120633000D01*
X130537000Y-120887000D01*
X130517000Y-120887000D01*
X130517000Y-122136250D01*
X130675750Y-122295000D01*
X131290000Y-122298072D01*
X131414482Y-122285812D01*
X131534180Y-122249502D01*
X131644494Y-122190537D01*
X131741185Y-122111185D01*
X131820537Y-122014494D01*
X131879502Y-121904180D01*
X131885056Y-121885873D01*
X131951495Y-121952312D01*
X132202905Y-122120299D01*
X132482257Y-122236011D01*
X132778816Y-122295000D01*
X133081184Y-122295000D01*
X133377743Y-122236011D01*
X133528686Y-122173488D01*
X133625002Y-122269804D01*
X133625001Y-128101138D01*
X133607743Y-128093989D01*
X133311184Y-128035000D01*
X133008816Y-128035000D01*
X132712257Y-128093989D01*
X132432905Y-128209701D01*
X132181495Y-128377688D01*
X132115056Y-128444127D01*
X132109502Y-128425820D01*
X132050537Y-128315506D01*
X131971185Y-128218815D01*
X131874494Y-128139463D01*
X131764180Y-128080498D01*
X131644482Y-128044188D01*
X131520000Y-128031928D01*
X129720000Y-128031928D01*
X129595518Y-128044188D01*
X129475820Y-128080498D01*
X129365506Y-128139463D01*
X129268815Y-128218815D01*
X129189463Y-128315506D01*
X129130498Y-128425820D01*
X129094188Y-128545518D01*
X129081928Y-128670000D01*
X129081928Y-128810000D01*
X128450000Y-128810000D01*
X128450000Y-121660000D01*
X128851928Y-121660000D01*
X128864188Y-121784482D01*
X128900498Y-121904180D01*
X128959463Y-122014494D01*
X129038815Y-122111185D01*
X129135506Y-122190537D01*
X129245820Y-122249502D01*
X129365518Y-122285812D01*
X129490000Y-122298072D01*
X130104250Y-122295000D01*
X130263000Y-122136250D01*
X130263000Y-120887000D01*
X129013750Y-120887000D01*
X128855000Y-121045750D01*
X128851928Y-121660000D01*
X128450000Y-121660000D01*
X128450000Y-119860000D01*
X128851928Y-119860000D01*
X128855000Y-120474250D01*
X129013750Y-120633000D01*
X130263000Y-120633000D01*
X130263000Y-119383750D01*
X130104250Y-119225000D01*
X129490000Y-119221928D01*
X129365518Y-119234188D01*
X129245820Y-119270498D01*
X129135506Y-119329463D01*
X129038815Y-119408815D01*
X128959463Y-119505506D01*
X128900498Y-119615820D01*
X128864188Y-119735518D01*
X128851928Y-119860000D01*
X128450000Y-119860000D01*
X128450000Y-118907333D01*
X128453677Y-118870000D01*
X128439003Y-118721014D01*
X128395546Y-118577753D01*
X128324974Y-118445724D01*
X128253799Y-118358997D01*
X128230001Y-118329999D01*
X128201003Y-118306201D01*
X127483645Y-117588843D01*
X127505000Y-117481486D01*
X127505000Y-117218514D01*
X127453696Y-116960595D01*
X127353061Y-116717641D01*
X127206962Y-116498987D01*
X127021013Y-116313038D01*
X126802359Y-116166939D01*
X126559405Y-116066304D01*
X126301486Y-116015000D01*
X126038514Y-116015000D01*
X125780595Y-116066304D01*
X125537641Y-116166939D01*
X125318987Y-116313038D01*
X125133038Y-116498987D01*
X124986939Y-116717641D01*
X124886304Y-116960595D01*
X124835000Y-117218514D01*
X124835000Y-117481486D01*
X124886304Y-117739405D01*
X124986939Y-117982359D01*
X125133038Y-118201013D01*
X125318987Y-118386962D01*
X125537641Y-118533061D01*
X125780595Y-118633696D01*
X126038514Y-118685000D01*
X126301486Y-118685000D01*
X126408843Y-118663645D01*
X126930001Y-119184803D01*
X126930000Y-129220392D01*
X126911663Y-129238729D01*
X126852203Y-129004963D01*
X126613758Y-128894066D01*
X126358260Y-128831817D01*
X126095527Y-128820610D01*
X125835656Y-128860875D01*
X125588634Y-128951065D01*
X125487797Y-129004963D01*
X125428336Y-129238731D01*
X126170000Y-129980395D01*
X126184143Y-129966253D01*
X126363748Y-130145858D01*
X126349605Y-130160000D01*
X127091269Y-130901664D01*
X127325037Y-130842203D01*
X127435934Y-130603758D01*
X127498183Y-130348260D01*
X127502989Y-130235583D01*
X127577753Y-130275546D01*
X127721014Y-130319003D01*
X127832667Y-130330000D01*
X127832676Y-130330000D01*
X127869999Y-130333676D01*
X127907322Y-130330000D01*
X129081928Y-130330000D01*
X129081928Y-130470000D01*
X129094188Y-130594482D01*
X129130498Y-130714180D01*
X129189463Y-130824494D01*
X129268815Y-130921185D01*
X129365506Y-131000537D01*
X129475820Y-131059502D01*
X129595518Y-131095812D01*
X129720000Y-131108072D01*
X131520000Y-131108072D01*
X131644482Y-131095812D01*
X131764180Y-131059502D01*
X131874494Y-131000537D01*
X131971185Y-130921185D01*
X132050537Y-130824494D01*
X132109502Y-130714180D01*
X132115056Y-130695873D01*
X132181495Y-130762312D01*
X132432905Y-130930299D01*
X132712257Y-131046011D01*
X133008816Y-131105000D01*
X133311184Y-131105000D01*
X133607743Y-131046011D01*
X133887095Y-130930299D01*
X134138505Y-130762312D01*
X134352312Y-130548505D01*
X134434980Y-130424783D01*
X136086200Y-132076004D01*
X136109998Y-132105002D01*
X136138996Y-132128800D01*
X136225722Y-132199975D01*
X136302500Y-132241014D01*
X136357752Y-132270547D01*
X136501013Y-132314004D01*
X136612666Y-132325001D01*
X136612676Y-132325001D01*
X136649999Y-132328677D01*
X136687322Y-132325001D01*
X138567677Y-132325001D01*
X138604999Y-132328677D01*
X138642321Y-132325001D01*
X138642332Y-132325001D01*
X138753985Y-132314004D01*
X138897246Y-132270547D01*
X139029275Y-132199975D01*
X139145000Y-132105002D01*
X139168803Y-132075998D01*
X142924999Y-128319802D01*
X142925000Y-130942669D01*
X142921323Y-130980001D01*
X142925000Y-131017334D01*
X142935997Y-131128987D01*
X142948741Y-131170998D01*
X142979453Y-131272247D01*
X143050025Y-131404277D01*
X143118886Y-131488183D01*
X143144999Y-131520002D01*
X143173997Y-131543800D01*
X143706199Y-132076003D01*
X143729998Y-132105002D01*
X143758996Y-132128800D01*
X143845722Y-132199975D01*
X143922500Y-132241014D01*
X143977752Y-132270547D01*
X144121013Y-132314004D01*
X144232666Y-132325001D01*
X144232676Y-132325001D01*
X144269999Y-132328677D01*
X144307322Y-132325001D01*
X145312679Y-132325001D01*
X145350001Y-132328677D01*
X145387323Y-132325001D01*
X145387334Y-132325001D01*
X145498987Y-132314004D01*
X145642248Y-132270547D01*
X145774277Y-132199975D01*
X145890002Y-132105002D01*
X145913805Y-132075998D01*
X147109711Y-130880092D01*
X147118815Y-130891185D01*
X147215506Y-130970537D01*
X147325820Y-131029502D01*
X147445518Y-131065812D01*
X147570000Y-131078072D01*
X147710000Y-131078072D01*
X147710000Y-131882677D01*
X147706324Y-131920000D01*
X147710000Y-131957322D01*
X147710000Y-131957332D01*
X147720997Y-132068985D01*
X147754672Y-132179999D01*
X147764454Y-132212246D01*
X147835026Y-132344276D01*
X147872551Y-132390000D01*
X147927156Y-132456536D01*
X119836014Y-132488788D01*
X120851157Y-131473645D01*
X120958514Y-131495000D01*
X121221486Y-131495000D01*
X121479405Y-131443696D01*
X121722359Y-131343061D01*
X121941013Y-131196962D01*
X122056706Y-131081269D01*
X125428336Y-131081269D01*
X125487797Y-131315037D01*
X125726242Y-131425934D01*
X125981740Y-131488183D01*
X126244473Y-131499390D01*
X126504344Y-131459125D01*
X126751366Y-131368935D01*
X126852203Y-131315037D01*
X126911664Y-131081269D01*
X126170000Y-130339605D01*
X125428336Y-131081269D01*
X122056706Y-131081269D01*
X122126962Y-131011013D01*
X122273061Y-130792359D01*
X122373696Y-130549405D01*
X122425000Y-130291486D01*
X122425000Y-130234473D01*
X124830610Y-130234473D01*
X124870875Y-130494344D01*
X124961065Y-130741366D01*
X125014963Y-130842203D01*
X125248731Y-130901664D01*
X125990395Y-130160000D01*
X125248731Y-129418336D01*
X125014963Y-129477797D01*
X124904066Y-129716242D01*
X124841817Y-129971740D01*
X124830610Y-130234473D01*
X122425000Y-130234473D01*
X122425000Y-130028514D01*
X122373696Y-129770595D01*
X122273061Y-129527641D01*
X122126962Y-129308987D01*
X121941013Y-129123038D01*
X121722359Y-128976939D01*
X121479405Y-128876304D01*
X121221486Y-128825000D01*
X120958514Y-128825000D01*
X120700595Y-128876304D01*
X120457641Y-128976939D01*
X120238987Y-129123038D01*
X120053038Y-129308987D01*
X119906939Y-129527641D01*
X119806304Y-129770595D01*
X119755000Y-130028514D01*
X119755000Y-130291486D01*
X119776355Y-130398843D01*
X118545199Y-131630000D01*
X115174802Y-131630000D01*
X114399977Y-130855176D01*
X114400537Y-130854494D01*
X114459502Y-130744180D01*
X114465056Y-130725873D01*
X114531495Y-130792312D01*
X114782905Y-130960299D01*
X115062257Y-131076011D01*
X115358816Y-131135000D01*
X115661184Y-131135000D01*
X115957743Y-131076011D01*
X116237095Y-130960299D01*
X116488505Y-130792312D01*
X116702312Y-130578505D01*
X116870299Y-130327095D01*
X116986011Y-130047743D01*
X117045000Y-129751184D01*
X117045000Y-129448816D01*
X116986011Y-129152257D01*
X116870299Y-128872905D01*
X116702312Y-128621495D01*
X116488505Y-128407688D01*
X116237095Y-128239701D01*
X115957743Y-128123989D01*
X115661184Y-128065000D01*
X115358816Y-128065000D01*
X115062257Y-128123989D01*
X114782905Y-128239701D01*
X114531495Y-128407688D01*
X114465056Y-128474127D01*
X114459502Y-128455820D01*
X114400537Y-128345506D01*
X114321185Y-128248815D01*
X114224494Y-128169463D01*
X114114180Y-128110498D01*
X113994482Y-128074188D01*
X113870000Y-128061928D01*
X112070000Y-128061928D01*
X111945518Y-128074188D01*
X111825820Y-128110498D01*
X111715506Y-128169463D01*
X111618815Y-128248815D01*
X111539463Y-128345506D01*
X111480498Y-128455820D01*
X111444188Y-128575518D01*
X111431928Y-128700000D01*
X111431928Y-130500000D01*
X111444188Y-130624482D01*
X111480498Y-130744180D01*
X111539463Y-130854494D01*
X111618815Y-130951185D01*
X111715506Y-131030537D01*
X111825820Y-131089502D01*
X111945518Y-131125812D01*
X112070000Y-131138072D01*
X112533271Y-131138072D01*
X113890811Y-132495613D01*
X110729601Y-132499243D01*
X110725870Y-126318514D01*
X121995000Y-126318514D01*
X121995000Y-126581486D01*
X122046304Y-126839405D01*
X122146939Y-127082359D01*
X122293038Y-127301013D01*
X122478987Y-127486962D01*
X122697641Y-127633061D01*
X122940595Y-127733696D01*
X123198514Y-127785000D01*
X123461486Y-127785000D01*
X123719405Y-127733696D01*
X123962359Y-127633061D01*
X124181013Y-127486962D01*
X124366962Y-127301013D01*
X124513061Y-127082359D01*
X124613696Y-126839405D01*
X124665000Y-126581486D01*
X124665000Y-126318514D01*
X124613696Y-126060595D01*
X124513061Y-125817641D01*
X124366962Y-125598987D01*
X124181013Y-125413038D01*
X123962359Y-125266939D01*
X123719405Y-125166304D01*
X123461486Y-125115000D01*
X123198514Y-125115000D01*
X122940595Y-125166304D01*
X122697641Y-125266939D01*
X122478987Y-125413038D01*
X122293038Y-125598987D01*
X122146939Y-125817641D01*
X122046304Y-126060595D01*
X121995000Y-126318514D01*
X110725870Y-126318514D01*
X110723032Y-121620000D01*
X111931928Y-121620000D01*
X111944188Y-121744482D01*
X111980498Y-121864180D01*
X112039463Y-121974494D01*
X112118815Y-122071185D01*
X112215506Y-122150537D01*
X112325820Y-122209502D01*
X112445518Y-122245812D01*
X112570000Y-122258072D01*
X113184250Y-122255000D01*
X113343000Y-122096250D01*
X113343000Y-120847000D01*
X112093750Y-120847000D01*
X111935000Y-121005750D01*
X111931928Y-121620000D01*
X110723032Y-121620000D01*
X110721946Y-119820000D01*
X111931928Y-119820000D01*
X111935000Y-120434250D01*
X112093750Y-120593000D01*
X113343000Y-120593000D01*
X113343000Y-119343750D01*
X113184250Y-119185000D01*
X112570000Y-119181928D01*
X112445518Y-119194188D01*
X112325820Y-119230498D01*
X112215506Y-119289463D01*
X112118815Y-119368815D01*
X112039463Y-119465506D01*
X111980498Y-119575820D01*
X111944188Y-119695518D01*
X111931928Y-119820000D01*
X110721946Y-119820000D01*
X110710943Y-101600000D01*
X111549286Y-101600000D01*
X111549286Y-105420000D01*
X133190715Y-105420000D01*
X133190715Y-101600000D01*
X111549286Y-101600000D01*
X110710943Y-101600000D01*
X110710399Y-100700542D01*
X170330599Y-100749459D01*
G37*
%TD.AperFunction*%
D21*
X135583327Y-119748129D02*
X135495026Y-119855724D01*
X135424454Y-119987753D01*
X135380997Y-120131014D01*
X135366323Y-120280000D01*
X135380997Y-120428986D01*
X135424454Y-120572247D01*
X135495026Y-120704276D01*
X135589999Y-120820001D01*
X135705724Y-120914974D01*
X135837753Y-120985546D01*
X135960438Y-121022762D01*
X136075363Y-121194759D01*
X136275241Y-121394637D01*
X136510273Y-121551680D01*
X136520865Y-121556067D01*
X136334869Y-121667615D01*
X136126481Y-121856586D01*
X135958963Y-122082580D01*
X135838754Y-122336913D01*
X135798096Y-122470961D01*
X135920085Y-122693000D01*
X137063000Y-122693000D01*
X137063000Y-122673000D01*
X137317000Y-122673000D01*
X137317000Y-122693000D01*
X137337000Y-122693000D01*
X137337000Y-122947000D01*
X137317000Y-122947000D01*
X137317000Y-122967000D01*
X137063000Y-122967000D01*
X137063000Y-122947000D01*
X135920085Y-122947000D01*
X135798096Y-123169039D01*
X135838754Y-123303087D01*
X135958963Y-123557420D01*
X136084039Y-123726157D01*
X135553997Y-124256200D01*
X135524999Y-124279998D01*
X135501201Y-124308996D01*
X135501200Y-124308997D01*
X135430025Y-124395723D01*
X135359453Y-124527753D01*
X135334202Y-124610997D01*
X135319558Y-124659276D01*
X135315997Y-124671014D01*
X135301323Y-124819999D01*
X135305000Y-124857331D01*
X135304999Y-126737676D01*
X135301323Y-126774999D01*
X135304999Y-126812321D01*
X135304999Y-126812331D01*
X135315996Y-126923984D01*
X135359453Y-127067245D01*
X135430025Y-127199275D01*
X135459792Y-127235546D01*
X135524998Y-127315000D01*
X135554001Y-127338803D01*
X135791312Y-127576113D01*
X135755000Y-127758665D01*
X135755000Y-128041335D01*
X135810147Y-128318574D01*
X135918320Y-128579727D01*
X136075363Y-128814759D01*
X136275241Y-129014637D01*
X136430000Y-129118044D01*
X136430001Y-129221956D01*
X136275241Y-129325363D01*
X136075363Y-129525241D01*
X135919022Y-129759222D01*
X135145001Y-128985202D01*
X135145001Y-121992334D01*
X135148678Y-121955001D01*
X135134004Y-121806015D01*
X135090547Y-121662754D01*
X135019975Y-121530725D01*
X134948800Y-121443998D01*
X134925002Y-121415000D01*
X134896004Y-121391202D01*
X134456868Y-120952066D01*
X134465000Y-120911184D01*
X134465000Y-120608816D01*
X134406011Y-120312257D01*
X134290299Y-120032905D01*
X134122312Y-119781495D01*
X133908505Y-119567688D01*
X133657095Y-119399701D01*
X133377743Y-119283989D01*
X133081184Y-119225000D01*
X132778816Y-119225000D01*
X132737934Y-119233132D01*
X126800000Y-113295199D01*
X126800000Y-112397775D01*
X126891013Y-112336962D01*
X127076962Y-112151013D01*
X127223061Y-111932359D01*
X127323696Y-111689405D01*
X127357029Y-111521830D01*
X135583327Y-119748129D01*
%TA.AperFunction,Conductor*%
D22*
G36*
X135583327Y-119748129D02*
G01*
X135495026Y-119855724D01*
X135424454Y-119987753D01*
X135380997Y-120131014D01*
X135366323Y-120280000D01*
X135380997Y-120428986D01*
X135424454Y-120572247D01*
X135495026Y-120704276D01*
X135589999Y-120820001D01*
X135705724Y-120914974D01*
X135837753Y-120985546D01*
X135960438Y-121022762D01*
X136075363Y-121194759D01*
X136275241Y-121394637D01*
X136510273Y-121551680D01*
X136520865Y-121556067D01*
X136334869Y-121667615D01*
X136126481Y-121856586D01*
X135958963Y-122082580D01*
X135838754Y-122336913D01*
X135798096Y-122470961D01*
X135920085Y-122693000D01*
X137063000Y-122693000D01*
X137063000Y-122673000D01*
X137317000Y-122673000D01*
X137317000Y-122693000D01*
X137337000Y-122693000D01*
X137337000Y-122947000D01*
X137317000Y-122947000D01*
X137317000Y-122967000D01*
X137063000Y-122967000D01*
X137063000Y-122947000D01*
X135920085Y-122947000D01*
X135798096Y-123169039D01*
X135838754Y-123303087D01*
X135958963Y-123557420D01*
X136084039Y-123726157D01*
X135553997Y-124256200D01*
X135524999Y-124279998D01*
X135501201Y-124308996D01*
X135501200Y-124308997D01*
X135430025Y-124395723D01*
X135359453Y-124527753D01*
X135334202Y-124610997D01*
X135319558Y-124659276D01*
X135315997Y-124671014D01*
X135301323Y-124819999D01*
X135305000Y-124857331D01*
X135304999Y-126737676D01*
X135301323Y-126774999D01*
X135304999Y-126812321D01*
X135304999Y-126812331D01*
X135315996Y-126923984D01*
X135359453Y-127067245D01*
X135430025Y-127199275D01*
X135459792Y-127235546D01*
X135524998Y-127315000D01*
X135554001Y-127338803D01*
X135791312Y-127576113D01*
X135755000Y-127758665D01*
X135755000Y-128041335D01*
X135810147Y-128318574D01*
X135918320Y-128579727D01*
X136075363Y-128814759D01*
X136275241Y-129014637D01*
X136430000Y-129118044D01*
X136430001Y-129221956D01*
X136275241Y-129325363D01*
X136075363Y-129525241D01*
X135919022Y-129759222D01*
X135145001Y-128985202D01*
X135145001Y-121992334D01*
X135148678Y-121955001D01*
X135134004Y-121806015D01*
X135090547Y-121662754D01*
X135019975Y-121530725D01*
X134948800Y-121443998D01*
X134925002Y-121415000D01*
X134896004Y-121391202D01*
X134456868Y-120952066D01*
X134465000Y-120911184D01*
X134465000Y-120608816D01*
X134406011Y-120312257D01*
X134290299Y-120032905D01*
X134122312Y-119781495D01*
X133908505Y-119567688D01*
X133657095Y-119399701D01*
X133377743Y-119283989D01*
X133081184Y-119225000D01*
X132778816Y-119225000D01*
X132737934Y-119233132D01*
X126800000Y-113295199D01*
X126800000Y-112397775D01*
X126891013Y-112336962D01*
X127076962Y-112151013D01*
X127223061Y-111932359D01*
X127323696Y-111689405D01*
X127357029Y-111521830D01*
X135583327Y-119748129D01*
G37*
%TD.AperFunction*%
D21*
X155555000Y-110938514D02*
X155555000Y-111201486D01*
X155576355Y-111308842D01*
X150739003Y-116146196D01*
X150709999Y-116169999D01*
X150654871Y-116237174D01*
X150615026Y-116285724D01*
X150575246Y-116360147D01*
X150544454Y-116417754D01*
X150500997Y-116561015D01*
X150490000Y-116672668D01*
X150490000Y-116672678D01*
X150486324Y-116710000D01*
X150490000Y-116747323D01*
X150490001Y-119481687D01*
X150271495Y-119627688D01*
X150205056Y-119694127D01*
X150199502Y-119675820D01*
X150140537Y-119565506D01*
X150061185Y-119468815D01*
X149964494Y-119389463D01*
X149854180Y-119330498D01*
X149734482Y-119294188D01*
X149610000Y-119281928D01*
X148995750Y-119285000D01*
X148837000Y-119443750D01*
X148837000Y-120693000D01*
X148857000Y-120693000D01*
X148857000Y-120947000D01*
X148837000Y-120947000D01*
X148837000Y-120967000D01*
X148583000Y-120967000D01*
X148583000Y-120947000D01*
X147352293Y-120947000D01*
X147348983Y-120945996D01*
X147237330Y-120934999D01*
X147237319Y-120934999D01*
X147199997Y-120931323D01*
X147162675Y-120934999D01*
X146091923Y-120934999D01*
X146189853Y-120698574D01*
X146245000Y-120421335D01*
X146245000Y-120138665D01*
X146208688Y-119956113D01*
X146244801Y-119920000D01*
X147171928Y-119920000D01*
X147175000Y-120534250D01*
X147333750Y-120693000D01*
X148583000Y-120693000D01*
X148583000Y-119443750D01*
X148424250Y-119285000D01*
X147810000Y-119281928D01*
X147685518Y-119294188D01*
X147565820Y-119330498D01*
X147455506Y-119389463D01*
X147358815Y-119468815D01*
X147279463Y-119565506D01*
X147220498Y-119675820D01*
X147184188Y-119795518D01*
X147171928Y-119920000D01*
X146244801Y-119920000D01*
X155359803Y-110804999D01*
X155581558Y-110804999D01*
X155555000Y-110938514D01*
%TA.AperFunction,Conductor*%
D22*
G36*
X155555000Y-110938514D02*
G01*
X155555000Y-111201486D01*
X155576355Y-111308842D01*
X150739003Y-116146196D01*
X150709999Y-116169999D01*
X150654871Y-116237174D01*
X150615026Y-116285724D01*
X150575246Y-116360147D01*
X150544454Y-116417754D01*
X150500997Y-116561015D01*
X150490000Y-116672668D01*
X150490000Y-116672678D01*
X150486324Y-116710000D01*
X150490000Y-116747323D01*
X150490001Y-119481687D01*
X150271495Y-119627688D01*
X150205056Y-119694127D01*
X150199502Y-119675820D01*
X150140537Y-119565506D01*
X150061185Y-119468815D01*
X149964494Y-119389463D01*
X149854180Y-119330498D01*
X149734482Y-119294188D01*
X149610000Y-119281928D01*
X148995750Y-119285000D01*
X148837000Y-119443750D01*
X148837000Y-120693000D01*
X148857000Y-120693000D01*
X148857000Y-120947000D01*
X148837000Y-120947000D01*
X148837000Y-120967000D01*
X148583000Y-120967000D01*
X148583000Y-120947000D01*
X147352293Y-120947000D01*
X147348983Y-120945996D01*
X147237330Y-120934999D01*
X147237319Y-120934999D01*
X147199997Y-120931323D01*
X147162675Y-120934999D01*
X146091923Y-120934999D01*
X146189853Y-120698574D01*
X146245000Y-120421335D01*
X146245000Y-120138665D01*
X146208688Y-119956113D01*
X146244801Y-119920000D01*
X147171928Y-119920000D01*
X147175000Y-120534250D01*
X147333750Y-120693000D01*
X148583000Y-120693000D01*
X148583000Y-119443750D01*
X148424250Y-119285000D01*
X147810000Y-119281928D01*
X147685518Y-119294188D01*
X147565820Y-119330498D01*
X147455506Y-119389463D01*
X147358815Y-119468815D01*
X147279463Y-119565506D01*
X147220498Y-119675820D01*
X147184188Y-119795518D01*
X147171928Y-119920000D01*
X146244801Y-119920000D01*
X155359803Y-110804999D01*
X155581558Y-110804999D01*
X155555000Y-110938514D01*
G37*
%TD.AperFunction*%
%TD*%
M02*
