%TF.GenerationSoftware,KiCad,Pcbnew,(5.1.8)-1*%
%TF.CreationDate,2021-01-06T02:07:28+05:30*%
%TF.ProjectId,LSA,4c53412e-6b69-4636-9164-5f7063625858,rev?*%
%TF.SameCoordinates,Original*%
%TF.FileFunction,Copper,L2,Bot*%
%TF.FilePolarity,Positive*%
%FSLAX46Y46*%
G04 Gerber Fmt 4.6, Leading zero omitted, Abs format (unit mm)*
G04 Created by KiCad (PCBNEW (5.1.8)-1) date 2021-01-06 02:07:28*
%MOMM*%
%LPD*%
G01*
G04 APERTURE LIST*
%TA.AperFunction,ComponentPad*%
%ADD10C,1.800000*%
%TD*%
%TA.AperFunction,ComponentPad*%
%ADD11R,1.800000X1.800000*%
%TD*%
%TA.AperFunction,ComponentPad*%
%ADD12O,1.400000X1.400000*%
%TD*%
%TA.AperFunction,ComponentPad*%
%ADD13C,1.400000*%
%TD*%
%TA.AperFunction,ComponentPad*%
%ADD14O,0.850000X0.850000*%
%TD*%
%TA.AperFunction,ComponentPad*%
%ADD15R,0.850000X0.850000*%
%TD*%
%TA.AperFunction,ComponentPad*%
%ADD16O,1.600000X1.600000*%
%TD*%
%TA.AperFunction,ComponentPad*%
%ADD17R,1.600000X1.600000*%
%TD*%
%TA.AperFunction,ViaPad*%
%ADD18C,0.800000*%
%TD*%
%TA.AperFunction,Conductor*%
%ADD19C,0.250000*%
%TD*%
%TA.AperFunction,Conductor*%
%ADD20C,0.254000*%
%TD*%
%TA.AperFunction,Conductor*%
%ADD21C,0.100000*%
%TD*%
G04 APERTURE END LIST*
D10*
%TO.P,D2,2*%
%TO.N,A2*%
X132930000Y-120760000D03*
D11*
%TO.P,D2,1*%
%TO.N,VCC*%
X130390000Y-120760000D03*
%TD*%
D12*
%TO.P,R8,2*%
%TO.N,GND*%
X156690000Y-116410000D03*
D13*
%TO.P,R8,1*%
%TO.N,A4*%
X161770000Y-116410000D03*
%TD*%
D14*
%TO.P,J1,10*%
%TO.N,01*%
X139060000Y-105210000D03*
%TO.P,J1,9*%
%TO.N,GND*%
X139060000Y-104210000D03*
%TO.P,J1,8*%
%TO.N,02*%
X140060000Y-105210000D03*
%TO.P,J1,7*%
%TO.N,VCC*%
X140060000Y-104210000D03*
%TO.P,J1,6*%
%TO.N,03*%
X141060000Y-105210000D03*
%TO.P,J1,5*%
%TO.N,Net-(J1-Pad5)*%
X141060000Y-104210000D03*
%TO.P,J1,4*%
%TO.N,04*%
X142060000Y-105210000D03*
%TO.P,J1,3*%
%TO.N,Net-(J1-Pad3)*%
X142060000Y-104210000D03*
%TO.P,J1,2*%
%TO.N,Net-(J1-Pad2)*%
X143060000Y-105210000D03*
D15*
%TO.P,J1,1*%
%TO.N,Net-(J1-Pad1)*%
X143060000Y-104210000D03*
%TD*%
D10*
%TO.P,D4,2*%
%TO.N,A4*%
X168530000Y-120850000D03*
D11*
%TO.P,D4,1*%
%TO.N,VCC*%
X165990000Y-120850000D03*
%TD*%
D10*
%TO.P,D3,2*%
%TO.N,A3*%
X151250000Y-120820000D03*
D11*
%TO.P,D3,1*%
%TO.N,VCC*%
X148710000Y-120820000D03*
%TD*%
D10*
%TO.P,D1,2*%
%TO.N,A1*%
X116010000Y-120720000D03*
D11*
%TO.P,D1,1*%
%TO.N,VCC*%
X113470000Y-120720000D03*
%TD*%
D16*
%TO.P,U1,14*%
%TO.N,04*%
X144810000Y-115200000D03*
%TO.P,U1,7*%
%TO.N,03*%
X137190000Y-130440000D03*
%TO.P,U1,13*%
%TO.N,04*%
X144810000Y-117740000D03*
%TO.P,U1,6*%
%TO.N,03*%
X137190000Y-127900000D03*
%TO.P,U1,12*%
%TO.N,A4*%
X144810000Y-120280000D03*
%TO.P,U1,5*%
%TO.N,A3*%
X137190000Y-125360000D03*
%TO.P,U1,11*%
%TO.N,GND*%
X144810000Y-122820000D03*
%TO.P,U1,4*%
%TO.N,VCC*%
X137190000Y-122820000D03*
%TO.P,U1,10*%
%TO.N,A2*%
X144810000Y-125360000D03*
%TO.P,U1,3*%
%TO.N,A1*%
X137190000Y-120280000D03*
%TO.P,U1,9*%
%TO.N,02*%
X144810000Y-127900000D03*
%TO.P,U1,2*%
%TO.N,01*%
X137190000Y-117740000D03*
%TO.P,U1,8*%
%TO.N,02*%
X144810000Y-130440000D03*
D17*
%TO.P,U1,1*%
%TO.N,01*%
X137190000Y-115200000D03*
%TD*%
D12*
%TO.P,R7,2*%
%TO.N,GND*%
X161970000Y-111070000D03*
D13*
%TO.P,R7,1*%
%TO.N,A3*%
X156890000Y-111070000D03*
%TD*%
D12*
%TO.P,R6,2*%
%TO.N,GND*%
X120960000Y-111300000D03*
D13*
%TO.P,R6,1*%
%TO.N,A2*%
X126040000Y-111300000D03*
%TD*%
D12*
%TO.P,R5,2*%
%TO.N,GND*%
X123330000Y-126450000D03*
D13*
%TO.P,R5,1*%
%TO.N,A1*%
X123330000Y-121370000D03*
%TD*%
D12*
%TO.P,R4,2*%
%TO.N,Net-(D8-Pad1)*%
X158800000Y-127610000D03*
D13*
%TO.P,R4,1*%
%TO.N,VCC*%
X158800000Y-122530000D03*
%TD*%
D12*
%TO.P,R3,2*%
%TO.N,Net-(D7-Pad1)*%
X156220000Y-130700000D03*
D13*
%TO.P,R3,1*%
%TO.N,VCC*%
X161300000Y-130700000D03*
%TD*%
D12*
%TO.P,R2,2*%
%TO.N,Net-(D6-Pad1)*%
X126170000Y-117350000D03*
D13*
%TO.P,R2,1*%
%TO.N,VCC*%
X121090000Y-117350000D03*
%TD*%
D12*
%TO.P,R1,2*%
%TO.N,Net-(D5-Pad1)*%
X121090000Y-130160000D03*
D13*
%TO.P,R1,1*%
%TO.N,VCC*%
X126170000Y-130160000D03*
%TD*%
D10*
%TO.P,D8,2*%
%TO.N,GND*%
X168820000Y-129500000D03*
D11*
%TO.P,D8,1*%
%TO.N,Net-(D8-Pad1)*%
X166280000Y-129500000D03*
%TD*%
D10*
%TO.P,D7,2*%
%TO.N,GND*%
X151010000Y-129540000D03*
D11*
%TO.P,D7,1*%
%TO.N,Net-(D7-Pad1)*%
X148470000Y-129540000D03*
%TD*%
D10*
%TO.P,D6,2*%
%TO.N,GND*%
X133160000Y-129570000D03*
D11*
%TO.P,D6,1*%
%TO.N,Net-(D6-Pad1)*%
X130620000Y-129570000D03*
%TD*%
D10*
%TO.P,D5,2*%
%TO.N,GND*%
X115510000Y-129600000D03*
D11*
%TO.P,D5,1*%
%TO.N,Net-(D5-Pad1)*%
X112970000Y-129600000D03*
%TD*%
D18*
%TO.N,VCC*%
X130360000Y-123290000D03*
%TD*%
D19*
%TO.N,VCC*%
X130360000Y-123290000D02*
X131420000Y-124350000D01*
X135660000Y-124350000D02*
X137190000Y-122820000D01*
X131420000Y-124350000D02*
X135660000Y-124350000D01*
X149436998Y-120820000D02*
X151416998Y-122800000D01*
X148710000Y-120820000D02*
X149436998Y-120820000D01*
X158530000Y-122800000D02*
X158800000Y-122530000D01*
X151416998Y-122800000D02*
X158530000Y-122800000D01*
X140060000Y-103608960D02*
X140908960Y-102760000D01*
X140060000Y-104210000D02*
X140060000Y-103608960D01*
X143045002Y-102760000D02*
X143085002Y-102800000D01*
X140908960Y-102760000D02*
X143045002Y-102760000D01*
X143085002Y-102800000D02*
X145800000Y-102800000D01*
X148710000Y-105710000D02*
X148710000Y-120820000D01*
X145800000Y-102800000D02*
X148710000Y-105710000D01*
%TD*%
D20*
%TO.N,GND*%
X170330599Y-100749459D02*
X170356648Y-129402925D01*
X170318397Y-129134093D01*
X170218222Y-128848801D01*
X170138261Y-128699208D01*
X169884080Y-128615525D01*
X168999605Y-129500000D01*
X169884080Y-130384475D01*
X170138261Y-130300792D01*
X170269158Y-130028225D01*
X170344365Y-129735358D01*
X170356746Y-129510533D01*
X170359401Y-132430782D01*
X110729601Y-132499243D01*
X110727307Y-128700000D01*
X111431928Y-128700000D01*
X111431928Y-130500000D01*
X111444188Y-130624482D01*
X111480498Y-130744180D01*
X111539463Y-130854494D01*
X111618815Y-130951185D01*
X111715506Y-131030537D01*
X111825820Y-131089502D01*
X111945518Y-131125812D01*
X112070000Y-131138072D01*
X113870000Y-131138072D01*
X113994482Y-131125812D01*
X114114180Y-131089502D01*
X114224494Y-131030537D01*
X114321185Y-130951185D01*
X114400537Y-130854494D01*
X114459502Y-130744180D01*
X114462813Y-130733265D01*
X114509578Y-130780030D01*
X114625526Y-130664082D01*
X114709208Y-130918261D01*
X114981775Y-131049158D01*
X115274642Y-131124365D01*
X115576553Y-131140991D01*
X115875907Y-131098397D01*
X116161199Y-130998222D01*
X116310792Y-130918261D01*
X116394475Y-130664080D01*
X115510000Y-129779605D01*
X115495858Y-129793748D01*
X115316253Y-129614143D01*
X115330395Y-129600000D01*
X115689605Y-129600000D01*
X116574080Y-130484475D01*
X116828261Y-130400792D01*
X116959158Y-130128225D01*
X116984763Y-130028514D01*
X119755000Y-130028514D01*
X119755000Y-130291486D01*
X119806304Y-130549405D01*
X119906939Y-130792359D01*
X120053038Y-131011013D01*
X120238987Y-131196962D01*
X120457641Y-131343061D01*
X120700595Y-131443696D01*
X120958514Y-131495000D01*
X121221486Y-131495000D01*
X121479405Y-131443696D01*
X121722359Y-131343061D01*
X121941013Y-131196962D01*
X122126962Y-131011013D01*
X122273061Y-130792359D01*
X122373696Y-130549405D01*
X122425000Y-130291486D01*
X122425000Y-130028514D01*
X124835000Y-130028514D01*
X124835000Y-130291486D01*
X124886304Y-130549405D01*
X124986939Y-130792359D01*
X125133038Y-131011013D01*
X125318987Y-131196962D01*
X125537641Y-131343061D01*
X125780595Y-131443696D01*
X126038514Y-131495000D01*
X126301486Y-131495000D01*
X126559405Y-131443696D01*
X126802359Y-131343061D01*
X127021013Y-131196962D01*
X127206962Y-131011013D01*
X127353061Y-130792359D01*
X127453696Y-130549405D01*
X127505000Y-130291486D01*
X127505000Y-130028514D01*
X127453696Y-129770595D01*
X127353061Y-129527641D01*
X127206962Y-129308987D01*
X127021013Y-129123038D01*
X126802359Y-128976939D01*
X126559405Y-128876304D01*
X126301486Y-128825000D01*
X126038514Y-128825000D01*
X125780595Y-128876304D01*
X125537641Y-128976939D01*
X125318987Y-129123038D01*
X125133038Y-129308987D01*
X124986939Y-129527641D01*
X124886304Y-129770595D01*
X124835000Y-130028514D01*
X122425000Y-130028514D01*
X122373696Y-129770595D01*
X122273061Y-129527641D01*
X122126962Y-129308987D01*
X121941013Y-129123038D01*
X121722359Y-128976939D01*
X121479405Y-128876304D01*
X121221486Y-128825000D01*
X120958514Y-128825000D01*
X120700595Y-128876304D01*
X120457641Y-128976939D01*
X120238987Y-129123038D01*
X120053038Y-129308987D01*
X119906939Y-129527641D01*
X119806304Y-129770595D01*
X119755000Y-130028514D01*
X116984763Y-130028514D01*
X117034365Y-129835358D01*
X117050991Y-129533447D01*
X117008397Y-129234093D01*
X116908222Y-128948801D01*
X116828261Y-128799208D01*
X116574080Y-128715525D01*
X115689605Y-129600000D01*
X115330395Y-129600000D01*
X115316253Y-129585858D01*
X115495858Y-129406253D01*
X115510000Y-129420395D01*
X116260395Y-128670000D01*
X129081928Y-128670000D01*
X129081928Y-130470000D01*
X129094188Y-130594482D01*
X129130498Y-130714180D01*
X129189463Y-130824494D01*
X129268815Y-130921185D01*
X129365506Y-131000537D01*
X129475820Y-131059502D01*
X129595518Y-131095812D01*
X129720000Y-131108072D01*
X131520000Y-131108072D01*
X131644482Y-131095812D01*
X131764180Y-131059502D01*
X131874494Y-131000537D01*
X131971185Y-130921185D01*
X132050537Y-130824494D01*
X132109502Y-130714180D01*
X132112813Y-130703265D01*
X132159578Y-130750030D01*
X132275526Y-130634082D01*
X132359208Y-130888261D01*
X132631775Y-131019158D01*
X132924642Y-131094365D01*
X133226553Y-131110991D01*
X133525907Y-131068397D01*
X133811199Y-130968222D01*
X133960792Y-130888261D01*
X134044475Y-130634080D01*
X133160000Y-129749605D01*
X133145858Y-129763748D01*
X132966253Y-129584143D01*
X132980395Y-129570000D01*
X133339605Y-129570000D01*
X134224080Y-130454475D01*
X134478261Y-130370792D01*
X134609158Y-130098225D01*
X134684365Y-129805358D01*
X134700991Y-129503447D01*
X134658397Y-129204093D01*
X134558222Y-128918801D01*
X134478261Y-128769208D01*
X134224080Y-128685525D01*
X133339605Y-129570000D01*
X132980395Y-129570000D01*
X132966253Y-129555858D01*
X133145858Y-129376253D01*
X133160000Y-129390395D01*
X134044475Y-128505920D01*
X133960792Y-128251739D01*
X133688225Y-128120842D01*
X133395358Y-128045635D01*
X133093447Y-128029009D01*
X132794093Y-128071603D01*
X132508801Y-128171778D01*
X132359208Y-128251739D01*
X132275526Y-128505918D01*
X132159578Y-128389970D01*
X132112813Y-128436735D01*
X132109502Y-128425820D01*
X132050537Y-128315506D01*
X131971185Y-128218815D01*
X131874494Y-128139463D01*
X131764180Y-128080498D01*
X131644482Y-128044188D01*
X131520000Y-128031928D01*
X129720000Y-128031928D01*
X129595518Y-128044188D01*
X129475820Y-128080498D01*
X129365506Y-128139463D01*
X129268815Y-128218815D01*
X129189463Y-128315506D01*
X129130498Y-128425820D01*
X129094188Y-128545518D01*
X129081928Y-128670000D01*
X116260395Y-128670000D01*
X116394475Y-128535920D01*
X116310792Y-128281739D01*
X116038225Y-128150842D01*
X115745358Y-128075635D01*
X115443447Y-128059009D01*
X115144093Y-128101603D01*
X114858801Y-128201778D01*
X114709208Y-128281739D01*
X114625526Y-128535918D01*
X114509578Y-128419970D01*
X114462813Y-128466735D01*
X114459502Y-128455820D01*
X114400537Y-128345506D01*
X114321185Y-128248815D01*
X114224494Y-128169463D01*
X114114180Y-128110498D01*
X113994482Y-128074188D01*
X113870000Y-128061928D01*
X112070000Y-128061928D01*
X111945518Y-128074188D01*
X111825820Y-128110498D01*
X111715506Y-128169463D01*
X111618815Y-128248815D01*
X111539463Y-128345506D01*
X111480498Y-128455820D01*
X111444188Y-128575518D01*
X111431928Y-128700000D01*
X110727307Y-128700000D01*
X110726150Y-126783330D01*
X122037278Y-126783330D01*
X122127147Y-127029123D01*
X122263241Y-127252660D01*
X122440330Y-127445351D01*
X122651608Y-127599792D01*
X122888956Y-127710047D01*
X122996671Y-127742716D01*
X123203000Y-127619374D01*
X123203000Y-126577000D01*
X123457000Y-126577000D01*
X123457000Y-127619374D01*
X123663329Y-127742716D01*
X123771044Y-127710047D01*
X124008392Y-127599792D01*
X124219670Y-127445351D01*
X124396759Y-127252660D01*
X124532853Y-127029123D01*
X124622722Y-126783330D01*
X124500201Y-126577000D01*
X123457000Y-126577000D01*
X123203000Y-126577000D01*
X122159799Y-126577000D01*
X122037278Y-126783330D01*
X110726150Y-126783330D01*
X110725748Y-126116670D01*
X122037278Y-126116670D01*
X122159799Y-126323000D01*
X123203000Y-126323000D01*
X123203000Y-125280626D01*
X123457000Y-125280626D01*
X123457000Y-126323000D01*
X124500201Y-126323000D01*
X124622722Y-126116670D01*
X124532853Y-125870877D01*
X124396759Y-125647340D01*
X124219670Y-125454649D01*
X124008392Y-125300208D01*
X123771044Y-125189953D01*
X123663329Y-125157284D01*
X123457000Y-125280626D01*
X123203000Y-125280626D01*
X122996671Y-125157284D01*
X122888956Y-125189953D01*
X122651608Y-125300208D01*
X122440330Y-125454649D01*
X122263241Y-125647340D01*
X122127147Y-125870877D01*
X122037278Y-126116670D01*
X110725748Y-126116670D01*
X110721945Y-119820000D01*
X111931928Y-119820000D01*
X111931928Y-121620000D01*
X111944188Y-121744482D01*
X111980498Y-121864180D01*
X112039463Y-121974494D01*
X112118815Y-122071185D01*
X112215506Y-122150537D01*
X112325820Y-122209502D01*
X112445518Y-122245812D01*
X112570000Y-122258072D01*
X114370000Y-122258072D01*
X114494482Y-122245812D01*
X114614180Y-122209502D01*
X114724494Y-122150537D01*
X114821185Y-122071185D01*
X114900537Y-121974494D01*
X114959502Y-121864180D01*
X114965056Y-121845873D01*
X115031495Y-121912312D01*
X115282905Y-122080299D01*
X115562257Y-122196011D01*
X115858816Y-122255000D01*
X116161184Y-122255000D01*
X116457743Y-122196011D01*
X116737095Y-122080299D01*
X116988505Y-121912312D01*
X117202312Y-121698505D01*
X117370299Y-121447095D01*
X117456696Y-121238514D01*
X121995000Y-121238514D01*
X121995000Y-121501486D01*
X122046304Y-121759405D01*
X122146939Y-122002359D01*
X122293038Y-122221013D01*
X122478987Y-122406962D01*
X122697641Y-122553061D01*
X122940595Y-122653696D01*
X123198514Y-122705000D01*
X123461486Y-122705000D01*
X123719405Y-122653696D01*
X123962359Y-122553061D01*
X124181013Y-122406962D01*
X124366962Y-122221013D01*
X124513061Y-122002359D01*
X124613696Y-121759405D01*
X124665000Y-121501486D01*
X124665000Y-121238514D01*
X124613696Y-120980595D01*
X124513061Y-120737641D01*
X124366962Y-120518987D01*
X124181013Y-120333038D01*
X123962359Y-120186939D01*
X123719405Y-120086304D01*
X123461486Y-120035000D01*
X123198514Y-120035000D01*
X122940595Y-120086304D01*
X122697641Y-120186939D01*
X122478987Y-120333038D01*
X122293038Y-120518987D01*
X122146939Y-120737641D01*
X122046304Y-120980595D01*
X121995000Y-121238514D01*
X117456696Y-121238514D01*
X117486011Y-121167743D01*
X117545000Y-120871184D01*
X117545000Y-120568816D01*
X117486011Y-120272257D01*
X117370299Y-119992905D01*
X117281495Y-119860000D01*
X128851928Y-119860000D01*
X128851928Y-121660000D01*
X128864188Y-121784482D01*
X128900498Y-121904180D01*
X128959463Y-122014494D01*
X129038815Y-122111185D01*
X129135506Y-122190537D01*
X129245820Y-122249502D01*
X129365518Y-122285812D01*
X129490000Y-122298072D01*
X130050140Y-122298072D01*
X129869744Y-122372795D01*
X129700226Y-122486063D01*
X129556063Y-122630226D01*
X129442795Y-122799744D01*
X129364774Y-122988102D01*
X129325000Y-123188061D01*
X129325000Y-123391939D01*
X129364774Y-123591898D01*
X129442795Y-123780256D01*
X129556063Y-123949774D01*
X129700226Y-124093937D01*
X129869744Y-124207205D01*
X130058102Y-124285226D01*
X130258061Y-124325000D01*
X130320198Y-124325000D01*
X130856205Y-124861008D01*
X130879999Y-124890001D01*
X130908992Y-124913795D01*
X130908996Y-124913799D01*
X130979685Y-124971811D01*
X130995724Y-124984974D01*
X131127753Y-125055546D01*
X131271014Y-125099003D01*
X131382667Y-125110000D01*
X131382676Y-125110000D01*
X131419999Y-125113676D01*
X131457322Y-125110000D01*
X135622678Y-125110000D01*
X135660000Y-125113676D01*
X135697322Y-125110000D01*
X135697333Y-125110000D01*
X135778199Y-125102035D01*
X135755000Y-125218665D01*
X135755000Y-125501335D01*
X135810147Y-125778574D01*
X135918320Y-126039727D01*
X136075363Y-126274759D01*
X136275241Y-126474637D01*
X136507759Y-126630000D01*
X136275241Y-126785363D01*
X136075363Y-126985241D01*
X135918320Y-127220273D01*
X135810147Y-127481426D01*
X135755000Y-127758665D01*
X135755000Y-128041335D01*
X135810147Y-128318574D01*
X135918320Y-128579727D01*
X136075363Y-128814759D01*
X136275241Y-129014637D01*
X136507759Y-129170000D01*
X136275241Y-129325363D01*
X136075363Y-129525241D01*
X135918320Y-129760273D01*
X135810147Y-130021426D01*
X135755000Y-130298665D01*
X135755000Y-130581335D01*
X135810147Y-130858574D01*
X135918320Y-131119727D01*
X136075363Y-131354759D01*
X136275241Y-131554637D01*
X136510273Y-131711680D01*
X136771426Y-131819853D01*
X137048665Y-131875000D01*
X137331335Y-131875000D01*
X137608574Y-131819853D01*
X137869727Y-131711680D01*
X138104759Y-131554637D01*
X138304637Y-131354759D01*
X138461680Y-131119727D01*
X138569853Y-130858574D01*
X138625000Y-130581335D01*
X138625000Y-130298665D01*
X138569853Y-130021426D01*
X138461680Y-129760273D01*
X138304637Y-129525241D01*
X138104759Y-129325363D01*
X137872241Y-129170000D01*
X138104759Y-129014637D01*
X138304637Y-128814759D01*
X138461680Y-128579727D01*
X138569853Y-128318574D01*
X138625000Y-128041335D01*
X138625000Y-127758665D01*
X138569853Y-127481426D01*
X138461680Y-127220273D01*
X138304637Y-126985241D01*
X138104759Y-126785363D01*
X137872241Y-126630000D01*
X138104759Y-126474637D01*
X138304637Y-126274759D01*
X138461680Y-126039727D01*
X138569853Y-125778574D01*
X138625000Y-125501335D01*
X138625000Y-125218665D01*
X143375000Y-125218665D01*
X143375000Y-125501335D01*
X143430147Y-125778574D01*
X143538320Y-126039727D01*
X143695363Y-126274759D01*
X143895241Y-126474637D01*
X144127759Y-126630000D01*
X143895241Y-126785363D01*
X143695363Y-126985241D01*
X143538320Y-127220273D01*
X143430147Y-127481426D01*
X143375000Y-127758665D01*
X143375000Y-128041335D01*
X143430147Y-128318574D01*
X143538320Y-128579727D01*
X143695363Y-128814759D01*
X143895241Y-129014637D01*
X144127759Y-129170000D01*
X143895241Y-129325363D01*
X143695363Y-129525241D01*
X143538320Y-129760273D01*
X143430147Y-130021426D01*
X143375000Y-130298665D01*
X143375000Y-130581335D01*
X143430147Y-130858574D01*
X143538320Y-131119727D01*
X143695363Y-131354759D01*
X143895241Y-131554637D01*
X144130273Y-131711680D01*
X144391426Y-131819853D01*
X144668665Y-131875000D01*
X144951335Y-131875000D01*
X145228574Y-131819853D01*
X145489727Y-131711680D01*
X145724759Y-131554637D01*
X145924637Y-131354759D01*
X146081680Y-131119727D01*
X146189853Y-130858574D01*
X146245000Y-130581335D01*
X146245000Y-130298665D01*
X146189853Y-130021426D01*
X146081680Y-129760273D01*
X145924637Y-129525241D01*
X145724759Y-129325363D01*
X145492241Y-129170000D01*
X145724759Y-129014637D01*
X145924637Y-128814759D01*
X146041406Y-128640000D01*
X146931928Y-128640000D01*
X146931928Y-130440000D01*
X146944188Y-130564482D01*
X146980498Y-130684180D01*
X147039463Y-130794494D01*
X147118815Y-130891185D01*
X147215506Y-130970537D01*
X147325820Y-131029502D01*
X147445518Y-131065812D01*
X147570000Y-131078072D01*
X149370000Y-131078072D01*
X149494482Y-131065812D01*
X149614180Y-131029502D01*
X149724494Y-130970537D01*
X149821185Y-130891185D01*
X149900537Y-130794494D01*
X149959502Y-130684180D01*
X149962813Y-130673265D01*
X150009578Y-130720030D01*
X150125526Y-130604082D01*
X150209208Y-130858261D01*
X150481775Y-130989158D01*
X150774642Y-131064365D01*
X151076553Y-131080991D01*
X151375907Y-131038397D01*
X151661199Y-130938222D01*
X151810792Y-130858261D01*
X151894475Y-130604080D01*
X151858909Y-130568514D01*
X154885000Y-130568514D01*
X154885000Y-130831486D01*
X154936304Y-131089405D01*
X155036939Y-131332359D01*
X155183038Y-131551013D01*
X155368987Y-131736962D01*
X155587641Y-131883061D01*
X155830595Y-131983696D01*
X156088514Y-132035000D01*
X156351486Y-132035000D01*
X156609405Y-131983696D01*
X156852359Y-131883061D01*
X157071013Y-131736962D01*
X157256962Y-131551013D01*
X157403061Y-131332359D01*
X157503696Y-131089405D01*
X157555000Y-130831486D01*
X157555000Y-130568514D01*
X159965000Y-130568514D01*
X159965000Y-130831486D01*
X160016304Y-131089405D01*
X160116939Y-131332359D01*
X160263038Y-131551013D01*
X160448987Y-131736962D01*
X160667641Y-131883061D01*
X160910595Y-131983696D01*
X161168514Y-132035000D01*
X161431486Y-132035000D01*
X161689405Y-131983696D01*
X161932359Y-131883061D01*
X162151013Y-131736962D01*
X162336962Y-131551013D01*
X162483061Y-131332359D01*
X162583696Y-131089405D01*
X162635000Y-130831486D01*
X162635000Y-130568514D01*
X162583696Y-130310595D01*
X162483061Y-130067641D01*
X162336962Y-129848987D01*
X162151013Y-129663038D01*
X161932359Y-129516939D01*
X161689405Y-129416304D01*
X161431486Y-129365000D01*
X161168514Y-129365000D01*
X160910595Y-129416304D01*
X160667641Y-129516939D01*
X160448987Y-129663038D01*
X160263038Y-129848987D01*
X160116939Y-130067641D01*
X160016304Y-130310595D01*
X159965000Y-130568514D01*
X157555000Y-130568514D01*
X157503696Y-130310595D01*
X157403061Y-130067641D01*
X157256962Y-129848987D01*
X157071013Y-129663038D01*
X156852359Y-129516939D01*
X156609405Y-129416304D01*
X156351486Y-129365000D01*
X156088514Y-129365000D01*
X155830595Y-129416304D01*
X155587641Y-129516939D01*
X155368987Y-129663038D01*
X155183038Y-129848987D01*
X155036939Y-130067641D01*
X154936304Y-130310595D01*
X154885000Y-130568514D01*
X151858909Y-130568514D01*
X151010000Y-129719605D01*
X150995858Y-129733748D01*
X150816253Y-129554143D01*
X150830395Y-129540000D01*
X151189605Y-129540000D01*
X152074080Y-130424475D01*
X152328261Y-130340792D01*
X152459158Y-130068225D01*
X152534365Y-129775358D01*
X152550991Y-129473447D01*
X152508397Y-129174093D01*
X152408222Y-128888801D01*
X152328261Y-128739208D01*
X152074080Y-128655525D01*
X151189605Y-129540000D01*
X150830395Y-129540000D01*
X150816253Y-129525858D01*
X150995858Y-129346253D01*
X151010000Y-129360395D01*
X151894475Y-128475920D01*
X151810792Y-128221739D01*
X151538225Y-128090842D01*
X151245358Y-128015635D01*
X150943447Y-127999009D01*
X150644093Y-128041603D01*
X150358801Y-128141778D01*
X150209208Y-128221739D01*
X150125526Y-128475918D01*
X150009578Y-128359970D01*
X149962813Y-128406735D01*
X149959502Y-128395820D01*
X149900537Y-128285506D01*
X149821185Y-128188815D01*
X149724494Y-128109463D01*
X149614180Y-128050498D01*
X149494482Y-128014188D01*
X149370000Y-128001928D01*
X147570000Y-128001928D01*
X147445518Y-128014188D01*
X147325820Y-128050498D01*
X147215506Y-128109463D01*
X147118815Y-128188815D01*
X147039463Y-128285506D01*
X146980498Y-128395820D01*
X146944188Y-128515518D01*
X146931928Y-128640000D01*
X146041406Y-128640000D01*
X146081680Y-128579727D01*
X146189853Y-128318574D01*
X146245000Y-128041335D01*
X146245000Y-127758665D01*
X146189853Y-127481426D01*
X146188647Y-127478514D01*
X157465000Y-127478514D01*
X157465000Y-127741486D01*
X157516304Y-127999405D01*
X157616939Y-128242359D01*
X157763038Y-128461013D01*
X157948987Y-128646962D01*
X158167641Y-128793061D01*
X158410595Y-128893696D01*
X158668514Y-128945000D01*
X158931486Y-128945000D01*
X159189405Y-128893696D01*
X159432359Y-128793061D01*
X159651013Y-128646962D01*
X159697975Y-128600000D01*
X164741928Y-128600000D01*
X164741928Y-130400000D01*
X164754188Y-130524482D01*
X164790498Y-130644180D01*
X164849463Y-130754494D01*
X164928815Y-130851185D01*
X165025506Y-130930537D01*
X165135820Y-130989502D01*
X165255518Y-131025812D01*
X165380000Y-131038072D01*
X167180000Y-131038072D01*
X167304482Y-131025812D01*
X167424180Y-130989502D01*
X167534494Y-130930537D01*
X167631185Y-130851185D01*
X167710537Y-130754494D01*
X167769502Y-130644180D01*
X167772813Y-130633265D01*
X167819578Y-130680030D01*
X167935526Y-130564082D01*
X168019208Y-130818261D01*
X168291775Y-130949158D01*
X168584642Y-131024365D01*
X168886553Y-131040991D01*
X169185907Y-130998397D01*
X169471199Y-130898222D01*
X169620792Y-130818261D01*
X169704475Y-130564080D01*
X168820000Y-129679605D01*
X168805858Y-129693748D01*
X168626253Y-129514143D01*
X168640395Y-129500000D01*
X168626253Y-129485858D01*
X168805858Y-129306253D01*
X168820000Y-129320395D01*
X169704475Y-128435920D01*
X169620792Y-128181739D01*
X169348225Y-128050842D01*
X169055358Y-127975635D01*
X168753447Y-127959009D01*
X168454093Y-128001603D01*
X168168801Y-128101778D01*
X168019208Y-128181739D01*
X167935526Y-128435918D01*
X167819578Y-128319970D01*
X167772813Y-128366735D01*
X167769502Y-128355820D01*
X167710537Y-128245506D01*
X167631185Y-128148815D01*
X167534494Y-128069463D01*
X167424180Y-128010498D01*
X167304482Y-127974188D01*
X167180000Y-127961928D01*
X165380000Y-127961928D01*
X165255518Y-127974188D01*
X165135820Y-128010498D01*
X165025506Y-128069463D01*
X164928815Y-128148815D01*
X164849463Y-128245506D01*
X164790498Y-128355820D01*
X164754188Y-128475518D01*
X164741928Y-128600000D01*
X159697975Y-128600000D01*
X159836962Y-128461013D01*
X159983061Y-128242359D01*
X160083696Y-127999405D01*
X160135000Y-127741486D01*
X160135000Y-127478514D01*
X160083696Y-127220595D01*
X159983061Y-126977641D01*
X159836962Y-126758987D01*
X159651013Y-126573038D01*
X159432359Y-126426939D01*
X159189405Y-126326304D01*
X158931486Y-126275000D01*
X158668514Y-126275000D01*
X158410595Y-126326304D01*
X158167641Y-126426939D01*
X157948987Y-126573038D01*
X157763038Y-126758987D01*
X157616939Y-126977641D01*
X157516304Y-127220595D01*
X157465000Y-127478514D01*
X146188647Y-127478514D01*
X146081680Y-127220273D01*
X145924637Y-126985241D01*
X145724759Y-126785363D01*
X145492241Y-126630000D01*
X145724759Y-126474637D01*
X145924637Y-126274759D01*
X146081680Y-126039727D01*
X146189853Y-125778574D01*
X146245000Y-125501335D01*
X146245000Y-125218665D01*
X146189853Y-124941426D01*
X146081680Y-124680273D01*
X145924637Y-124445241D01*
X145724759Y-124245363D01*
X145489727Y-124088320D01*
X145479135Y-124083933D01*
X145665131Y-123972385D01*
X145873519Y-123783414D01*
X146041037Y-123557420D01*
X146161246Y-123303087D01*
X146201904Y-123169039D01*
X146079915Y-122947000D01*
X144937000Y-122947000D01*
X144937000Y-122967000D01*
X144683000Y-122967000D01*
X144683000Y-122947000D01*
X143540085Y-122947000D01*
X143418096Y-123169039D01*
X143458754Y-123303087D01*
X143578963Y-123557420D01*
X143746481Y-123783414D01*
X143954869Y-123972385D01*
X144140865Y-124083933D01*
X144130273Y-124088320D01*
X143895241Y-124245363D01*
X143695363Y-124445241D01*
X143538320Y-124680273D01*
X143430147Y-124941426D01*
X143375000Y-125218665D01*
X138625000Y-125218665D01*
X138569853Y-124941426D01*
X138461680Y-124680273D01*
X138304637Y-124445241D01*
X138104759Y-124245363D01*
X137872241Y-124090000D01*
X138104759Y-123934637D01*
X138304637Y-123734759D01*
X138461680Y-123499727D01*
X138569853Y-123238574D01*
X138625000Y-122961335D01*
X138625000Y-122678665D01*
X138569853Y-122401426D01*
X138461680Y-122140273D01*
X138304637Y-121905241D01*
X138104759Y-121705363D01*
X137872241Y-121550000D01*
X138104759Y-121394637D01*
X138304637Y-121194759D01*
X138461680Y-120959727D01*
X138569853Y-120698574D01*
X138625000Y-120421335D01*
X138625000Y-120138665D01*
X138569853Y-119861426D01*
X138461680Y-119600273D01*
X138304637Y-119365241D01*
X138104759Y-119165363D01*
X137872241Y-119010000D01*
X138104759Y-118854637D01*
X138304637Y-118654759D01*
X138461680Y-118419727D01*
X138569853Y-118158574D01*
X138625000Y-117881335D01*
X138625000Y-117598665D01*
X138569853Y-117321426D01*
X138461680Y-117060273D01*
X138304637Y-116825241D01*
X138106039Y-116626643D01*
X138114482Y-116625812D01*
X138234180Y-116589502D01*
X138344494Y-116530537D01*
X138441185Y-116451185D01*
X138520537Y-116354494D01*
X138579502Y-116244180D01*
X138615812Y-116124482D01*
X138628072Y-116000000D01*
X138628072Y-115058665D01*
X143375000Y-115058665D01*
X143375000Y-115341335D01*
X143430147Y-115618574D01*
X143538320Y-115879727D01*
X143695363Y-116114759D01*
X143895241Y-116314637D01*
X144127759Y-116470000D01*
X143895241Y-116625363D01*
X143695363Y-116825241D01*
X143538320Y-117060273D01*
X143430147Y-117321426D01*
X143375000Y-117598665D01*
X143375000Y-117881335D01*
X143430147Y-118158574D01*
X143538320Y-118419727D01*
X143695363Y-118654759D01*
X143895241Y-118854637D01*
X144127759Y-119010000D01*
X143895241Y-119165363D01*
X143695363Y-119365241D01*
X143538320Y-119600273D01*
X143430147Y-119861426D01*
X143375000Y-120138665D01*
X143375000Y-120421335D01*
X143430147Y-120698574D01*
X143538320Y-120959727D01*
X143695363Y-121194759D01*
X143895241Y-121394637D01*
X144130273Y-121551680D01*
X144140865Y-121556067D01*
X143954869Y-121667615D01*
X143746481Y-121856586D01*
X143578963Y-122082580D01*
X143458754Y-122336913D01*
X143418096Y-122470961D01*
X143540085Y-122693000D01*
X144683000Y-122693000D01*
X144683000Y-122673000D01*
X144937000Y-122673000D01*
X144937000Y-122693000D01*
X146079915Y-122693000D01*
X146201904Y-122470961D01*
X146161246Y-122336913D01*
X146041037Y-122082580D01*
X145873519Y-121856586D01*
X145665131Y-121667615D01*
X145479135Y-121556067D01*
X145489727Y-121551680D01*
X145724759Y-121394637D01*
X145924637Y-121194759D01*
X146081680Y-120959727D01*
X146189853Y-120698574D01*
X146245000Y-120421335D01*
X146245000Y-120138665D01*
X146189853Y-119861426D01*
X146081680Y-119600273D01*
X145924637Y-119365241D01*
X145724759Y-119165363D01*
X145492241Y-119010000D01*
X145724759Y-118854637D01*
X145924637Y-118654759D01*
X146081680Y-118419727D01*
X146189853Y-118158574D01*
X146245000Y-117881335D01*
X146245000Y-117598665D01*
X146189853Y-117321426D01*
X146081680Y-117060273D01*
X145924637Y-116825241D01*
X145724759Y-116625363D01*
X145492241Y-116470000D01*
X145724759Y-116314637D01*
X145924637Y-116114759D01*
X146081680Y-115879727D01*
X146189853Y-115618574D01*
X146245000Y-115341335D01*
X146245000Y-115058665D01*
X146189853Y-114781426D01*
X146081680Y-114520273D01*
X145924637Y-114285241D01*
X145724759Y-114085363D01*
X145489727Y-113928320D01*
X145228574Y-113820147D01*
X144951335Y-113765000D01*
X144668665Y-113765000D01*
X144391426Y-113820147D01*
X144130273Y-113928320D01*
X143895241Y-114085363D01*
X143695363Y-114285241D01*
X143538320Y-114520273D01*
X143430147Y-114781426D01*
X143375000Y-115058665D01*
X138628072Y-115058665D01*
X138628072Y-114400000D01*
X138615812Y-114275518D01*
X138579502Y-114155820D01*
X138520537Y-114045506D01*
X138441185Y-113948815D01*
X138344494Y-113869463D01*
X138234180Y-113810498D01*
X138114482Y-113774188D01*
X137990000Y-113761928D01*
X136390000Y-113761928D01*
X136265518Y-113774188D01*
X136145820Y-113810498D01*
X136035506Y-113869463D01*
X135938815Y-113948815D01*
X135859463Y-114045506D01*
X135800498Y-114155820D01*
X135764188Y-114275518D01*
X135751928Y-114400000D01*
X135751928Y-116000000D01*
X135764188Y-116124482D01*
X135800498Y-116244180D01*
X135859463Y-116354494D01*
X135938815Y-116451185D01*
X136035506Y-116530537D01*
X136145820Y-116589502D01*
X136265518Y-116625812D01*
X136273961Y-116626643D01*
X136075363Y-116825241D01*
X135918320Y-117060273D01*
X135810147Y-117321426D01*
X135755000Y-117598665D01*
X135755000Y-117881335D01*
X135810147Y-118158574D01*
X135918320Y-118419727D01*
X136075363Y-118654759D01*
X136275241Y-118854637D01*
X136507759Y-119010000D01*
X136275241Y-119165363D01*
X136075363Y-119365241D01*
X135918320Y-119600273D01*
X135810147Y-119861426D01*
X135755000Y-120138665D01*
X135755000Y-120421335D01*
X135810147Y-120698574D01*
X135918320Y-120959727D01*
X136075363Y-121194759D01*
X136275241Y-121394637D01*
X136507759Y-121550000D01*
X136275241Y-121705363D01*
X136075363Y-121905241D01*
X135918320Y-122140273D01*
X135810147Y-122401426D01*
X135755000Y-122678665D01*
X135755000Y-122961335D01*
X135791312Y-123143886D01*
X135345199Y-123590000D01*
X131734803Y-123590000D01*
X131395000Y-123250198D01*
X131395000Y-123188061D01*
X131355226Y-122988102D01*
X131277205Y-122799744D01*
X131163937Y-122630226D01*
X131019774Y-122486063D01*
X130850256Y-122372795D01*
X130669860Y-122298072D01*
X131290000Y-122298072D01*
X131414482Y-122285812D01*
X131534180Y-122249502D01*
X131644494Y-122190537D01*
X131741185Y-122111185D01*
X131820537Y-122014494D01*
X131879502Y-121904180D01*
X131885056Y-121885873D01*
X131951495Y-121952312D01*
X132202905Y-122120299D01*
X132482257Y-122236011D01*
X132778816Y-122295000D01*
X133081184Y-122295000D01*
X133377743Y-122236011D01*
X133657095Y-122120299D01*
X133908505Y-121952312D01*
X134122312Y-121738505D01*
X134290299Y-121487095D01*
X134406011Y-121207743D01*
X134465000Y-120911184D01*
X134465000Y-120608816D01*
X134406011Y-120312257D01*
X134290299Y-120032905D01*
X134122312Y-119781495D01*
X133908505Y-119567688D01*
X133657095Y-119399701D01*
X133377743Y-119283989D01*
X133081184Y-119225000D01*
X132778816Y-119225000D01*
X132482257Y-119283989D01*
X132202905Y-119399701D01*
X131951495Y-119567688D01*
X131885056Y-119634127D01*
X131879502Y-119615820D01*
X131820537Y-119505506D01*
X131741185Y-119408815D01*
X131644494Y-119329463D01*
X131534180Y-119270498D01*
X131414482Y-119234188D01*
X131290000Y-119221928D01*
X129490000Y-119221928D01*
X129365518Y-119234188D01*
X129245820Y-119270498D01*
X129135506Y-119329463D01*
X129038815Y-119408815D01*
X128959463Y-119505506D01*
X128900498Y-119615820D01*
X128864188Y-119735518D01*
X128851928Y-119860000D01*
X117281495Y-119860000D01*
X117202312Y-119741495D01*
X116988505Y-119527688D01*
X116737095Y-119359701D01*
X116457743Y-119243989D01*
X116161184Y-119185000D01*
X115858816Y-119185000D01*
X115562257Y-119243989D01*
X115282905Y-119359701D01*
X115031495Y-119527688D01*
X114965056Y-119594127D01*
X114959502Y-119575820D01*
X114900537Y-119465506D01*
X114821185Y-119368815D01*
X114724494Y-119289463D01*
X114614180Y-119230498D01*
X114494482Y-119194188D01*
X114370000Y-119181928D01*
X112570000Y-119181928D01*
X112445518Y-119194188D01*
X112325820Y-119230498D01*
X112215506Y-119289463D01*
X112118815Y-119368815D01*
X112039463Y-119465506D01*
X111980498Y-119575820D01*
X111944188Y-119695518D01*
X111931928Y-119820000D01*
X110721945Y-119820000D01*
X110720375Y-117218514D01*
X119755000Y-117218514D01*
X119755000Y-117481486D01*
X119806304Y-117739405D01*
X119906939Y-117982359D01*
X120053038Y-118201013D01*
X120238987Y-118386962D01*
X120457641Y-118533061D01*
X120700595Y-118633696D01*
X120958514Y-118685000D01*
X121221486Y-118685000D01*
X121479405Y-118633696D01*
X121722359Y-118533061D01*
X121941013Y-118386962D01*
X122126962Y-118201013D01*
X122273061Y-117982359D01*
X122373696Y-117739405D01*
X122425000Y-117481486D01*
X122425000Y-117218514D01*
X124835000Y-117218514D01*
X124835000Y-117481486D01*
X124886304Y-117739405D01*
X124986939Y-117982359D01*
X125133038Y-118201013D01*
X125318987Y-118386962D01*
X125537641Y-118533061D01*
X125780595Y-118633696D01*
X126038514Y-118685000D01*
X126301486Y-118685000D01*
X126559405Y-118633696D01*
X126802359Y-118533061D01*
X127021013Y-118386962D01*
X127206962Y-118201013D01*
X127353061Y-117982359D01*
X127453696Y-117739405D01*
X127505000Y-117481486D01*
X127505000Y-117218514D01*
X127453696Y-116960595D01*
X127353061Y-116717641D01*
X127206962Y-116498987D01*
X127021013Y-116313038D01*
X126802359Y-116166939D01*
X126559405Y-116066304D01*
X126301486Y-116015000D01*
X126038514Y-116015000D01*
X125780595Y-116066304D01*
X125537641Y-116166939D01*
X125318987Y-116313038D01*
X125133038Y-116498987D01*
X124986939Y-116717641D01*
X124886304Y-116960595D01*
X124835000Y-117218514D01*
X122425000Y-117218514D01*
X122373696Y-116960595D01*
X122273061Y-116717641D01*
X122126962Y-116498987D01*
X121941013Y-116313038D01*
X121722359Y-116166939D01*
X121479405Y-116066304D01*
X121221486Y-116015000D01*
X120958514Y-116015000D01*
X120700595Y-116066304D01*
X120457641Y-116166939D01*
X120238987Y-116313038D01*
X120053038Y-116498987D01*
X119906939Y-116717641D01*
X119806304Y-116960595D01*
X119755000Y-117218514D01*
X110720375Y-117218514D01*
X110717002Y-111633329D01*
X119667284Y-111633329D01*
X119699953Y-111741044D01*
X119810208Y-111978392D01*
X119964649Y-112189670D01*
X120157340Y-112366759D01*
X120380877Y-112502853D01*
X120626670Y-112592722D01*
X120833000Y-112470201D01*
X120833000Y-111427000D01*
X121087000Y-111427000D01*
X121087000Y-112470201D01*
X121293330Y-112592722D01*
X121539123Y-112502853D01*
X121762660Y-112366759D01*
X121955351Y-112189670D01*
X122109792Y-111978392D01*
X122220047Y-111741044D01*
X122252716Y-111633329D01*
X122129374Y-111427000D01*
X121087000Y-111427000D01*
X120833000Y-111427000D01*
X119790626Y-111427000D01*
X119667284Y-111633329D01*
X110717002Y-111633329D01*
X110716600Y-110966671D01*
X119667284Y-110966671D01*
X119790626Y-111173000D01*
X120833000Y-111173000D01*
X120833000Y-110129799D01*
X121087000Y-110129799D01*
X121087000Y-111173000D01*
X122129374Y-111173000D01*
X122132055Y-111168514D01*
X124705000Y-111168514D01*
X124705000Y-111431486D01*
X124756304Y-111689405D01*
X124856939Y-111932359D01*
X125003038Y-112151013D01*
X125188987Y-112336962D01*
X125407641Y-112483061D01*
X125650595Y-112583696D01*
X125908514Y-112635000D01*
X126171486Y-112635000D01*
X126429405Y-112583696D01*
X126672359Y-112483061D01*
X126891013Y-112336962D01*
X127076962Y-112151013D01*
X127223061Y-111932359D01*
X127323696Y-111689405D01*
X127375000Y-111431486D01*
X127375000Y-111168514D01*
X127323696Y-110910595D01*
X127223061Y-110667641D01*
X127076962Y-110448987D01*
X126891013Y-110263038D01*
X126672359Y-110116939D01*
X126429405Y-110016304D01*
X126171486Y-109965000D01*
X125908514Y-109965000D01*
X125650595Y-110016304D01*
X125407641Y-110116939D01*
X125188987Y-110263038D01*
X125003038Y-110448987D01*
X124856939Y-110667641D01*
X124756304Y-110910595D01*
X124705000Y-111168514D01*
X122132055Y-111168514D01*
X122252716Y-110966671D01*
X122220047Y-110858956D01*
X122109792Y-110621608D01*
X121955351Y-110410330D01*
X121762660Y-110233241D01*
X121539123Y-110097147D01*
X121293330Y-110007278D01*
X121087000Y-110129799D01*
X120833000Y-110129799D01*
X120626670Y-110007278D01*
X120380877Y-110097147D01*
X120157340Y-110233241D01*
X119964649Y-110410330D01*
X119810208Y-110621608D01*
X119699953Y-110858956D01*
X119667284Y-110966671D01*
X110716600Y-110966671D01*
X110713060Y-105105599D01*
X138000000Y-105105599D01*
X138000000Y-105314401D01*
X138040735Y-105519191D01*
X138120640Y-105712098D01*
X138236644Y-105885711D01*
X138384289Y-106033356D01*
X138557902Y-106149360D01*
X138750809Y-106229265D01*
X138955599Y-106270000D01*
X139164401Y-106270000D01*
X139369191Y-106229265D01*
X139560000Y-106150229D01*
X139750809Y-106229265D01*
X139955599Y-106270000D01*
X140164401Y-106270000D01*
X140369191Y-106229265D01*
X140560000Y-106150229D01*
X140750809Y-106229265D01*
X140955599Y-106270000D01*
X141164401Y-106270000D01*
X141369191Y-106229265D01*
X141560000Y-106150229D01*
X141750809Y-106229265D01*
X141955599Y-106270000D01*
X142164401Y-106270000D01*
X142369191Y-106229265D01*
X142560000Y-106150229D01*
X142750809Y-106229265D01*
X142955599Y-106270000D01*
X143164401Y-106270000D01*
X143369191Y-106229265D01*
X143562098Y-106149360D01*
X143735711Y-106033356D01*
X143883356Y-105885711D01*
X143999360Y-105712098D01*
X144079265Y-105519191D01*
X144120000Y-105314401D01*
X144120000Y-105105599D01*
X144079265Y-104900809D01*
X144072138Y-104883603D01*
X144074502Y-104879180D01*
X144110812Y-104759482D01*
X144123072Y-104635000D01*
X144123072Y-103785000D01*
X144110812Y-103660518D01*
X144080320Y-103560000D01*
X145485199Y-103560000D01*
X147950000Y-106024803D01*
X147950001Y-119281928D01*
X147810000Y-119281928D01*
X147685518Y-119294188D01*
X147565820Y-119330498D01*
X147455506Y-119389463D01*
X147358815Y-119468815D01*
X147279463Y-119565506D01*
X147220498Y-119675820D01*
X147184188Y-119795518D01*
X147171928Y-119920000D01*
X147171928Y-121720000D01*
X147184188Y-121844482D01*
X147220498Y-121964180D01*
X147279463Y-122074494D01*
X147358815Y-122171185D01*
X147455506Y-122250537D01*
X147565820Y-122309502D01*
X147685518Y-122345812D01*
X147810000Y-122358072D01*
X149610000Y-122358072D01*
X149734482Y-122345812D01*
X149852276Y-122310080D01*
X150853199Y-123311003D01*
X150876997Y-123340001D01*
X150992722Y-123434974D01*
X151124751Y-123505546D01*
X151268012Y-123549003D01*
X151379665Y-123560000D01*
X151379675Y-123560000D01*
X151416998Y-123563676D01*
X151454321Y-123560000D01*
X157942025Y-123560000D01*
X157948987Y-123566962D01*
X158167641Y-123713061D01*
X158410595Y-123813696D01*
X158668514Y-123865000D01*
X158931486Y-123865000D01*
X159189405Y-123813696D01*
X159432359Y-123713061D01*
X159651013Y-123566962D01*
X159836962Y-123381013D01*
X159983061Y-123162359D01*
X160083696Y-122919405D01*
X160135000Y-122661486D01*
X160135000Y-122398514D01*
X160083696Y-122140595D01*
X159983061Y-121897641D01*
X159836962Y-121678987D01*
X159651013Y-121493038D01*
X159432359Y-121346939D01*
X159189405Y-121246304D01*
X158931486Y-121195000D01*
X158668514Y-121195000D01*
X158410595Y-121246304D01*
X158167641Y-121346939D01*
X157948987Y-121493038D01*
X157763038Y-121678987D01*
X157616939Y-121897641D01*
X157557972Y-122040000D01*
X152187067Y-122040000D01*
X152228505Y-122012312D01*
X152442312Y-121798505D01*
X152610299Y-121547095D01*
X152726011Y-121267743D01*
X152785000Y-120971184D01*
X152785000Y-120668816D01*
X152726011Y-120372257D01*
X152610299Y-120092905D01*
X152514813Y-119950000D01*
X164451928Y-119950000D01*
X164451928Y-121750000D01*
X164464188Y-121874482D01*
X164500498Y-121994180D01*
X164559463Y-122104494D01*
X164638815Y-122201185D01*
X164735506Y-122280537D01*
X164845820Y-122339502D01*
X164965518Y-122375812D01*
X165090000Y-122388072D01*
X166890000Y-122388072D01*
X167014482Y-122375812D01*
X167134180Y-122339502D01*
X167244494Y-122280537D01*
X167341185Y-122201185D01*
X167420537Y-122104494D01*
X167479502Y-121994180D01*
X167485056Y-121975873D01*
X167551495Y-122042312D01*
X167802905Y-122210299D01*
X168082257Y-122326011D01*
X168378816Y-122385000D01*
X168681184Y-122385000D01*
X168977743Y-122326011D01*
X169257095Y-122210299D01*
X169508505Y-122042312D01*
X169722312Y-121828505D01*
X169890299Y-121577095D01*
X170006011Y-121297743D01*
X170065000Y-121001184D01*
X170065000Y-120698816D01*
X170006011Y-120402257D01*
X169890299Y-120122905D01*
X169722312Y-119871495D01*
X169508505Y-119657688D01*
X169257095Y-119489701D01*
X168977743Y-119373989D01*
X168681184Y-119315000D01*
X168378816Y-119315000D01*
X168082257Y-119373989D01*
X167802905Y-119489701D01*
X167551495Y-119657688D01*
X167485056Y-119724127D01*
X167479502Y-119705820D01*
X167420537Y-119595506D01*
X167341185Y-119498815D01*
X167244494Y-119419463D01*
X167134180Y-119360498D01*
X167014482Y-119324188D01*
X166890000Y-119311928D01*
X165090000Y-119311928D01*
X164965518Y-119324188D01*
X164845820Y-119360498D01*
X164735506Y-119419463D01*
X164638815Y-119498815D01*
X164559463Y-119595506D01*
X164500498Y-119705820D01*
X164464188Y-119825518D01*
X164451928Y-119950000D01*
X152514813Y-119950000D01*
X152442312Y-119841495D01*
X152228505Y-119627688D01*
X151977095Y-119459701D01*
X151697743Y-119343989D01*
X151401184Y-119285000D01*
X151098816Y-119285000D01*
X150802257Y-119343989D01*
X150522905Y-119459701D01*
X150271495Y-119627688D01*
X150205056Y-119694127D01*
X150199502Y-119675820D01*
X150140537Y-119565506D01*
X150061185Y-119468815D01*
X149964494Y-119389463D01*
X149854180Y-119330498D01*
X149734482Y-119294188D01*
X149610000Y-119281928D01*
X149470000Y-119281928D01*
X149470000Y-116743329D01*
X155397284Y-116743329D01*
X155429953Y-116851044D01*
X155540208Y-117088392D01*
X155694649Y-117299670D01*
X155887340Y-117476759D01*
X156110877Y-117612853D01*
X156356670Y-117702722D01*
X156563000Y-117580201D01*
X156563000Y-116537000D01*
X156817000Y-116537000D01*
X156817000Y-117580201D01*
X157023330Y-117702722D01*
X157269123Y-117612853D01*
X157492660Y-117476759D01*
X157685351Y-117299670D01*
X157839792Y-117088392D01*
X157950047Y-116851044D01*
X157982716Y-116743329D01*
X157859374Y-116537000D01*
X156817000Y-116537000D01*
X156563000Y-116537000D01*
X155520626Y-116537000D01*
X155397284Y-116743329D01*
X149470000Y-116743329D01*
X149470000Y-116076671D01*
X155397284Y-116076671D01*
X155520626Y-116283000D01*
X156563000Y-116283000D01*
X156563000Y-115239799D01*
X156817000Y-115239799D01*
X156817000Y-116283000D01*
X157859374Y-116283000D01*
X157862055Y-116278514D01*
X160435000Y-116278514D01*
X160435000Y-116541486D01*
X160486304Y-116799405D01*
X160586939Y-117042359D01*
X160733038Y-117261013D01*
X160918987Y-117446962D01*
X161137641Y-117593061D01*
X161380595Y-117693696D01*
X161638514Y-117745000D01*
X161901486Y-117745000D01*
X162159405Y-117693696D01*
X162402359Y-117593061D01*
X162621013Y-117446962D01*
X162806962Y-117261013D01*
X162953061Y-117042359D01*
X163053696Y-116799405D01*
X163105000Y-116541486D01*
X163105000Y-116278514D01*
X163053696Y-116020595D01*
X162953061Y-115777641D01*
X162806962Y-115558987D01*
X162621013Y-115373038D01*
X162402359Y-115226939D01*
X162159405Y-115126304D01*
X161901486Y-115075000D01*
X161638514Y-115075000D01*
X161380595Y-115126304D01*
X161137641Y-115226939D01*
X160918987Y-115373038D01*
X160733038Y-115558987D01*
X160586939Y-115777641D01*
X160486304Y-116020595D01*
X160435000Y-116278514D01*
X157862055Y-116278514D01*
X157982716Y-116076671D01*
X157950047Y-115968956D01*
X157839792Y-115731608D01*
X157685351Y-115520330D01*
X157492660Y-115343241D01*
X157269123Y-115207147D01*
X157023330Y-115117278D01*
X156817000Y-115239799D01*
X156563000Y-115239799D01*
X156356670Y-115117278D01*
X156110877Y-115207147D01*
X155887340Y-115343241D01*
X155694649Y-115520330D01*
X155540208Y-115731608D01*
X155429953Y-115968956D01*
X155397284Y-116076671D01*
X149470000Y-116076671D01*
X149470000Y-110938514D01*
X155555000Y-110938514D01*
X155555000Y-111201486D01*
X155606304Y-111459405D01*
X155706939Y-111702359D01*
X155853038Y-111921013D01*
X156038987Y-112106962D01*
X156257641Y-112253061D01*
X156500595Y-112353696D01*
X156758514Y-112405000D01*
X157021486Y-112405000D01*
X157279405Y-112353696D01*
X157522359Y-112253061D01*
X157741013Y-112106962D01*
X157926962Y-111921013D01*
X158073061Y-111702359D01*
X158173696Y-111459405D01*
X158184850Y-111403329D01*
X160677284Y-111403329D01*
X160709953Y-111511044D01*
X160820208Y-111748392D01*
X160974649Y-111959670D01*
X161167340Y-112136759D01*
X161390877Y-112272853D01*
X161636670Y-112362722D01*
X161843000Y-112240201D01*
X161843000Y-111197000D01*
X162097000Y-111197000D01*
X162097000Y-112240201D01*
X162303330Y-112362722D01*
X162549123Y-112272853D01*
X162772660Y-112136759D01*
X162965351Y-111959670D01*
X163119792Y-111748392D01*
X163230047Y-111511044D01*
X163262716Y-111403329D01*
X163139374Y-111197000D01*
X162097000Y-111197000D01*
X161843000Y-111197000D01*
X160800626Y-111197000D01*
X160677284Y-111403329D01*
X158184850Y-111403329D01*
X158225000Y-111201486D01*
X158225000Y-110938514D01*
X158184851Y-110736671D01*
X160677284Y-110736671D01*
X160800626Y-110943000D01*
X161843000Y-110943000D01*
X161843000Y-109899799D01*
X162097000Y-109899799D01*
X162097000Y-110943000D01*
X163139374Y-110943000D01*
X163262716Y-110736671D01*
X163230047Y-110628956D01*
X163119792Y-110391608D01*
X162965351Y-110180330D01*
X162772660Y-110003241D01*
X162549123Y-109867147D01*
X162303330Y-109777278D01*
X162097000Y-109899799D01*
X161843000Y-109899799D01*
X161636670Y-109777278D01*
X161390877Y-109867147D01*
X161167340Y-110003241D01*
X160974649Y-110180330D01*
X160820208Y-110391608D01*
X160709953Y-110628956D01*
X160677284Y-110736671D01*
X158184851Y-110736671D01*
X158173696Y-110680595D01*
X158073061Y-110437641D01*
X157926962Y-110218987D01*
X157741013Y-110033038D01*
X157522359Y-109886939D01*
X157279405Y-109786304D01*
X157021486Y-109735000D01*
X156758514Y-109735000D01*
X156500595Y-109786304D01*
X156257641Y-109886939D01*
X156038987Y-110033038D01*
X155853038Y-110218987D01*
X155706939Y-110437641D01*
X155606304Y-110680595D01*
X155555000Y-110938514D01*
X149470000Y-110938514D01*
X149470000Y-105747322D01*
X149473676Y-105709999D01*
X149470000Y-105672676D01*
X149470000Y-105672667D01*
X149459003Y-105561014D01*
X149415546Y-105417753D01*
X149344974Y-105285724D01*
X149298865Y-105229540D01*
X149273799Y-105198996D01*
X149273795Y-105198992D01*
X149250001Y-105169999D01*
X149221009Y-105146206D01*
X146363804Y-102289003D01*
X146340001Y-102259999D01*
X146224276Y-102165026D01*
X146092247Y-102094454D01*
X145948986Y-102050997D01*
X145837333Y-102040000D01*
X145837322Y-102040000D01*
X145800000Y-102036324D01*
X145762678Y-102040000D01*
X143289600Y-102040000D01*
X143193988Y-102010997D01*
X143082335Y-102000000D01*
X143082324Y-102000000D01*
X143045002Y-101996324D01*
X143007680Y-102000000D01*
X140946285Y-102000000D01*
X140908960Y-101996324D01*
X140871635Y-102000000D01*
X140871627Y-102000000D01*
X140759974Y-102010997D01*
X140616713Y-102054454D01*
X140484684Y-102125026D01*
X140368959Y-102219999D01*
X140345161Y-102248997D01*
X139548998Y-103045161D01*
X139520000Y-103068959D01*
X139496202Y-103097957D01*
X139496201Y-103097958D01*
X139425026Y-103184684D01*
X139410394Y-103212058D01*
X139385250Y-103201128D01*
X139350062Y-103190460D01*
X139187000Y-103317743D01*
X139187000Y-103608587D01*
X139120640Y-103707902D01*
X139040735Y-103900809D01*
X139000000Y-104105599D01*
X139000000Y-104150000D01*
X138955599Y-104150000D01*
X138750809Y-104190735D01*
X138557902Y-104270640D01*
X138458587Y-104337000D01*
X138166379Y-104337000D01*
X138040453Y-104500064D01*
X138116632Y-104693394D01*
X138123353Y-104703841D01*
X138120640Y-104707902D01*
X138040735Y-104900809D01*
X138000000Y-105105599D01*
X110713060Y-105105599D01*
X110712344Y-103919936D01*
X138040453Y-103919936D01*
X138166379Y-104083000D01*
X138933000Y-104083000D01*
X138933000Y-103317743D01*
X138769938Y-103190460D01*
X138734750Y-103201128D01*
X138544178Y-103283966D01*
X138373429Y-103402391D01*
X138229064Y-103551852D01*
X138116632Y-103726606D01*
X138040453Y-103919936D01*
X110712344Y-103919936D01*
X110710399Y-100700542D01*
X170330599Y-100749459D01*
%TA.AperFunction,Conductor*%
D21*
G36*
X170330599Y-100749459D02*
G01*
X170356648Y-129402925D01*
X170318397Y-129134093D01*
X170218222Y-128848801D01*
X170138261Y-128699208D01*
X169884080Y-128615525D01*
X168999605Y-129500000D01*
X169884080Y-130384475D01*
X170138261Y-130300792D01*
X170269158Y-130028225D01*
X170344365Y-129735358D01*
X170356746Y-129510533D01*
X170359401Y-132430782D01*
X110729601Y-132499243D01*
X110727307Y-128700000D01*
X111431928Y-128700000D01*
X111431928Y-130500000D01*
X111444188Y-130624482D01*
X111480498Y-130744180D01*
X111539463Y-130854494D01*
X111618815Y-130951185D01*
X111715506Y-131030537D01*
X111825820Y-131089502D01*
X111945518Y-131125812D01*
X112070000Y-131138072D01*
X113870000Y-131138072D01*
X113994482Y-131125812D01*
X114114180Y-131089502D01*
X114224494Y-131030537D01*
X114321185Y-130951185D01*
X114400537Y-130854494D01*
X114459502Y-130744180D01*
X114462813Y-130733265D01*
X114509578Y-130780030D01*
X114625526Y-130664082D01*
X114709208Y-130918261D01*
X114981775Y-131049158D01*
X115274642Y-131124365D01*
X115576553Y-131140991D01*
X115875907Y-131098397D01*
X116161199Y-130998222D01*
X116310792Y-130918261D01*
X116394475Y-130664080D01*
X115510000Y-129779605D01*
X115495858Y-129793748D01*
X115316253Y-129614143D01*
X115330395Y-129600000D01*
X115689605Y-129600000D01*
X116574080Y-130484475D01*
X116828261Y-130400792D01*
X116959158Y-130128225D01*
X116984763Y-130028514D01*
X119755000Y-130028514D01*
X119755000Y-130291486D01*
X119806304Y-130549405D01*
X119906939Y-130792359D01*
X120053038Y-131011013D01*
X120238987Y-131196962D01*
X120457641Y-131343061D01*
X120700595Y-131443696D01*
X120958514Y-131495000D01*
X121221486Y-131495000D01*
X121479405Y-131443696D01*
X121722359Y-131343061D01*
X121941013Y-131196962D01*
X122126962Y-131011013D01*
X122273061Y-130792359D01*
X122373696Y-130549405D01*
X122425000Y-130291486D01*
X122425000Y-130028514D01*
X124835000Y-130028514D01*
X124835000Y-130291486D01*
X124886304Y-130549405D01*
X124986939Y-130792359D01*
X125133038Y-131011013D01*
X125318987Y-131196962D01*
X125537641Y-131343061D01*
X125780595Y-131443696D01*
X126038514Y-131495000D01*
X126301486Y-131495000D01*
X126559405Y-131443696D01*
X126802359Y-131343061D01*
X127021013Y-131196962D01*
X127206962Y-131011013D01*
X127353061Y-130792359D01*
X127453696Y-130549405D01*
X127505000Y-130291486D01*
X127505000Y-130028514D01*
X127453696Y-129770595D01*
X127353061Y-129527641D01*
X127206962Y-129308987D01*
X127021013Y-129123038D01*
X126802359Y-128976939D01*
X126559405Y-128876304D01*
X126301486Y-128825000D01*
X126038514Y-128825000D01*
X125780595Y-128876304D01*
X125537641Y-128976939D01*
X125318987Y-129123038D01*
X125133038Y-129308987D01*
X124986939Y-129527641D01*
X124886304Y-129770595D01*
X124835000Y-130028514D01*
X122425000Y-130028514D01*
X122373696Y-129770595D01*
X122273061Y-129527641D01*
X122126962Y-129308987D01*
X121941013Y-129123038D01*
X121722359Y-128976939D01*
X121479405Y-128876304D01*
X121221486Y-128825000D01*
X120958514Y-128825000D01*
X120700595Y-128876304D01*
X120457641Y-128976939D01*
X120238987Y-129123038D01*
X120053038Y-129308987D01*
X119906939Y-129527641D01*
X119806304Y-129770595D01*
X119755000Y-130028514D01*
X116984763Y-130028514D01*
X117034365Y-129835358D01*
X117050991Y-129533447D01*
X117008397Y-129234093D01*
X116908222Y-128948801D01*
X116828261Y-128799208D01*
X116574080Y-128715525D01*
X115689605Y-129600000D01*
X115330395Y-129600000D01*
X115316253Y-129585858D01*
X115495858Y-129406253D01*
X115510000Y-129420395D01*
X116260395Y-128670000D01*
X129081928Y-128670000D01*
X129081928Y-130470000D01*
X129094188Y-130594482D01*
X129130498Y-130714180D01*
X129189463Y-130824494D01*
X129268815Y-130921185D01*
X129365506Y-131000537D01*
X129475820Y-131059502D01*
X129595518Y-131095812D01*
X129720000Y-131108072D01*
X131520000Y-131108072D01*
X131644482Y-131095812D01*
X131764180Y-131059502D01*
X131874494Y-131000537D01*
X131971185Y-130921185D01*
X132050537Y-130824494D01*
X132109502Y-130714180D01*
X132112813Y-130703265D01*
X132159578Y-130750030D01*
X132275526Y-130634082D01*
X132359208Y-130888261D01*
X132631775Y-131019158D01*
X132924642Y-131094365D01*
X133226553Y-131110991D01*
X133525907Y-131068397D01*
X133811199Y-130968222D01*
X133960792Y-130888261D01*
X134044475Y-130634080D01*
X133160000Y-129749605D01*
X133145858Y-129763748D01*
X132966253Y-129584143D01*
X132980395Y-129570000D01*
X133339605Y-129570000D01*
X134224080Y-130454475D01*
X134478261Y-130370792D01*
X134609158Y-130098225D01*
X134684365Y-129805358D01*
X134700991Y-129503447D01*
X134658397Y-129204093D01*
X134558222Y-128918801D01*
X134478261Y-128769208D01*
X134224080Y-128685525D01*
X133339605Y-129570000D01*
X132980395Y-129570000D01*
X132966253Y-129555858D01*
X133145858Y-129376253D01*
X133160000Y-129390395D01*
X134044475Y-128505920D01*
X133960792Y-128251739D01*
X133688225Y-128120842D01*
X133395358Y-128045635D01*
X133093447Y-128029009D01*
X132794093Y-128071603D01*
X132508801Y-128171778D01*
X132359208Y-128251739D01*
X132275526Y-128505918D01*
X132159578Y-128389970D01*
X132112813Y-128436735D01*
X132109502Y-128425820D01*
X132050537Y-128315506D01*
X131971185Y-128218815D01*
X131874494Y-128139463D01*
X131764180Y-128080498D01*
X131644482Y-128044188D01*
X131520000Y-128031928D01*
X129720000Y-128031928D01*
X129595518Y-128044188D01*
X129475820Y-128080498D01*
X129365506Y-128139463D01*
X129268815Y-128218815D01*
X129189463Y-128315506D01*
X129130498Y-128425820D01*
X129094188Y-128545518D01*
X129081928Y-128670000D01*
X116260395Y-128670000D01*
X116394475Y-128535920D01*
X116310792Y-128281739D01*
X116038225Y-128150842D01*
X115745358Y-128075635D01*
X115443447Y-128059009D01*
X115144093Y-128101603D01*
X114858801Y-128201778D01*
X114709208Y-128281739D01*
X114625526Y-128535918D01*
X114509578Y-128419970D01*
X114462813Y-128466735D01*
X114459502Y-128455820D01*
X114400537Y-128345506D01*
X114321185Y-128248815D01*
X114224494Y-128169463D01*
X114114180Y-128110498D01*
X113994482Y-128074188D01*
X113870000Y-128061928D01*
X112070000Y-128061928D01*
X111945518Y-128074188D01*
X111825820Y-128110498D01*
X111715506Y-128169463D01*
X111618815Y-128248815D01*
X111539463Y-128345506D01*
X111480498Y-128455820D01*
X111444188Y-128575518D01*
X111431928Y-128700000D01*
X110727307Y-128700000D01*
X110726150Y-126783330D01*
X122037278Y-126783330D01*
X122127147Y-127029123D01*
X122263241Y-127252660D01*
X122440330Y-127445351D01*
X122651608Y-127599792D01*
X122888956Y-127710047D01*
X122996671Y-127742716D01*
X123203000Y-127619374D01*
X123203000Y-126577000D01*
X123457000Y-126577000D01*
X123457000Y-127619374D01*
X123663329Y-127742716D01*
X123771044Y-127710047D01*
X124008392Y-127599792D01*
X124219670Y-127445351D01*
X124396759Y-127252660D01*
X124532853Y-127029123D01*
X124622722Y-126783330D01*
X124500201Y-126577000D01*
X123457000Y-126577000D01*
X123203000Y-126577000D01*
X122159799Y-126577000D01*
X122037278Y-126783330D01*
X110726150Y-126783330D01*
X110725748Y-126116670D01*
X122037278Y-126116670D01*
X122159799Y-126323000D01*
X123203000Y-126323000D01*
X123203000Y-125280626D01*
X123457000Y-125280626D01*
X123457000Y-126323000D01*
X124500201Y-126323000D01*
X124622722Y-126116670D01*
X124532853Y-125870877D01*
X124396759Y-125647340D01*
X124219670Y-125454649D01*
X124008392Y-125300208D01*
X123771044Y-125189953D01*
X123663329Y-125157284D01*
X123457000Y-125280626D01*
X123203000Y-125280626D01*
X122996671Y-125157284D01*
X122888956Y-125189953D01*
X122651608Y-125300208D01*
X122440330Y-125454649D01*
X122263241Y-125647340D01*
X122127147Y-125870877D01*
X122037278Y-126116670D01*
X110725748Y-126116670D01*
X110721945Y-119820000D01*
X111931928Y-119820000D01*
X111931928Y-121620000D01*
X111944188Y-121744482D01*
X111980498Y-121864180D01*
X112039463Y-121974494D01*
X112118815Y-122071185D01*
X112215506Y-122150537D01*
X112325820Y-122209502D01*
X112445518Y-122245812D01*
X112570000Y-122258072D01*
X114370000Y-122258072D01*
X114494482Y-122245812D01*
X114614180Y-122209502D01*
X114724494Y-122150537D01*
X114821185Y-122071185D01*
X114900537Y-121974494D01*
X114959502Y-121864180D01*
X114965056Y-121845873D01*
X115031495Y-121912312D01*
X115282905Y-122080299D01*
X115562257Y-122196011D01*
X115858816Y-122255000D01*
X116161184Y-122255000D01*
X116457743Y-122196011D01*
X116737095Y-122080299D01*
X116988505Y-121912312D01*
X117202312Y-121698505D01*
X117370299Y-121447095D01*
X117456696Y-121238514D01*
X121995000Y-121238514D01*
X121995000Y-121501486D01*
X122046304Y-121759405D01*
X122146939Y-122002359D01*
X122293038Y-122221013D01*
X122478987Y-122406962D01*
X122697641Y-122553061D01*
X122940595Y-122653696D01*
X123198514Y-122705000D01*
X123461486Y-122705000D01*
X123719405Y-122653696D01*
X123962359Y-122553061D01*
X124181013Y-122406962D01*
X124366962Y-122221013D01*
X124513061Y-122002359D01*
X124613696Y-121759405D01*
X124665000Y-121501486D01*
X124665000Y-121238514D01*
X124613696Y-120980595D01*
X124513061Y-120737641D01*
X124366962Y-120518987D01*
X124181013Y-120333038D01*
X123962359Y-120186939D01*
X123719405Y-120086304D01*
X123461486Y-120035000D01*
X123198514Y-120035000D01*
X122940595Y-120086304D01*
X122697641Y-120186939D01*
X122478987Y-120333038D01*
X122293038Y-120518987D01*
X122146939Y-120737641D01*
X122046304Y-120980595D01*
X121995000Y-121238514D01*
X117456696Y-121238514D01*
X117486011Y-121167743D01*
X117545000Y-120871184D01*
X117545000Y-120568816D01*
X117486011Y-120272257D01*
X117370299Y-119992905D01*
X117281495Y-119860000D01*
X128851928Y-119860000D01*
X128851928Y-121660000D01*
X128864188Y-121784482D01*
X128900498Y-121904180D01*
X128959463Y-122014494D01*
X129038815Y-122111185D01*
X129135506Y-122190537D01*
X129245820Y-122249502D01*
X129365518Y-122285812D01*
X129490000Y-122298072D01*
X130050140Y-122298072D01*
X129869744Y-122372795D01*
X129700226Y-122486063D01*
X129556063Y-122630226D01*
X129442795Y-122799744D01*
X129364774Y-122988102D01*
X129325000Y-123188061D01*
X129325000Y-123391939D01*
X129364774Y-123591898D01*
X129442795Y-123780256D01*
X129556063Y-123949774D01*
X129700226Y-124093937D01*
X129869744Y-124207205D01*
X130058102Y-124285226D01*
X130258061Y-124325000D01*
X130320198Y-124325000D01*
X130856205Y-124861008D01*
X130879999Y-124890001D01*
X130908992Y-124913795D01*
X130908996Y-124913799D01*
X130979685Y-124971811D01*
X130995724Y-124984974D01*
X131127753Y-125055546D01*
X131271014Y-125099003D01*
X131382667Y-125110000D01*
X131382676Y-125110000D01*
X131419999Y-125113676D01*
X131457322Y-125110000D01*
X135622678Y-125110000D01*
X135660000Y-125113676D01*
X135697322Y-125110000D01*
X135697333Y-125110000D01*
X135778199Y-125102035D01*
X135755000Y-125218665D01*
X135755000Y-125501335D01*
X135810147Y-125778574D01*
X135918320Y-126039727D01*
X136075363Y-126274759D01*
X136275241Y-126474637D01*
X136507759Y-126630000D01*
X136275241Y-126785363D01*
X136075363Y-126985241D01*
X135918320Y-127220273D01*
X135810147Y-127481426D01*
X135755000Y-127758665D01*
X135755000Y-128041335D01*
X135810147Y-128318574D01*
X135918320Y-128579727D01*
X136075363Y-128814759D01*
X136275241Y-129014637D01*
X136507759Y-129170000D01*
X136275241Y-129325363D01*
X136075363Y-129525241D01*
X135918320Y-129760273D01*
X135810147Y-130021426D01*
X135755000Y-130298665D01*
X135755000Y-130581335D01*
X135810147Y-130858574D01*
X135918320Y-131119727D01*
X136075363Y-131354759D01*
X136275241Y-131554637D01*
X136510273Y-131711680D01*
X136771426Y-131819853D01*
X137048665Y-131875000D01*
X137331335Y-131875000D01*
X137608574Y-131819853D01*
X137869727Y-131711680D01*
X138104759Y-131554637D01*
X138304637Y-131354759D01*
X138461680Y-131119727D01*
X138569853Y-130858574D01*
X138625000Y-130581335D01*
X138625000Y-130298665D01*
X138569853Y-130021426D01*
X138461680Y-129760273D01*
X138304637Y-129525241D01*
X138104759Y-129325363D01*
X137872241Y-129170000D01*
X138104759Y-129014637D01*
X138304637Y-128814759D01*
X138461680Y-128579727D01*
X138569853Y-128318574D01*
X138625000Y-128041335D01*
X138625000Y-127758665D01*
X138569853Y-127481426D01*
X138461680Y-127220273D01*
X138304637Y-126985241D01*
X138104759Y-126785363D01*
X137872241Y-126630000D01*
X138104759Y-126474637D01*
X138304637Y-126274759D01*
X138461680Y-126039727D01*
X138569853Y-125778574D01*
X138625000Y-125501335D01*
X138625000Y-125218665D01*
X143375000Y-125218665D01*
X143375000Y-125501335D01*
X143430147Y-125778574D01*
X143538320Y-126039727D01*
X143695363Y-126274759D01*
X143895241Y-126474637D01*
X144127759Y-126630000D01*
X143895241Y-126785363D01*
X143695363Y-126985241D01*
X143538320Y-127220273D01*
X143430147Y-127481426D01*
X143375000Y-127758665D01*
X143375000Y-128041335D01*
X143430147Y-128318574D01*
X143538320Y-128579727D01*
X143695363Y-128814759D01*
X143895241Y-129014637D01*
X144127759Y-129170000D01*
X143895241Y-129325363D01*
X143695363Y-129525241D01*
X143538320Y-129760273D01*
X143430147Y-130021426D01*
X143375000Y-130298665D01*
X143375000Y-130581335D01*
X143430147Y-130858574D01*
X143538320Y-131119727D01*
X143695363Y-131354759D01*
X143895241Y-131554637D01*
X144130273Y-131711680D01*
X144391426Y-131819853D01*
X144668665Y-131875000D01*
X144951335Y-131875000D01*
X145228574Y-131819853D01*
X145489727Y-131711680D01*
X145724759Y-131554637D01*
X145924637Y-131354759D01*
X146081680Y-131119727D01*
X146189853Y-130858574D01*
X146245000Y-130581335D01*
X146245000Y-130298665D01*
X146189853Y-130021426D01*
X146081680Y-129760273D01*
X145924637Y-129525241D01*
X145724759Y-129325363D01*
X145492241Y-129170000D01*
X145724759Y-129014637D01*
X145924637Y-128814759D01*
X146041406Y-128640000D01*
X146931928Y-128640000D01*
X146931928Y-130440000D01*
X146944188Y-130564482D01*
X146980498Y-130684180D01*
X147039463Y-130794494D01*
X147118815Y-130891185D01*
X147215506Y-130970537D01*
X147325820Y-131029502D01*
X147445518Y-131065812D01*
X147570000Y-131078072D01*
X149370000Y-131078072D01*
X149494482Y-131065812D01*
X149614180Y-131029502D01*
X149724494Y-130970537D01*
X149821185Y-130891185D01*
X149900537Y-130794494D01*
X149959502Y-130684180D01*
X149962813Y-130673265D01*
X150009578Y-130720030D01*
X150125526Y-130604082D01*
X150209208Y-130858261D01*
X150481775Y-130989158D01*
X150774642Y-131064365D01*
X151076553Y-131080991D01*
X151375907Y-131038397D01*
X151661199Y-130938222D01*
X151810792Y-130858261D01*
X151894475Y-130604080D01*
X151858909Y-130568514D01*
X154885000Y-130568514D01*
X154885000Y-130831486D01*
X154936304Y-131089405D01*
X155036939Y-131332359D01*
X155183038Y-131551013D01*
X155368987Y-131736962D01*
X155587641Y-131883061D01*
X155830595Y-131983696D01*
X156088514Y-132035000D01*
X156351486Y-132035000D01*
X156609405Y-131983696D01*
X156852359Y-131883061D01*
X157071013Y-131736962D01*
X157256962Y-131551013D01*
X157403061Y-131332359D01*
X157503696Y-131089405D01*
X157555000Y-130831486D01*
X157555000Y-130568514D01*
X159965000Y-130568514D01*
X159965000Y-130831486D01*
X160016304Y-131089405D01*
X160116939Y-131332359D01*
X160263038Y-131551013D01*
X160448987Y-131736962D01*
X160667641Y-131883061D01*
X160910595Y-131983696D01*
X161168514Y-132035000D01*
X161431486Y-132035000D01*
X161689405Y-131983696D01*
X161932359Y-131883061D01*
X162151013Y-131736962D01*
X162336962Y-131551013D01*
X162483061Y-131332359D01*
X162583696Y-131089405D01*
X162635000Y-130831486D01*
X162635000Y-130568514D01*
X162583696Y-130310595D01*
X162483061Y-130067641D01*
X162336962Y-129848987D01*
X162151013Y-129663038D01*
X161932359Y-129516939D01*
X161689405Y-129416304D01*
X161431486Y-129365000D01*
X161168514Y-129365000D01*
X160910595Y-129416304D01*
X160667641Y-129516939D01*
X160448987Y-129663038D01*
X160263038Y-129848987D01*
X160116939Y-130067641D01*
X160016304Y-130310595D01*
X159965000Y-130568514D01*
X157555000Y-130568514D01*
X157503696Y-130310595D01*
X157403061Y-130067641D01*
X157256962Y-129848987D01*
X157071013Y-129663038D01*
X156852359Y-129516939D01*
X156609405Y-129416304D01*
X156351486Y-129365000D01*
X156088514Y-129365000D01*
X155830595Y-129416304D01*
X155587641Y-129516939D01*
X155368987Y-129663038D01*
X155183038Y-129848987D01*
X155036939Y-130067641D01*
X154936304Y-130310595D01*
X154885000Y-130568514D01*
X151858909Y-130568514D01*
X151010000Y-129719605D01*
X150995858Y-129733748D01*
X150816253Y-129554143D01*
X150830395Y-129540000D01*
X151189605Y-129540000D01*
X152074080Y-130424475D01*
X152328261Y-130340792D01*
X152459158Y-130068225D01*
X152534365Y-129775358D01*
X152550991Y-129473447D01*
X152508397Y-129174093D01*
X152408222Y-128888801D01*
X152328261Y-128739208D01*
X152074080Y-128655525D01*
X151189605Y-129540000D01*
X150830395Y-129540000D01*
X150816253Y-129525858D01*
X150995858Y-129346253D01*
X151010000Y-129360395D01*
X151894475Y-128475920D01*
X151810792Y-128221739D01*
X151538225Y-128090842D01*
X151245358Y-128015635D01*
X150943447Y-127999009D01*
X150644093Y-128041603D01*
X150358801Y-128141778D01*
X150209208Y-128221739D01*
X150125526Y-128475918D01*
X150009578Y-128359970D01*
X149962813Y-128406735D01*
X149959502Y-128395820D01*
X149900537Y-128285506D01*
X149821185Y-128188815D01*
X149724494Y-128109463D01*
X149614180Y-128050498D01*
X149494482Y-128014188D01*
X149370000Y-128001928D01*
X147570000Y-128001928D01*
X147445518Y-128014188D01*
X147325820Y-128050498D01*
X147215506Y-128109463D01*
X147118815Y-128188815D01*
X147039463Y-128285506D01*
X146980498Y-128395820D01*
X146944188Y-128515518D01*
X146931928Y-128640000D01*
X146041406Y-128640000D01*
X146081680Y-128579727D01*
X146189853Y-128318574D01*
X146245000Y-128041335D01*
X146245000Y-127758665D01*
X146189853Y-127481426D01*
X146188647Y-127478514D01*
X157465000Y-127478514D01*
X157465000Y-127741486D01*
X157516304Y-127999405D01*
X157616939Y-128242359D01*
X157763038Y-128461013D01*
X157948987Y-128646962D01*
X158167641Y-128793061D01*
X158410595Y-128893696D01*
X158668514Y-128945000D01*
X158931486Y-128945000D01*
X159189405Y-128893696D01*
X159432359Y-128793061D01*
X159651013Y-128646962D01*
X159697975Y-128600000D01*
X164741928Y-128600000D01*
X164741928Y-130400000D01*
X164754188Y-130524482D01*
X164790498Y-130644180D01*
X164849463Y-130754494D01*
X164928815Y-130851185D01*
X165025506Y-130930537D01*
X165135820Y-130989502D01*
X165255518Y-131025812D01*
X165380000Y-131038072D01*
X167180000Y-131038072D01*
X167304482Y-131025812D01*
X167424180Y-130989502D01*
X167534494Y-130930537D01*
X167631185Y-130851185D01*
X167710537Y-130754494D01*
X167769502Y-130644180D01*
X167772813Y-130633265D01*
X167819578Y-130680030D01*
X167935526Y-130564082D01*
X168019208Y-130818261D01*
X168291775Y-130949158D01*
X168584642Y-131024365D01*
X168886553Y-131040991D01*
X169185907Y-130998397D01*
X169471199Y-130898222D01*
X169620792Y-130818261D01*
X169704475Y-130564080D01*
X168820000Y-129679605D01*
X168805858Y-129693748D01*
X168626253Y-129514143D01*
X168640395Y-129500000D01*
X168626253Y-129485858D01*
X168805858Y-129306253D01*
X168820000Y-129320395D01*
X169704475Y-128435920D01*
X169620792Y-128181739D01*
X169348225Y-128050842D01*
X169055358Y-127975635D01*
X168753447Y-127959009D01*
X168454093Y-128001603D01*
X168168801Y-128101778D01*
X168019208Y-128181739D01*
X167935526Y-128435918D01*
X167819578Y-128319970D01*
X167772813Y-128366735D01*
X167769502Y-128355820D01*
X167710537Y-128245506D01*
X167631185Y-128148815D01*
X167534494Y-128069463D01*
X167424180Y-128010498D01*
X167304482Y-127974188D01*
X167180000Y-127961928D01*
X165380000Y-127961928D01*
X165255518Y-127974188D01*
X165135820Y-128010498D01*
X165025506Y-128069463D01*
X164928815Y-128148815D01*
X164849463Y-128245506D01*
X164790498Y-128355820D01*
X164754188Y-128475518D01*
X164741928Y-128600000D01*
X159697975Y-128600000D01*
X159836962Y-128461013D01*
X159983061Y-128242359D01*
X160083696Y-127999405D01*
X160135000Y-127741486D01*
X160135000Y-127478514D01*
X160083696Y-127220595D01*
X159983061Y-126977641D01*
X159836962Y-126758987D01*
X159651013Y-126573038D01*
X159432359Y-126426939D01*
X159189405Y-126326304D01*
X158931486Y-126275000D01*
X158668514Y-126275000D01*
X158410595Y-126326304D01*
X158167641Y-126426939D01*
X157948987Y-126573038D01*
X157763038Y-126758987D01*
X157616939Y-126977641D01*
X157516304Y-127220595D01*
X157465000Y-127478514D01*
X146188647Y-127478514D01*
X146081680Y-127220273D01*
X145924637Y-126985241D01*
X145724759Y-126785363D01*
X145492241Y-126630000D01*
X145724759Y-126474637D01*
X145924637Y-126274759D01*
X146081680Y-126039727D01*
X146189853Y-125778574D01*
X146245000Y-125501335D01*
X146245000Y-125218665D01*
X146189853Y-124941426D01*
X146081680Y-124680273D01*
X145924637Y-124445241D01*
X145724759Y-124245363D01*
X145489727Y-124088320D01*
X145479135Y-124083933D01*
X145665131Y-123972385D01*
X145873519Y-123783414D01*
X146041037Y-123557420D01*
X146161246Y-123303087D01*
X146201904Y-123169039D01*
X146079915Y-122947000D01*
X144937000Y-122947000D01*
X144937000Y-122967000D01*
X144683000Y-122967000D01*
X144683000Y-122947000D01*
X143540085Y-122947000D01*
X143418096Y-123169039D01*
X143458754Y-123303087D01*
X143578963Y-123557420D01*
X143746481Y-123783414D01*
X143954869Y-123972385D01*
X144140865Y-124083933D01*
X144130273Y-124088320D01*
X143895241Y-124245363D01*
X143695363Y-124445241D01*
X143538320Y-124680273D01*
X143430147Y-124941426D01*
X143375000Y-125218665D01*
X138625000Y-125218665D01*
X138569853Y-124941426D01*
X138461680Y-124680273D01*
X138304637Y-124445241D01*
X138104759Y-124245363D01*
X137872241Y-124090000D01*
X138104759Y-123934637D01*
X138304637Y-123734759D01*
X138461680Y-123499727D01*
X138569853Y-123238574D01*
X138625000Y-122961335D01*
X138625000Y-122678665D01*
X138569853Y-122401426D01*
X138461680Y-122140273D01*
X138304637Y-121905241D01*
X138104759Y-121705363D01*
X137872241Y-121550000D01*
X138104759Y-121394637D01*
X138304637Y-121194759D01*
X138461680Y-120959727D01*
X138569853Y-120698574D01*
X138625000Y-120421335D01*
X138625000Y-120138665D01*
X138569853Y-119861426D01*
X138461680Y-119600273D01*
X138304637Y-119365241D01*
X138104759Y-119165363D01*
X137872241Y-119010000D01*
X138104759Y-118854637D01*
X138304637Y-118654759D01*
X138461680Y-118419727D01*
X138569853Y-118158574D01*
X138625000Y-117881335D01*
X138625000Y-117598665D01*
X138569853Y-117321426D01*
X138461680Y-117060273D01*
X138304637Y-116825241D01*
X138106039Y-116626643D01*
X138114482Y-116625812D01*
X138234180Y-116589502D01*
X138344494Y-116530537D01*
X138441185Y-116451185D01*
X138520537Y-116354494D01*
X138579502Y-116244180D01*
X138615812Y-116124482D01*
X138628072Y-116000000D01*
X138628072Y-115058665D01*
X143375000Y-115058665D01*
X143375000Y-115341335D01*
X143430147Y-115618574D01*
X143538320Y-115879727D01*
X143695363Y-116114759D01*
X143895241Y-116314637D01*
X144127759Y-116470000D01*
X143895241Y-116625363D01*
X143695363Y-116825241D01*
X143538320Y-117060273D01*
X143430147Y-117321426D01*
X143375000Y-117598665D01*
X143375000Y-117881335D01*
X143430147Y-118158574D01*
X143538320Y-118419727D01*
X143695363Y-118654759D01*
X143895241Y-118854637D01*
X144127759Y-119010000D01*
X143895241Y-119165363D01*
X143695363Y-119365241D01*
X143538320Y-119600273D01*
X143430147Y-119861426D01*
X143375000Y-120138665D01*
X143375000Y-120421335D01*
X143430147Y-120698574D01*
X143538320Y-120959727D01*
X143695363Y-121194759D01*
X143895241Y-121394637D01*
X144130273Y-121551680D01*
X144140865Y-121556067D01*
X143954869Y-121667615D01*
X143746481Y-121856586D01*
X143578963Y-122082580D01*
X143458754Y-122336913D01*
X143418096Y-122470961D01*
X143540085Y-122693000D01*
X144683000Y-122693000D01*
X144683000Y-122673000D01*
X144937000Y-122673000D01*
X144937000Y-122693000D01*
X146079915Y-122693000D01*
X146201904Y-122470961D01*
X146161246Y-122336913D01*
X146041037Y-122082580D01*
X145873519Y-121856586D01*
X145665131Y-121667615D01*
X145479135Y-121556067D01*
X145489727Y-121551680D01*
X145724759Y-121394637D01*
X145924637Y-121194759D01*
X146081680Y-120959727D01*
X146189853Y-120698574D01*
X146245000Y-120421335D01*
X146245000Y-120138665D01*
X146189853Y-119861426D01*
X146081680Y-119600273D01*
X145924637Y-119365241D01*
X145724759Y-119165363D01*
X145492241Y-119010000D01*
X145724759Y-118854637D01*
X145924637Y-118654759D01*
X146081680Y-118419727D01*
X146189853Y-118158574D01*
X146245000Y-117881335D01*
X146245000Y-117598665D01*
X146189853Y-117321426D01*
X146081680Y-117060273D01*
X145924637Y-116825241D01*
X145724759Y-116625363D01*
X145492241Y-116470000D01*
X145724759Y-116314637D01*
X145924637Y-116114759D01*
X146081680Y-115879727D01*
X146189853Y-115618574D01*
X146245000Y-115341335D01*
X146245000Y-115058665D01*
X146189853Y-114781426D01*
X146081680Y-114520273D01*
X145924637Y-114285241D01*
X145724759Y-114085363D01*
X145489727Y-113928320D01*
X145228574Y-113820147D01*
X144951335Y-113765000D01*
X144668665Y-113765000D01*
X144391426Y-113820147D01*
X144130273Y-113928320D01*
X143895241Y-114085363D01*
X143695363Y-114285241D01*
X143538320Y-114520273D01*
X143430147Y-114781426D01*
X143375000Y-115058665D01*
X138628072Y-115058665D01*
X138628072Y-114400000D01*
X138615812Y-114275518D01*
X138579502Y-114155820D01*
X138520537Y-114045506D01*
X138441185Y-113948815D01*
X138344494Y-113869463D01*
X138234180Y-113810498D01*
X138114482Y-113774188D01*
X137990000Y-113761928D01*
X136390000Y-113761928D01*
X136265518Y-113774188D01*
X136145820Y-113810498D01*
X136035506Y-113869463D01*
X135938815Y-113948815D01*
X135859463Y-114045506D01*
X135800498Y-114155820D01*
X135764188Y-114275518D01*
X135751928Y-114400000D01*
X135751928Y-116000000D01*
X135764188Y-116124482D01*
X135800498Y-116244180D01*
X135859463Y-116354494D01*
X135938815Y-116451185D01*
X136035506Y-116530537D01*
X136145820Y-116589502D01*
X136265518Y-116625812D01*
X136273961Y-116626643D01*
X136075363Y-116825241D01*
X135918320Y-117060273D01*
X135810147Y-117321426D01*
X135755000Y-117598665D01*
X135755000Y-117881335D01*
X135810147Y-118158574D01*
X135918320Y-118419727D01*
X136075363Y-118654759D01*
X136275241Y-118854637D01*
X136507759Y-119010000D01*
X136275241Y-119165363D01*
X136075363Y-119365241D01*
X135918320Y-119600273D01*
X135810147Y-119861426D01*
X135755000Y-120138665D01*
X135755000Y-120421335D01*
X135810147Y-120698574D01*
X135918320Y-120959727D01*
X136075363Y-121194759D01*
X136275241Y-121394637D01*
X136507759Y-121550000D01*
X136275241Y-121705363D01*
X136075363Y-121905241D01*
X135918320Y-122140273D01*
X135810147Y-122401426D01*
X135755000Y-122678665D01*
X135755000Y-122961335D01*
X135791312Y-123143886D01*
X135345199Y-123590000D01*
X131734803Y-123590000D01*
X131395000Y-123250198D01*
X131395000Y-123188061D01*
X131355226Y-122988102D01*
X131277205Y-122799744D01*
X131163937Y-122630226D01*
X131019774Y-122486063D01*
X130850256Y-122372795D01*
X130669860Y-122298072D01*
X131290000Y-122298072D01*
X131414482Y-122285812D01*
X131534180Y-122249502D01*
X131644494Y-122190537D01*
X131741185Y-122111185D01*
X131820537Y-122014494D01*
X131879502Y-121904180D01*
X131885056Y-121885873D01*
X131951495Y-121952312D01*
X132202905Y-122120299D01*
X132482257Y-122236011D01*
X132778816Y-122295000D01*
X133081184Y-122295000D01*
X133377743Y-122236011D01*
X133657095Y-122120299D01*
X133908505Y-121952312D01*
X134122312Y-121738505D01*
X134290299Y-121487095D01*
X134406011Y-121207743D01*
X134465000Y-120911184D01*
X134465000Y-120608816D01*
X134406011Y-120312257D01*
X134290299Y-120032905D01*
X134122312Y-119781495D01*
X133908505Y-119567688D01*
X133657095Y-119399701D01*
X133377743Y-119283989D01*
X133081184Y-119225000D01*
X132778816Y-119225000D01*
X132482257Y-119283989D01*
X132202905Y-119399701D01*
X131951495Y-119567688D01*
X131885056Y-119634127D01*
X131879502Y-119615820D01*
X131820537Y-119505506D01*
X131741185Y-119408815D01*
X131644494Y-119329463D01*
X131534180Y-119270498D01*
X131414482Y-119234188D01*
X131290000Y-119221928D01*
X129490000Y-119221928D01*
X129365518Y-119234188D01*
X129245820Y-119270498D01*
X129135506Y-119329463D01*
X129038815Y-119408815D01*
X128959463Y-119505506D01*
X128900498Y-119615820D01*
X128864188Y-119735518D01*
X128851928Y-119860000D01*
X117281495Y-119860000D01*
X117202312Y-119741495D01*
X116988505Y-119527688D01*
X116737095Y-119359701D01*
X116457743Y-119243989D01*
X116161184Y-119185000D01*
X115858816Y-119185000D01*
X115562257Y-119243989D01*
X115282905Y-119359701D01*
X115031495Y-119527688D01*
X114965056Y-119594127D01*
X114959502Y-119575820D01*
X114900537Y-119465506D01*
X114821185Y-119368815D01*
X114724494Y-119289463D01*
X114614180Y-119230498D01*
X114494482Y-119194188D01*
X114370000Y-119181928D01*
X112570000Y-119181928D01*
X112445518Y-119194188D01*
X112325820Y-119230498D01*
X112215506Y-119289463D01*
X112118815Y-119368815D01*
X112039463Y-119465506D01*
X111980498Y-119575820D01*
X111944188Y-119695518D01*
X111931928Y-119820000D01*
X110721945Y-119820000D01*
X110720375Y-117218514D01*
X119755000Y-117218514D01*
X119755000Y-117481486D01*
X119806304Y-117739405D01*
X119906939Y-117982359D01*
X120053038Y-118201013D01*
X120238987Y-118386962D01*
X120457641Y-118533061D01*
X120700595Y-118633696D01*
X120958514Y-118685000D01*
X121221486Y-118685000D01*
X121479405Y-118633696D01*
X121722359Y-118533061D01*
X121941013Y-118386962D01*
X122126962Y-118201013D01*
X122273061Y-117982359D01*
X122373696Y-117739405D01*
X122425000Y-117481486D01*
X122425000Y-117218514D01*
X124835000Y-117218514D01*
X124835000Y-117481486D01*
X124886304Y-117739405D01*
X124986939Y-117982359D01*
X125133038Y-118201013D01*
X125318987Y-118386962D01*
X125537641Y-118533061D01*
X125780595Y-118633696D01*
X126038514Y-118685000D01*
X126301486Y-118685000D01*
X126559405Y-118633696D01*
X126802359Y-118533061D01*
X127021013Y-118386962D01*
X127206962Y-118201013D01*
X127353061Y-117982359D01*
X127453696Y-117739405D01*
X127505000Y-117481486D01*
X127505000Y-117218514D01*
X127453696Y-116960595D01*
X127353061Y-116717641D01*
X127206962Y-116498987D01*
X127021013Y-116313038D01*
X126802359Y-116166939D01*
X126559405Y-116066304D01*
X126301486Y-116015000D01*
X126038514Y-116015000D01*
X125780595Y-116066304D01*
X125537641Y-116166939D01*
X125318987Y-116313038D01*
X125133038Y-116498987D01*
X124986939Y-116717641D01*
X124886304Y-116960595D01*
X124835000Y-117218514D01*
X122425000Y-117218514D01*
X122373696Y-116960595D01*
X122273061Y-116717641D01*
X122126962Y-116498987D01*
X121941013Y-116313038D01*
X121722359Y-116166939D01*
X121479405Y-116066304D01*
X121221486Y-116015000D01*
X120958514Y-116015000D01*
X120700595Y-116066304D01*
X120457641Y-116166939D01*
X120238987Y-116313038D01*
X120053038Y-116498987D01*
X119906939Y-116717641D01*
X119806304Y-116960595D01*
X119755000Y-117218514D01*
X110720375Y-117218514D01*
X110717002Y-111633329D01*
X119667284Y-111633329D01*
X119699953Y-111741044D01*
X119810208Y-111978392D01*
X119964649Y-112189670D01*
X120157340Y-112366759D01*
X120380877Y-112502853D01*
X120626670Y-112592722D01*
X120833000Y-112470201D01*
X120833000Y-111427000D01*
X121087000Y-111427000D01*
X121087000Y-112470201D01*
X121293330Y-112592722D01*
X121539123Y-112502853D01*
X121762660Y-112366759D01*
X121955351Y-112189670D01*
X122109792Y-111978392D01*
X122220047Y-111741044D01*
X122252716Y-111633329D01*
X122129374Y-111427000D01*
X121087000Y-111427000D01*
X120833000Y-111427000D01*
X119790626Y-111427000D01*
X119667284Y-111633329D01*
X110717002Y-111633329D01*
X110716600Y-110966671D01*
X119667284Y-110966671D01*
X119790626Y-111173000D01*
X120833000Y-111173000D01*
X120833000Y-110129799D01*
X121087000Y-110129799D01*
X121087000Y-111173000D01*
X122129374Y-111173000D01*
X122132055Y-111168514D01*
X124705000Y-111168514D01*
X124705000Y-111431486D01*
X124756304Y-111689405D01*
X124856939Y-111932359D01*
X125003038Y-112151013D01*
X125188987Y-112336962D01*
X125407641Y-112483061D01*
X125650595Y-112583696D01*
X125908514Y-112635000D01*
X126171486Y-112635000D01*
X126429405Y-112583696D01*
X126672359Y-112483061D01*
X126891013Y-112336962D01*
X127076962Y-112151013D01*
X127223061Y-111932359D01*
X127323696Y-111689405D01*
X127375000Y-111431486D01*
X127375000Y-111168514D01*
X127323696Y-110910595D01*
X127223061Y-110667641D01*
X127076962Y-110448987D01*
X126891013Y-110263038D01*
X126672359Y-110116939D01*
X126429405Y-110016304D01*
X126171486Y-109965000D01*
X125908514Y-109965000D01*
X125650595Y-110016304D01*
X125407641Y-110116939D01*
X125188987Y-110263038D01*
X125003038Y-110448987D01*
X124856939Y-110667641D01*
X124756304Y-110910595D01*
X124705000Y-111168514D01*
X122132055Y-111168514D01*
X122252716Y-110966671D01*
X122220047Y-110858956D01*
X122109792Y-110621608D01*
X121955351Y-110410330D01*
X121762660Y-110233241D01*
X121539123Y-110097147D01*
X121293330Y-110007278D01*
X121087000Y-110129799D01*
X120833000Y-110129799D01*
X120626670Y-110007278D01*
X120380877Y-110097147D01*
X120157340Y-110233241D01*
X119964649Y-110410330D01*
X119810208Y-110621608D01*
X119699953Y-110858956D01*
X119667284Y-110966671D01*
X110716600Y-110966671D01*
X110713060Y-105105599D01*
X138000000Y-105105599D01*
X138000000Y-105314401D01*
X138040735Y-105519191D01*
X138120640Y-105712098D01*
X138236644Y-105885711D01*
X138384289Y-106033356D01*
X138557902Y-106149360D01*
X138750809Y-106229265D01*
X138955599Y-106270000D01*
X139164401Y-106270000D01*
X139369191Y-106229265D01*
X139560000Y-106150229D01*
X139750809Y-106229265D01*
X139955599Y-106270000D01*
X140164401Y-106270000D01*
X140369191Y-106229265D01*
X140560000Y-106150229D01*
X140750809Y-106229265D01*
X140955599Y-106270000D01*
X141164401Y-106270000D01*
X141369191Y-106229265D01*
X141560000Y-106150229D01*
X141750809Y-106229265D01*
X141955599Y-106270000D01*
X142164401Y-106270000D01*
X142369191Y-106229265D01*
X142560000Y-106150229D01*
X142750809Y-106229265D01*
X142955599Y-106270000D01*
X143164401Y-106270000D01*
X143369191Y-106229265D01*
X143562098Y-106149360D01*
X143735711Y-106033356D01*
X143883356Y-105885711D01*
X143999360Y-105712098D01*
X144079265Y-105519191D01*
X144120000Y-105314401D01*
X144120000Y-105105599D01*
X144079265Y-104900809D01*
X144072138Y-104883603D01*
X144074502Y-104879180D01*
X144110812Y-104759482D01*
X144123072Y-104635000D01*
X144123072Y-103785000D01*
X144110812Y-103660518D01*
X144080320Y-103560000D01*
X145485199Y-103560000D01*
X147950000Y-106024803D01*
X147950001Y-119281928D01*
X147810000Y-119281928D01*
X147685518Y-119294188D01*
X147565820Y-119330498D01*
X147455506Y-119389463D01*
X147358815Y-119468815D01*
X147279463Y-119565506D01*
X147220498Y-119675820D01*
X147184188Y-119795518D01*
X147171928Y-119920000D01*
X147171928Y-121720000D01*
X147184188Y-121844482D01*
X147220498Y-121964180D01*
X147279463Y-122074494D01*
X147358815Y-122171185D01*
X147455506Y-122250537D01*
X147565820Y-122309502D01*
X147685518Y-122345812D01*
X147810000Y-122358072D01*
X149610000Y-122358072D01*
X149734482Y-122345812D01*
X149852276Y-122310080D01*
X150853199Y-123311003D01*
X150876997Y-123340001D01*
X150992722Y-123434974D01*
X151124751Y-123505546D01*
X151268012Y-123549003D01*
X151379665Y-123560000D01*
X151379675Y-123560000D01*
X151416998Y-123563676D01*
X151454321Y-123560000D01*
X157942025Y-123560000D01*
X157948987Y-123566962D01*
X158167641Y-123713061D01*
X158410595Y-123813696D01*
X158668514Y-123865000D01*
X158931486Y-123865000D01*
X159189405Y-123813696D01*
X159432359Y-123713061D01*
X159651013Y-123566962D01*
X159836962Y-123381013D01*
X159983061Y-123162359D01*
X160083696Y-122919405D01*
X160135000Y-122661486D01*
X160135000Y-122398514D01*
X160083696Y-122140595D01*
X159983061Y-121897641D01*
X159836962Y-121678987D01*
X159651013Y-121493038D01*
X159432359Y-121346939D01*
X159189405Y-121246304D01*
X158931486Y-121195000D01*
X158668514Y-121195000D01*
X158410595Y-121246304D01*
X158167641Y-121346939D01*
X157948987Y-121493038D01*
X157763038Y-121678987D01*
X157616939Y-121897641D01*
X157557972Y-122040000D01*
X152187067Y-122040000D01*
X152228505Y-122012312D01*
X152442312Y-121798505D01*
X152610299Y-121547095D01*
X152726011Y-121267743D01*
X152785000Y-120971184D01*
X152785000Y-120668816D01*
X152726011Y-120372257D01*
X152610299Y-120092905D01*
X152514813Y-119950000D01*
X164451928Y-119950000D01*
X164451928Y-121750000D01*
X164464188Y-121874482D01*
X164500498Y-121994180D01*
X164559463Y-122104494D01*
X164638815Y-122201185D01*
X164735506Y-122280537D01*
X164845820Y-122339502D01*
X164965518Y-122375812D01*
X165090000Y-122388072D01*
X166890000Y-122388072D01*
X167014482Y-122375812D01*
X167134180Y-122339502D01*
X167244494Y-122280537D01*
X167341185Y-122201185D01*
X167420537Y-122104494D01*
X167479502Y-121994180D01*
X167485056Y-121975873D01*
X167551495Y-122042312D01*
X167802905Y-122210299D01*
X168082257Y-122326011D01*
X168378816Y-122385000D01*
X168681184Y-122385000D01*
X168977743Y-122326011D01*
X169257095Y-122210299D01*
X169508505Y-122042312D01*
X169722312Y-121828505D01*
X169890299Y-121577095D01*
X170006011Y-121297743D01*
X170065000Y-121001184D01*
X170065000Y-120698816D01*
X170006011Y-120402257D01*
X169890299Y-120122905D01*
X169722312Y-119871495D01*
X169508505Y-119657688D01*
X169257095Y-119489701D01*
X168977743Y-119373989D01*
X168681184Y-119315000D01*
X168378816Y-119315000D01*
X168082257Y-119373989D01*
X167802905Y-119489701D01*
X167551495Y-119657688D01*
X167485056Y-119724127D01*
X167479502Y-119705820D01*
X167420537Y-119595506D01*
X167341185Y-119498815D01*
X167244494Y-119419463D01*
X167134180Y-119360498D01*
X167014482Y-119324188D01*
X166890000Y-119311928D01*
X165090000Y-119311928D01*
X164965518Y-119324188D01*
X164845820Y-119360498D01*
X164735506Y-119419463D01*
X164638815Y-119498815D01*
X164559463Y-119595506D01*
X164500498Y-119705820D01*
X164464188Y-119825518D01*
X164451928Y-119950000D01*
X152514813Y-119950000D01*
X152442312Y-119841495D01*
X152228505Y-119627688D01*
X151977095Y-119459701D01*
X151697743Y-119343989D01*
X151401184Y-119285000D01*
X151098816Y-119285000D01*
X150802257Y-119343989D01*
X150522905Y-119459701D01*
X150271495Y-119627688D01*
X150205056Y-119694127D01*
X150199502Y-119675820D01*
X150140537Y-119565506D01*
X150061185Y-119468815D01*
X149964494Y-119389463D01*
X149854180Y-119330498D01*
X149734482Y-119294188D01*
X149610000Y-119281928D01*
X149470000Y-119281928D01*
X149470000Y-116743329D01*
X155397284Y-116743329D01*
X155429953Y-116851044D01*
X155540208Y-117088392D01*
X155694649Y-117299670D01*
X155887340Y-117476759D01*
X156110877Y-117612853D01*
X156356670Y-117702722D01*
X156563000Y-117580201D01*
X156563000Y-116537000D01*
X156817000Y-116537000D01*
X156817000Y-117580201D01*
X157023330Y-117702722D01*
X157269123Y-117612853D01*
X157492660Y-117476759D01*
X157685351Y-117299670D01*
X157839792Y-117088392D01*
X157950047Y-116851044D01*
X157982716Y-116743329D01*
X157859374Y-116537000D01*
X156817000Y-116537000D01*
X156563000Y-116537000D01*
X155520626Y-116537000D01*
X155397284Y-116743329D01*
X149470000Y-116743329D01*
X149470000Y-116076671D01*
X155397284Y-116076671D01*
X155520626Y-116283000D01*
X156563000Y-116283000D01*
X156563000Y-115239799D01*
X156817000Y-115239799D01*
X156817000Y-116283000D01*
X157859374Y-116283000D01*
X157862055Y-116278514D01*
X160435000Y-116278514D01*
X160435000Y-116541486D01*
X160486304Y-116799405D01*
X160586939Y-117042359D01*
X160733038Y-117261013D01*
X160918987Y-117446962D01*
X161137641Y-117593061D01*
X161380595Y-117693696D01*
X161638514Y-117745000D01*
X161901486Y-117745000D01*
X162159405Y-117693696D01*
X162402359Y-117593061D01*
X162621013Y-117446962D01*
X162806962Y-117261013D01*
X162953061Y-117042359D01*
X163053696Y-116799405D01*
X163105000Y-116541486D01*
X163105000Y-116278514D01*
X163053696Y-116020595D01*
X162953061Y-115777641D01*
X162806962Y-115558987D01*
X162621013Y-115373038D01*
X162402359Y-115226939D01*
X162159405Y-115126304D01*
X161901486Y-115075000D01*
X161638514Y-115075000D01*
X161380595Y-115126304D01*
X161137641Y-115226939D01*
X160918987Y-115373038D01*
X160733038Y-115558987D01*
X160586939Y-115777641D01*
X160486304Y-116020595D01*
X160435000Y-116278514D01*
X157862055Y-116278514D01*
X157982716Y-116076671D01*
X157950047Y-115968956D01*
X157839792Y-115731608D01*
X157685351Y-115520330D01*
X157492660Y-115343241D01*
X157269123Y-115207147D01*
X157023330Y-115117278D01*
X156817000Y-115239799D01*
X156563000Y-115239799D01*
X156356670Y-115117278D01*
X156110877Y-115207147D01*
X155887340Y-115343241D01*
X155694649Y-115520330D01*
X155540208Y-115731608D01*
X155429953Y-115968956D01*
X155397284Y-116076671D01*
X149470000Y-116076671D01*
X149470000Y-110938514D01*
X155555000Y-110938514D01*
X155555000Y-111201486D01*
X155606304Y-111459405D01*
X155706939Y-111702359D01*
X155853038Y-111921013D01*
X156038987Y-112106962D01*
X156257641Y-112253061D01*
X156500595Y-112353696D01*
X156758514Y-112405000D01*
X157021486Y-112405000D01*
X157279405Y-112353696D01*
X157522359Y-112253061D01*
X157741013Y-112106962D01*
X157926962Y-111921013D01*
X158073061Y-111702359D01*
X158173696Y-111459405D01*
X158184850Y-111403329D01*
X160677284Y-111403329D01*
X160709953Y-111511044D01*
X160820208Y-111748392D01*
X160974649Y-111959670D01*
X161167340Y-112136759D01*
X161390877Y-112272853D01*
X161636670Y-112362722D01*
X161843000Y-112240201D01*
X161843000Y-111197000D01*
X162097000Y-111197000D01*
X162097000Y-112240201D01*
X162303330Y-112362722D01*
X162549123Y-112272853D01*
X162772660Y-112136759D01*
X162965351Y-111959670D01*
X163119792Y-111748392D01*
X163230047Y-111511044D01*
X163262716Y-111403329D01*
X163139374Y-111197000D01*
X162097000Y-111197000D01*
X161843000Y-111197000D01*
X160800626Y-111197000D01*
X160677284Y-111403329D01*
X158184850Y-111403329D01*
X158225000Y-111201486D01*
X158225000Y-110938514D01*
X158184851Y-110736671D01*
X160677284Y-110736671D01*
X160800626Y-110943000D01*
X161843000Y-110943000D01*
X161843000Y-109899799D01*
X162097000Y-109899799D01*
X162097000Y-110943000D01*
X163139374Y-110943000D01*
X163262716Y-110736671D01*
X163230047Y-110628956D01*
X163119792Y-110391608D01*
X162965351Y-110180330D01*
X162772660Y-110003241D01*
X162549123Y-109867147D01*
X162303330Y-109777278D01*
X162097000Y-109899799D01*
X161843000Y-109899799D01*
X161636670Y-109777278D01*
X161390877Y-109867147D01*
X161167340Y-110003241D01*
X160974649Y-110180330D01*
X160820208Y-110391608D01*
X160709953Y-110628956D01*
X160677284Y-110736671D01*
X158184851Y-110736671D01*
X158173696Y-110680595D01*
X158073061Y-110437641D01*
X157926962Y-110218987D01*
X157741013Y-110033038D01*
X157522359Y-109886939D01*
X157279405Y-109786304D01*
X157021486Y-109735000D01*
X156758514Y-109735000D01*
X156500595Y-109786304D01*
X156257641Y-109886939D01*
X156038987Y-110033038D01*
X155853038Y-110218987D01*
X155706939Y-110437641D01*
X155606304Y-110680595D01*
X155555000Y-110938514D01*
X149470000Y-110938514D01*
X149470000Y-105747322D01*
X149473676Y-105709999D01*
X149470000Y-105672676D01*
X149470000Y-105672667D01*
X149459003Y-105561014D01*
X149415546Y-105417753D01*
X149344974Y-105285724D01*
X149298865Y-105229540D01*
X149273799Y-105198996D01*
X149273795Y-105198992D01*
X149250001Y-105169999D01*
X149221009Y-105146206D01*
X146363804Y-102289003D01*
X146340001Y-102259999D01*
X146224276Y-102165026D01*
X146092247Y-102094454D01*
X145948986Y-102050997D01*
X145837333Y-102040000D01*
X145837322Y-102040000D01*
X145800000Y-102036324D01*
X145762678Y-102040000D01*
X143289600Y-102040000D01*
X143193988Y-102010997D01*
X143082335Y-102000000D01*
X143082324Y-102000000D01*
X143045002Y-101996324D01*
X143007680Y-102000000D01*
X140946285Y-102000000D01*
X140908960Y-101996324D01*
X140871635Y-102000000D01*
X140871627Y-102000000D01*
X140759974Y-102010997D01*
X140616713Y-102054454D01*
X140484684Y-102125026D01*
X140368959Y-102219999D01*
X140345161Y-102248997D01*
X139548998Y-103045161D01*
X139520000Y-103068959D01*
X139496202Y-103097957D01*
X139496201Y-103097958D01*
X139425026Y-103184684D01*
X139410394Y-103212058D01*
X139385250Y-103201128D01*
X139350062Y-103190460D01*
X139187000Y-103317743D01*
X139187000Y-103608587D01*
X139120640Y-103707902D01*
X139040735Y-103900809D01*
X139000000Y-104105599D01*
X139000000Y-104150000D01*
X138955599Y-104150000D01*
X138750809Y-104190735D01*
X138557902Y-104270640D01*
X138458587Y-104337000D01*
X138166379Y-104337000D01*
X138040453Y-104500064D01*
X138116632Y-104693394D01*
X138123353Y-104703841D01*
X138120640Y-104707902D01*
X138040735Y-104900809D01*
X138000000Y-105105599D01*
X110713060Y-105105599D01*
X110712344Y-103919936D01*
X138040453Y-103919936D01*
X138166379Y-104083000D01*
X138933000Y-104083000D01*
X138933000Y-103317743D01*
X138769938Y-103190460D01*
X138734750Y-103201128D01*
X138544178Y-103283966D01*
X138373429Y-103402391D01*
X138229064Y-103551852D01*
X138116632Y-103726606D01*
X138040453Y-103919936D01*
X110712344Y-103919936D01*
X110710399Y-100700542D01*
X170330599Y-100749459D01*
G37*
%TD.AperFunction*%
%TD*%
M02*
