%TF.GenerationSoftware,KiCad,Pcbnew,(5.1.8)-1*%
%TF.CreationDate,2021-01-06T02:07:28+05:30*%
%TF.ProjectId,LSA,4c53412e-6b69-4636-9164-5f7063625858,rev?*%
%TF.SameCoordinates,Original*%
%TF.FileFunction,Soldermask,Bot*%
%TF.FilePolarity,Negative*%
%FSLAX46Y46*%
G04 Gerber Fmt 4.6, Leading zero omitted, Abs format (unit mm)*
G04 Created by KiCad (PCBNEW (5.1.8)-1) date 2021-01-06 02:07:28*
%MOMM*%
%LPD*%
G01*
G04 APERTURE LIST*
%ADD10C,1.800000*%
%ADD11R,1.800000X1.800000*%
%ADD12O,1.400000X1.400000*%
%ADD13C,1.400000*%
%ADD14O,0.850000X0.850000*%
%ADD15R,0.850000X0.850000*%
%ADD16O,1.600000X1.600000*%
%ADD17R,1.600000X1.600000*%
G04 APERTURE END LIST*
D10*
%TO.C,D2*%
X132930000Y-120760000D03*
D11*
X130390000Y-120760000D03*
%TD*%
D12*
%TO.C,R8*%
X156690000Y-116410000D03*
D13*
X161770000Y-116410000D03*
%TD*%
D14*
%TO.C,J1*%
X139060000Y-105210000D03*
X139060000Y-104210000D03*
X140060000Y-105210000D03*
X140060000Y-104210000D03*
X141060000Y-105210000D03*
X141060000Y-104210000D03*
X142060000Y-105210000D03*
X142060000Y-104210000D03*
X143060000Y-105210000D03*
D15*
X143060000Y-104210000D03*
%TD*%
D10*
%TO.C,D4*%
X168530000Y-120850000D03*
D11*
X165990000Y-120850000D03*
%TD*%
D10*
%TO.C,D3*%
X151250000Y-120820000D03*
D11*
X148710000Y-120820000D03*
%TD*%
D10*
%TO.C,D1*%
X116010000Y-120720000D03*
D11*
X113470000Y-120720000D03*
%TD*%
D16*
%TO.C,U1*%
X144810000Y-115200000D03*
X137190000Y-130440000D03*
X144810000Y-117740000D03*
X137190000Y-127900000D03*
X144810000Y-120280000D03*
X137190000Y-125360000D03*
X144810000Y-122820000D03*
X137190000Y-122820000D03*
X144810000Y-125360000D03*
X137190000Y-120280000D03*
X144810000Y-127900000D03*
X137190000Y-117740000D03*
X144810000Y-130440000D03*
D17*
X137190000Y-115200000D03*
%TD*%
D12*
%TO.C,R7*%
X161970000Y-111070000D03*
D13*
X156890000Y-111070000D03*
%TD*%
D12*
%TO.C,R6*%
X120960000Y-111300000D03*
D13*
X126040000Y-111300000D03*
%TD*%
D12*
%TO.C,R5*%
X123330000Y-126450000D03*
D13*
X123330000Y-121370000D03*
%TD*%
D12*
%TO.C,R4*%
X158800000Y-127610000D03*
D13*
X158800000Y-122530000D03*
%TD*%
D12*
%TO.C,R3*%
X156220000Y-130700000D03*
D13*
X161300000Y-130700000D03*
%TD*%
D12*
%TO.C,R2*%
X126170000Y-117350000D03*
D13*
X121090000Y-117350000D03*
%TD*%
D12*
%TO.C,R1*%
X121090000Y-130160000D03*
D13*
X126170000Y-130160000D03*
%TD*%
D10*
%TO.C,D8*%
X168820000Y-129500000D03*
D11*
X166280000Y-129500000D03*
%TD*%
D10*
%TO.C,D7*%
X151010000Y-129540000D03*
D11*
X148470000Y-129540000D03*
%TD*%
D10*
%TO.C,D6*%
X133160000Y-129570000D03*
D11*
X130620000Y-129570000D03*
%TD*%
D10*
%TO.C,D5*%
X115510000Y-129600000D03*
D11*
X112970000Y-129600000D03*
%TD*%
M02*
